<!--Generator: Adobe Illustrator 16.0.3, SVG Export Plug-In . SVG Version: 6.00 Build 0)--><svg xmlns="http://www.w3.org/2000/svg" width="64" height="64"><g><g fill="none" stroke="#000" stroke-linecap="round" stroke-linejoin="round" stroke-miterlimit="10"><path d="M10.7 15.6h42.6v41.6H10.7z"/><path d="M17.7 15.6L32 6.8l14.3 8.8M24.9 18.8s-3.7 3.2-4.2 7.8c-.1 1.5-2.3 2.1-2.8 3.2-.2.5 1.1.8 1 1.3-.1.4-.1.5-.2 1-.1.4-.2.5-.3.8-.1.3 0 .3-.1.6 0 .4.3.6.4 1.1.1.5-.4.7-.4 1.4 0 .6.6 1 .7 1.1.6.5 1.3.4 2 .4.8-.1.9-.2 2.2-.5 1-.2 1.5-.3 1.9-.2.7.2 1.4.7 1.6 1.4.1.3.1.5-.1 1.6-.2 1.8-.2 1.7-.2 2-.3 1.4-3 4.5-3 4.5-.2.2-1.5 1-1.6 3.2-.1 1.9 1 2.5.9 4.1"/><path d="M24.8 18.8s2.7-1.6 5.6-1.8c4.9-.3 8.6 2.2 10.2 4.9.9 1.5 1.6 3 2.2 5.8.6 2.8.7 6 .7 7 .1 7.8-2 9.3-.9 13.9.8 3 2.2 4.7 2.7 5.2"/><path d="M25.7 18.3c-.3.4-.7 1.1-.8 2.1-.1 1.2.3 2 .5 2.5.5 1.2 1.2 1.8 1.6 2.2 2.7 3 1.4 9 .9 11-.3 1.2-.6 2.2-.8 2.8"/></g></g></svg>