<!--Generator: Adobe Illustrator 16.0.3, SVG Export Plug-In . SVG Version: 6.00 Build 0)--><svg xmlns="http://www.w3.org/2000/svg" width="64" height="64"><g><g fill="none" stroke="#000" stroke-linecap="round" stroke-linejoin="round" stroke-miterlimit="10"><circle cx="32" cy="32" r="24.6"/><path d="M38.5 23.1c-1.1-.7-3.9-2.5-7.5-2.1-1.2.1-3.2.3-4.6 2-1.6 1.8-1.9 4.7-.3 6.6 1.2 1.4 3.1 1.6 4.7 2 .6.2 1.3.3 1.9.5 3.4.8 4 1 4.9 1.6 1.1.8 1.9 1.8 2.1 3.2.2 1.2-.2 2.5-.9 3.5-1.9 2.6-5.5 2.7-8.4 2.2-1.8-.3-3.6-1-5.1-2.1-.3-.2-.7-.5-1-.8M32 17.8v28.4"/></g></g></svg>