<!--Generator: Adobe Illustrator 16.0.3, SVG Export Plug-In . SVG Version: 6.00 Build 0)--><svg xmlns="http://www.w3.org/2000/svg" width="64" height="64"><g fill="none" stroke="#000" stroke-linecap="round" stroke-linejoin="round" stroke-miterlimit="10"><path d="M24 19.4c2.2-1.5 4.8-2.6 7.5-3 1.7-.3 3.4-.2 5.1.1 1.7.3 3.1 1.2 4.7 1.5.5.1 1.1.2 1.6 0 1.1-.3 1.6-1.3 2.3-2.1.8-.9 1.6-1.7 2.4-2.5 1.7-1.5 3.7-2.8 5.9-3.6 1.5-.5 3.7-1.6 4.2.4.1.6.1 1.9 0 2.5-.4 3.2-2.1 6.3-3.1 9.4-.5 1.5-.9 2.7-1.2 4.3-.3 1.6.1 3.7-.1 5.3-.6 5.9-1.3 12.1-4.5 16.7-3.2 4.4-8.9 7.6-15 7.7-9.1.2-16.6-6.7-19.1-13.4-1.9-5.1.4-6.3-.2-17.6-.6-10.8-3.1-16-1.2-17.1 1.2-.7 4.9.9 13.1 9.7"/><path d="M40.4 43.8c-1.6.7-4.3 1.6-7.6 1.8-3.7.2-6.6-.6-8.3-1.2M20.9 28.7c.4-.4 1.4-1.3 3-1.6 2.2-.4 3.9.5 4.3.8M36.7 28.1c.4-.4 1.4-1.3 3-1.6 2.2-.4 3.9.5 4.3.8M32.3 34c.1-.2.3-.6.7-.9.1-.1.6-.4 1.2-.3.7 0 1.2.5 1.3.6.7.7.6 1.7.6 1.8 0 .3-.1.8-1.6 2.3-.5.5-.8.7-2.3 1.9h0c-.6-.4-1.5-1-2.4-1.9-1-1-1.4-1.6-1.5-2.2-.1-.9.5-2.2 1.7-2.5.8-.2 1.7.3 2.3 1.2zM32.8 45.6c-.2-2-.3-3.9-.5-5.9M20.1 34c-1.9-.7-4.2-1.5-7.1-2-2.9-.5-5.4-.6-7.5-.5M19.9 36.8c-2.1-.3-4.6-.6-7.3-.6-2.5 0-4.8.1-6.9.4M6.7 42.1c1.3-.6 3-1.2 4.8-1.6 3.5-.9 6.5-.9 8.8-.8M43.9 33.6c1.9-.7 4.2-1.5 7.1-2 2.9-.5 5.4-.6 7.5-.5M44.1 36.5c2.1-.3 4.6-.6 7.3-.6 2.5 0 4.8.1 6.9.4M57.3 41.7c-1.3-.6-3-1.2-4.8-1.6-3.5-.9-6.5-.9-8.8-.8"/></g></svg>