<!--Generator: Adobe Illustrator 16.0.3, SVG Export Plug-In . SVG Version: 6.00 Build 0)--><svg xmlns="http://www.w3.org/2000/svg" width="64" height="64"><g fill="none" stroke="#000" stroke-linecap="round" stroke-linejoin="round" stroke-miterlimit="10"><path d="M27.9 49.3c.1-4.4.4-19.2-4.2-20.8-.3-.1-1.2-.4-1.8 0-2 1.5 2.4 9.7.7 10.8-.3.2-.8 0-1.1-.1-3.7-1.5-6.1-10.9-5.7-19.6.2-3.7.8-7.5-1-8.5-.7-.4-1.5-.4-2.2-.1-2.2.9-2.3 4.8-2.7 11.7-.7 13.7-.9 14.1-.3 16.1.7 2.4 2.2 6.6 6.4 11 4-.2 7.9-.3 11.9-.5zM35.6 48.5c-.1-4.4-.4-19.2 4.2-20.8.3-.1 1.2-.4 1.8 0 2 1.5-2.4 9.7-.7 10.8.3.2.8 0 1.1-.1 3.7-1.5 6.1-10.9 5.7-19.6-.2-3.7-.8-7.5 1-8.5.9-.5 2.1-.1 2.2-.1 1.5.6 2.8 2.6 3.4 11.7.5 8.1.8 12.1-.4 16.1-.8 2.4-2.2 6.4-6.1 10.7M25.5 26.5c-.6-1-.6-2.4-.2-3.5.6-1.6 1.6-1.4 2.9-3.2 1.4-2 .8-3.4 2.1-4.2.7-.5 1.9-.7 2.7-.2 1.3.7.7 2.2 2.1 4.3 1.3 1.9 2.5 1.8 2.9 3.3.5 1.8-.9 3.6-1 3.7-2.7 3.2-9.8 2.9-11.5-.2zM24.2 19.4c-.8 0-1.6-1.6-1.8-2.9-.2-1.2.2-3 1-3.3.8-.2 1.9 1 2.2 2.1.6 1.9-.5 4.1-1.4 4.1zM37.1 18c-.7-.4-.6-2.2-.1-3.4.5-1.2 1.6-2.6 2.5-2.3.8.2 1.2 1.8.9 3C40 17 38 18.4 37.1 18zM28.5 14c-1 0-1.8-1.7-1.8-3.1 0-1.5 1.1-3.3 2.1-3.2 1 .1 1.8 1.8 1.8 3.3-.1 1.4-1.1 3-2.1 3zM34 13.6c-1-.2-1.5-2-1.3-3.3.3-1.5 1.6-3.1 2.6-2.8 1 .2 1.5 2.1 1.2 3.5-.3 1.4-1.5 2.8-2.5 2.6z"/><path d="M15.3 55.8c.7.7 1.4.8 6.2.7 6.5-.1 7.3-.3 7.9-1.1 1.2-1.5.9-4.3-.5-5.6-1.3-1.1-2.5-.2-7.8-.2-3.6 0-4.5-.4-5.5.4-1.6 1.3-1.7 4.3-.3 5.8zM34.1 55c.7.7 1.4.8 6.2.7 6.5-.1 7.3-.3 7.9-1.1 1.2-1.5.9-4.3-.5-5.6-1.3-1.1-2.5-.2-7.8-.2-3.6 0-4.5-.4-5.5.4-1.5 1.3-1.6 4.4-.3 5.8z"/></g></svg>