<!--Generator: Adobe Illustrator 16.0.3, SVG Export Plug-In . SVG Version: 6.00 Build 0)--><svg xmlns="http://www.w3.org/2000/svg" width="64" height="64"><g><g fill="none" stroke="#000" stroke-linecap="round" stroke-linejoin="round" stroke-miterlimit="10"><path d="M32.1 43.6c.1-.3.5-1.1 1.4-1.7.3-.2 1.2-.7 2.5-.7 1.4.1 2.4.9 2.6 1.2 1.4 1.4 1.2 3.3 1.2 3.6-.1.5-.3 1.6-3.1 4.6-2.3 2.5-4.7 3.7-4.7 3.7s-2.4-1.4-4.9-3.8c-2-2-2.8-3.1-2.9-4.4-.1-1.8 1-4.5 3.3-4.9 1.6-.2 3.4.7 4.6 2.4z"/><path d="M23.3 57.8C3.2 39.9 6.8 37 6.8 37H57.2s3.6 2.9-16.5 20.9H23.3zM38.8 26.5H23.9s1.3 5.2 6.8 5.1c5.5-.1 7.9-5.1 7.9-5.1l17.6-14.2M28.8 21.6s2.7-1.9-.9-6.3-.5-6.8-.5-6.8M34.3 21.6s2.7-2.2-.9-7.4-.5-8-.5-8"/></g></g></svg>