<!--Generator: Adobe Illustrator 16.0.3, SVG Export Plug-In . SVG Version: 6.00 Build 0)--><svg xmlns="http://www.w3.org/2000/svg" width="64" height="64"><g><g fill="none" stroke="#000" stroke-linecap="round" stroke-linejoin="round" stroke-miterlimit="10"><path d="M31.8 37.1c.2-.4.6-1.3 1.7-2 .3-.2 1.4-.8 2.9-.8 1.7.1 2.7 1.1 3 1.4 1.6 1.6 1.4 3.8 1.3 4.2-.1.6-.3 1.9-3.6 5.3-2.7 2.9-5.4 4.3-5.4 4.3s-2.8-1.6-5.6-4.4c-2.3-2.3-3.3-3.6-3.4-5.1-.2-2.1 1.1-5.2 3.8-5.7 1.8-.3 3.9.8 5.3 2.8zM36.8 24.6c.6-.5 2-1.4 4.1-1.7 2.7-.3 4.8.8 5.4 1.2M12.4 25.5c.6-.5 2-1.4 4.1-1.7 2.7-.3 4.8.8 5.4 1.2M23.8 20.5c.6-.5 2-1.4 4.1-1.7 2.7-.3 4.8.8 5.4 1.2"/><path d="M21.9 53.3C-1.4 32.5 2.8 29.1 2.8 29.1h58.4s4.2 3.4-19.1 24.2H21.9zM4 28.6c-.1-1-.3-3.7 1.4-5.3.5-.4.9-.7 1.7-1.1 3.1-1.5 4-.8 5.4-1.8 2.1-1.5 1-3.7 3.5-5.6 1.2-.9 2.6-1.1 3-1.2 2.8-.4 3.5 1.3 5.5.9 2.5-.4 2.6-3.1 5.5-3.8.3-.1 2.1-.5 3.9.4 3 1.4 2.2 4.5 4.6 5.7 2.8 1.3 5.6-2.2 8.1-.5 1.5 1 1.3 2.6 3.2 3.5 1.5.7 2.5.1 3.8.3 1.7.2 3.9 1.8 6 7.9"/></g></g></svg>