<!--Generator: Adobe Illustrator 16.0.3, SVG Export Plug-In . SVG Version: 6.00 Build 0)--><svg xmlns="http://www.w3.org/2000/svg" width="64" height="64"><g><g fill="none" stroke="#000" stroke-linecap="round" stroke-linejoin="round" stroke-miterlimit="10"><path d="M9.6 32c0 4.3 11 8.6 20.3 8.4 7.4-.2 17.3-4.8 17.5-8.8.2-4.1-9.5-7.2-17.9-7.7-9.3-.5-19.9 3.9-19.9 8.1zM45.2 41.4c.8-1.1 4.3-5.8 8.7-6.4.9-.1 2.6-.3 3.6.7.8.7.9 1.8.9 2.2 0 0 .2 1.4-.6 2.9C56 44.4 49.3 45 43 48.1"/><path d="M47.1 32.8c-1 5.3-2.9 11.7-3.9 14.5-1.3 3.4-2.9 6.8-5.9 8.9-2.7 2-6 2.7-9.3 2.5-1.5-.1-6.9-.3-10.4-3.9-1.8-1.8-2-3.4-3.8-9.1-.9-2.9-2.2-7.4-4-13"/><path d="M10.9 34.4c3.1-2.3 9.2-6 17.1-6.3 3.2-.1 5.6.4 6.3.6 5.6 1.3 9.4 4.3 11.3 6.1M26.3 19.6s3.2-2.2-1.1-7.5-.7-8.1-.7-8.1M32.8 19.6s3.2-2.6-1.1-8.9c-4.3-6.2-.6-9.5-.6-9.5"/></g></g></svg>