<!--Generator: Adobe Illustrator 16.0.3, SVG Export Plug-In . SVG Version: 6.00 Build 0)--><svg xmlns="http://www.w3.org/2000/svg" width="64" height="64"><path fill="none" stroke="#000" stroke-linecap="round" stroke-linejoin="round" stroke-miterlimit="10" d="M30.9 8.4c2.6.8 3.4 10.8-.4 13-1 .6-2.8.8-4.5.2-.2-.1-1.8-.7-2.5-1.9-1.9-3.5 4.7-12.2 7.4-11.3z"/><path fill="none" stroke="#000" stroke-linecap="round" stroke-linejoin="round" stroke-miterlimit="10" d="M24.3 41.5c.3-.4 2.4-2.4 5.4-2.2 2.4.1 4.4 1.5 5.4 3 1.4 1.9.7 3 1.9 7.7.7 2.8 1.1 4.2 2.2 5.1 2.7 2.3 8.2 1.3 8.7-.5.4-1.6-4.6-2.1-6.7-6.4-1.9-3.7.6-5.6.3-13.5-.2-6.4-2-8-.4-10.2 2-2.7 5.5-1.2 9.1-4.7.2-.2 3.6-3.6 2.6-6-.8-2.1-4-.7-10.2-3.2C38.8 9 37.1 7.3 34 7.7c-1.5.2-2.3.1-3.1.6"/><path fill="none" stroke="#000" stroke-linecap="round" stroke-linejoin="round" stroke-miterlimit="10" d="M39.3 55c-8.5.2-17 .3-25.5.5-1.1-.9-4.1-3.8-5.4-8.6-1.3-4.8.1-8.7.6-10 1.1-2.9 3.8-7.9 6.8-7.7.2 0 1.1.1 1.6.7.9 1.3-1.4 3.7-2.7 6.3-2.9 5.7-1.5 12.1-.9 12.2.5.1 0-5.4 3.6-10.4 2.9-4 5.8-4 8.6-8.3 1.8-2.7 2.5-5.5 2.8-7.3"/><circle cx="40.2" cy="14.3" r="1.5"/><circle cx="53.7" cy="12.8" r="2.5"/></svg>