<!--Generator: Adobe Illustrator 16.0.3, SVG Export Plug-In . SVG Version: 6.00 Build 0)--><svg xmlns="http://www.w3.org/2000/svg" width="64" height="64"><g><g fill="none" stroke="#000" stroke-linejoin="round" stroke-miterlimit="10"><path stroke-linecap="round" d="M31.9 11.9v39.5c-2.4-.8-6.9-2-12.5-1.3-6.2.8-10.6 3.5-12.7 4.9V11.6c2.8-1.1 7.6-2.5 13.8-2.3 4.9.3 8.8 1.6 11.4 2.6z"/><path stroke-linecap="round" d="M11.4 21.4c2.2-.5 5-.9 8.3-.9 2.2 0 5.1.2 8.3.9M11.4 27.2c2.2-.5 5-.9 8.3-.9 2.2 0 5.1.2 8.3.9M11.4 32.9c2.2-.5 5-.9 8.3-.9 2.2 0 5.1.2 8.3.9M11.4 38.7c2.2-.5 5-.9 8.3-.9 2.2 0 5.1.2 8.3.9M37 21.4c2.2-.5 5-.9 8.3-.9 2.2 0 5.1.2 8.3.9M37 27.2c2.2-.5 5-.9 8.3-.9 2.2 0 5.1.2 8.3.9M37 32.9c2.2-.5 5-.9 8.3-.9 2.2 0 5.1.2 8.3.9M37 38.7c2.2-.5 5-.9 8.3-.9 2.2 0 5.1.2 8.3.9"/><path d="M31.9 51.4c2.4-.8 7.1-2.4 12.8-1.7 6.2.8 10.6 3.5 12.7 4.9V11.2c-2.8-1.1-7.6-2.5-13.8-2.3-4.9.2-9 2.1-11.5 3.1"/></g></g></svg>