<!--Generator: Adobe Illustrator 16.0.3, SVG Export Plug-In . SVG Version: 6.00 Build 0)--><svg xmlns="http://www.w3.org/2000/svg" width="64" height="64"><g><g fill="none" stroke="#000" stroke-linejoin="round" stroke-miterlimit="10"><path stroke-linecap="round" d="M4.5 54.8V17.4M59.5 54.8v-9.9h-55M8.5 35.4c0-3.5 2.9-6.4 6.4-6.4 3.5 0 6.4 2.9 6.4 6.4 0 3-2.3 5-2.5 5.1-.5.4-1.9 1.4-3.9 1.3-2.9-.1-6.4-2.5-6.4-6.4z"/><path d="M17.2 41.4l34.1.7c2.2.1 2.9-3 .8-3.8-2.2-.9-4.6-1.7-7.1-2.5-9.2-2.9-17.9-3.1-24.6-3.6"/><path stroke-linecap="round" d="M21.3 18.5l6.9-.9-5.9 5.8 7.5-1.1M32.2 10.5l9.1-1.3-7.8 7.7 9.9-1.4"/></g></g></svg>