<!--Generator: Adobe Illustrator 16.0.3, SVG Export Plug-In . SVG Version: 6.00 Build 0)--><svg xmlns="http://www.w3.org/2000/svg" width="64" height="64"><g><g fill="none" stroke="#000" stroke-linecap="round" stroke-linejoin="round" stroke-miterlimit="10"><path d="M45.6 35.7l14.3 3.7c.2 0 .2.3.1.4l-9.4 6.3c-.1.1-.3 0-.3-.1l-5-9.8c-.2-.2 0-.5.3-.5zM18.1 27.5L4.1 23c-.2-.1-.2-.3 0-.4l9.7-5.8c.1-.1.3 0 .3.1L18.5 27c.2.3-.1.6-.4.5z"/><path d="M31.5 53.7C19.6 53.7 9.9 44 9.9 32c0-2.4.4-4.7 1.1-6.8M25 11.3c2.1-.6 4.3-1 6.5-1 12 0 21.7 9.7 21.7 21.7 0 1.8-.2 3.6-.7 5.3"/></g></g></svg>