<!--Generator: Adobe Illustrator 16.0.3, SVG Export Plug-In . SVG Version: 6.00 Build 0)--><svg xmlns="http://www.w3.org/2000/svg" width="64" height="64"><g><path fill="none" stroke="#000" stroke-linecap="round" stroke-linejoin="round" stroke-miterlimit="10" d="M42.5 27.3v19.3c0 1.4-.3 2.7-1 3.9-1.4 2.5-4.4 6.2-9.5 6.2-5.9 0-8.8-4.8-9.9-7.1-.3-.7-.5-1.4-.5-2.2V13.8c0-.8.2-1.7.6-2.4.9-1.6 3.1-4 8-4 5.3 0 7.2 2.8 7.8 4.4.2.6.3 1.2.3 1.8V44c0 .8-.2 1.6-.6 2.3-.7 1.2-2.2 2.8-5.2 2.8-2.8 0-4.3-1.3-5-2.4-.5-.8-.7-1.7-.7-2.6V27.3"/></g></svg>