<!--Generator: Adobe Illustrator 16.0.3, SVG Export Plug-In . SVG Version: 6.00 Build 0)--><svg xmlns="http://www.w3.org/2000/svg" width="64" height="64"><path fill="none" stroke="#000" stroke-linecap="round" stroke-linejoin="round" stroke-miterlimit="10" d="M12.5 20.5c.2-.6 0-1.1-.4-1.5l-3.9-5.3v-.5h14.3l11 23.1 10.1-23.1h13.8v.8l-3.9 3.6c-.3.2-.5.6-.4 1v26.7c-.1.4.1.8.4 1l3.9 3.6v.8H39.9v-1.4l3.5-3.7c.4-.4.4-.5.8-1.1V23.3l-11 27.5h-3.9L16.8 24v18c-.1.8.2 1.5.7 2.1l5.1 6v.8H6.7V50l5.1-6c.5-.5.8-1.3.7-2.1V20.5z"/></svg>