<!--Generator: Adobe Illustrator 16.0.3, SVG Export Plug-In . SVG Version: 6.00 Build 0)--><svg xmlns="http://www.w3.org/2000/svg" width="64" height="64"><g><g stroke="#000" stroke-miterlimit="10"><g stroke-linecap="round" stroke-linejoin="round"><path fill="none" d="M14.3 19.7L24.9 7.8h24.8v48.4H14.3V19.9"/><path d="M22.5 16.7v6.9M30 13.9v6.9M36.9 13.9v6.9M43.9 13.9v6.9"/></g><path fill="none" stroke-linecap="round" stroke-linejoin="round" d="M29.5 32.8c-2.5-1-5-.4-6 1.1-.6.9-.7 2.2-.2 3.3 1.2 2.4 4.7 1.3 6.1 3.7.7 1.2.6 2.9-.2 4-1.2 1.6-4 2.1-6.7.6"/><path fill="none" d="M33.8 32.9V46c4 .9 7.2-.3 8.8-2.8.4-.7 1.1-2.2 1.1-4 0-1.4-.5-2.7-.9-3.4-1.4-2.5-4.7-3.8-9-2.9z"/></g></g></svg>