<!--Generator: Adobe Illustrator 16.0.3, SVG Export Plug-In . SVG Version: 6.00 Build 0)--><svg xmlns="http://www.w3.org/2000/svg" width="64" height="64"><path fill="none" stroke="#000" stroke-linecap="round" stroke-linejoin="round" stroke-miterlimit="10" d="M52.8 24.7c-1.7-9.1-9-17.4-22.3-17.4 0 0-1.8.2-2.3.3-9.7 1.8-16.6 9.7-17.3 19.3C10 39 19.4 49.5 31.7 49.6c.2 0 .3.1.3.3v6.7c5.7-2.3 12.7-8 16.2-13.1 4.5-6.3 5.6-13.4 4.6-18.8zm-22.7 7c0 2.9-2 5.7-5.7 6.2-.3 0-.5-.1-.6-.4v-2.4c0-.4-.1-.8.4-.9 1.6-.4 2.2-.9 2.6-2.6-.3 0-5.2 0-5.5-.1-.4-.1-.8-.5-.8-1v-7.6c-.1-.9.4-1.3 1-1.3h7.4c.7 0 1.2.7 1 1.3.2.3.2 8.6.2 8.8zm13.1 0c0 2.3-1.2 4.4-4 5.8-.6.2-.7.2-1.6.4-.3.1-.6-.2-.6-.5v-2.5c0-.4.1-.5.6-.6 1.4-.3 2.2-1 2.5-2.6h-5.2c-.6 0-1.1-.4-1.1-1.1V23c-.1-.8.5-1.3 1-1.3h7.4c.7 0 1.2.7 1 1.3.1.2 0 8.5 0 8.7z"/></svg>