<!--Generator: Adobe Illustrator 16.0.3, SVG Export Plug-In . SVG Version: 6.00 Build 0)--><svg xmlns="http://www.w3.org/2000/svg" width="64" height="64"><g><path fill="none" stroke="#000" stroke-linecap="round" stroke-linejoin="round" stroke-miterlimit="10" d="M43.4 35.6c.3-.4.9-1 1.8-1.5.5-.3 1.3-.7 2.4-.7.3 0 2.4 0 3.5 1.8 0 .1.9 1.5.4 3.1-.4 1.2-1.4 1.8-2 2.3-.5.3-.9.6-.9.6-.2.1-.3.1-.6.3-.4.2-.6.4-.7.4-.5.3-.5 2.3-.4 3.1"/><circle fill="none" stroke="#000" stroke-linecap="round" stroke-linejoin="round" stroke-miterlimit="10" cx="47.2" cy="41.9" r="14"/><path fill="none" stroke="#000" stroke-linecap="round" stroke-linejoin="round" stroke-miterlimit="10" d="M36.7 51.2H3.2c-.2 0-.3-.2-.3-.3V16.6c0-.2.2-.3.3-.3h47.1c.2 0 .4.2.4.4V28M46.8 16.1l-.1-3v-1.5H28h0l-3.9-3.3-.4-.2H5.4c-.3.2-.2.2-.2.2v8"/><circle cx="46.9" cy="48.3" r="1.2"/></g></svg>