<!--Generator: Adobe Illustrator 16.0.3, SVG Export Plug-In . SVG Version: 6.00 Build 0)--><svg xmlns="http://www.w3.org/2000/svg" width="64" height="64"><g><path fill="none" stroke="#000" stroke-linecap="round" stroke-linejoin="round" stroke-miterlimit="10" d="M15.1 52.8h15.5c.4 0 .6.4.4.7-1 1-3.5 2.8-8.1 2.7-4.5-.1-7-1.7-8.1-2.7-.3-.3-.1-.7.3-.7zM44.7 49.7c1.5 1.2 3.7 1 5-.5 1.2-1.5 1-3.7-.5-5 0 0-2.7-2.2-5 .5-1.3 1.5-1.1 3.7.5 5z"/><path fill="none" stroke="#000" stroke-linecap="round" stroke-linejoin="round" stroke-miterlimit="10" d="M49 54.1c1.1-.2 2.9 1.6 3.8.8.3-.2.5-.5.8-.7.7-.7-.7-2.5-.3-3.7 0-.1.1-.3.1-.3.7-.9 2.9-1 3-2.2v-1.1c0-.9-1.9-1-2.6-1.9-.1-.1-.1-.5-.1-.5v-.4c-.1-1.1 1.6-2.5.8-3.4-.2-.3-.5-.5-.7-.8-.7-.7-2.5.7-3.7.3-.1 0-.3-.1-.3-.1-.9-.7-1-2.9-2.1-3h-1.1c-1 0-1.1 2.2-2.2 2.7h-.3c-1.1.2-2.7-1.4-3.6-.7-.3.2-.5.5-.8.8-.7.8.9 2.3.4 3.5l-.2.4c-.7.9-2.8.6-2.9 1.7-.1.4-.1.7-.1 1.1 0 1 2.2 1.4 2.7 2.5 0 .1.1.2.1.2.1 1.1-1.4 2.7-.7 3.6.2.2.4.4.5.6.1.2.3.3.5.3s.4 0 .5-.1c.4-.1.8-.4 1.2-.5.4-.1.8-.1 1.2.1.4.2.8.5 1 .8.3.4.3 1 .5 1.4.2.4.4 1 1 1h1.1c1 0 1.1-2.2 2.3-2.7l.2.3zM17.3 43.8c-1.6.1-2 .2-2.5-.2-1.3-1-.3-3-1.1-6.7-.5-2-1.3-3.6-2-4.8-1.3-2.2-1.9-2.5-2.7-4.1-1.6-3-1.3-6.1-1.2-7.4.2-1.6.8-5.9 4.5-9.5 4.2-4 9.3-4.1 10.5-4.1.9 0 6.6.2 10.9 4.9 1 1.1 3.5 4.2 3.8 8.7.2 4.1-1.5 7.5-2.4 9.1-.8 1.5-1.3 2.1-2.7 4.7-1.3 2.5-1.6 3.7-1.7 5.1-.1 2.2.6 3.4-.2 4.2-.5.5-1.3.3-2.5.2-4-.4-8.5-.2-10.7-.1zM29.9 47.2h-14M30.6 50H15.2"/></g></svg>