<!--Generator: Adobe Illustrator 16.0.3, SVG Export Plug-In . SVG Version: 6.00 Build 0)--><svg xmlns="http://www.w3.org/2000/svg" width="64" height="64"><g fill="none" stroke="#000" stroke-linecap="round" stroke-linejoin="round" stroke-miterlimit="10"><path d="M41.3 56.8H54c1.5 0 2.7-1.2 2.7-2.7v0V10c0-1.5-1.2-2.7-2.7-2.7H10c-1.5 0-2.7 1.2-2.7 2.7v44c0 1.5 1.2 2.7 2.7 2.7H41.3z"/><path d="M30.1 46.7c-2 0-3.4-2.8-4.3-5.2L23 30.9c-1.2-4.5-2.5-6.5-4.2-6.5-.4 0-.8.1-2.5 1.4l-.6-.8 4.5-4.2c2.8-2.5 4.1-2.9 4.6-3h.4c.7 0 2.8 0 3.6 5 .7 4.5 1.1 7.2 1.4 8.3.9 4.3 1.9 6.2 3.4 6.2 1.1 0 2.3-1.2 4-4 1.5-2.5 2.3-4.4 2.4-5.8.1-1.3-.1-2.4-.8-3.1-.6-.6-1.4-.9-2.5-.9-.4 0-.8 0-1.2.1 1.6-4.2 4.2-6.2 7.9-6.2h.4c1.3 0 2.3.4 2.9 1.1.9 1 1.3 2.7 1.2 5.1-.1 3.3-2.5 8-6.9 13.9-4.2 6.1-7.9 9.2-10.9 9.2z"/></g></svg>