<!--Generator: Adobe Illustrator 16.0.3, SVG Export Plug-In . SVG Version: 6.00 Build 0)--><svg xmlns="http://www.w3.org/2000/svg" width="64" height="64"><g><g fill="none" stroke="#000" stroke-linecap="round" stroke-linejoin="round" stroke-miterlimit="10"><path d="M27.7 57.5c.3-4.2 1.3-11.2 5.2-18.8 3.8-7.5 8.7-12.4 11.9-15.1"/><path d="M37.6 31.3c-1.6-1.5-3.1-4-3-7 0-.4.1-1.4.5-2.6.6-1.8 1.9-3.6 7.1-7.1 4-2.7 5.5-3.1 10.1-6.3 1.1-.8 2-1.4 2.6-1.9.1.7.2 1.7.2 3 .3 3.7.4 6.6.4 7.3 0 2.2.2 12.1-5.9 15.7-3.4 2-8.8 1.9-12-1.1zM19.6 31c.9.3 7.4 3 9.1 9.6.6 2.3.5 7.8.2 9.2"/><path d="M27.1 38.1c-1.9 1.5-3.5 1.7-4.4 1.8-4.5.1-8.7-4.6-10.2-8.4-.6-1.4-.8-2.8-2.1-4.9-1.1-1.7-2.2-2.6-2-3 .3-.4 1.5.3 3.5.8 2.2.6 3.6.4 5 .5.6 0 8.7.7 11.2 5.6.4.8 1.3 3 .1 6.7"/></g></g></svg>