<!--Generator: Adobe Illustrator 16.0.3, SVG Export Plug-In . SVG Version: 6.00 Build 0)--><svg xmlns="http://www.w3.org/2000/svg" width="64" height="64"><g><g fill="none" stroke="#000" stroke-linecap="round" stroke-linejoin="round" stroke-miterlimit="10"><path d="M22.1 30c.3-1.6.1-4 .3-5.6.5-3.2 1.1-5.3 2.5-8 1.1-2 2.2-4.1 3.6-5.9 1.1-1.4 2.9-3.9 4.9-3.1.7.3 1.3.9 1.9 1.5 2.5 2.9 4.5 6.2 5.8 9.8 1.1 3 1.7 6.2 1.2 9.4-.1.5-.2 1-.1 1.6.1 1 1 1.3 1.7 1.8.9.6 1.6 1.3 2 2.4.4 1 .6 2.1.8 3.2.4 2.6 1.7 11.6-3.5 9.8-1.4-.5-2.7-1.2-3.9-2.1-.4-.3-.8-.7-1.3-.9-1.1-.5-1.8.2-2.6.9-.9.8-2 1.5-3.2 1.6-1 .1-2-.2-2.8-.8-.8-.6-1.1-1.9-2.1-2.2-.5-.1-1 .1-1.4.4-1.7 1.1-3.3 2.2-5.4 2.6-.6.1-1.3.1-1.9-.1-1.6-.6-1.6-2.6-1.6-4 0-1.3.1-2.6.4-3.9.3-2.1 1-4.2 2.5-5.7.6-1 1.9-1.6 2.2-2.7z"/><circle cx="32.7" cy="22.1" r="4.3"/><path d="M27.4 43.8l-3.9 8.8 5.5-2.3 3 6.5 2.9-6.4 5.6 2.2-3.5-9"/></g></g></svg>