<!--Generator: Adobe Illustrator 16.0.3, SVG Export Plug-In . SVG Version: 6.00 Build 0)--><svg xmlns="http://www.w3.org/2000/svg" width="64" height="64"><g><g fill="none" stroke="#000" stroke-linecap="round" stroke-linejoin="round" stroke-miterlimit="10"><path d="M43.3 16.7c-1.9-1.3-6.8-4.3-13-3.6-2.1.2-5.5.6-7.9 3.4-2.7 3.1-3.3 8.2-.5 11.4 2 2.4 5.3 2.8 8.1 3.5l3.3.9c5.8 1.4 7 1.8 8.5 2.8 1.9 1.3 3.3 3.1 3.6 5.5.3 2.1-.3 4.3-1.6 6.1-3.3 4.5-9.6 4.8-14.6 3.9-3.2-.5-6.2-1.8-8.9-3.6-.6-.4-1.2-.9-1.7-1.3M32.7 7.4v49.2"/></g></g></svg>