<!--Generator: Adobe Illustrator 16.0.3, SVG Export Plug-In . SVG Version: 6.00 Build 0)--><svg xmlns="http://www.w3.org/2000/svg" width="64" height="64"><g fill="none" stroke="#000" stroke-linecap="round" stroke-linejoin="round" stroke-miterlimit="10"><path d="M32 7.9c-6.5 0-7.4 0-9.9.1-2.6.1-4.3.5-5.8 1.1-1.6.6-2.9 1.4-4.3 2.8-1.3 1.3-2.2 2.7-2.8 4.3-.6 1.5-1 3.3-1.1 5.8-.1 2.6-.2 3.5-.2 10s0 7.4.1 9.9c.1 2.6.5 4.3 1.1 5.8.6 1.6 1.4 2.9 2.8 4.3 1.3 1.3 2.7 2.2 4.3 2.8 1.5.6 3.3 1 5.8 1.1 2.6.1 3.4.1 9.9.1s7.4 0 9.9-.1c2.6-.1 4.3-.5 5.8-1.1 1.6-.6 2.9-1.4 4.3-2.8 1.3-1.3 2.2-2.7 2.8-4.3.6-1.5 1-3.3 1.1-5.8.1-2.6.1-3.4.1-9.9s0-7.4-.1-9.9c-.1-2.6-.5-4.3-1.1-5.8-.6-1.6-1.4-2.9-2.8-4.3-1.3-1.3-2.7-2.2-4.3-2.8-1.5-.6-3.3-1-5.8-1.1-2.4-.1-3.3-.2-9.8-.2h0z"/><path d="M32 21.5c-5.8 0-10.5 4.7-10.5 10.5S26.2 42.5 32 42.5 42.5 37.8 42.5 32 37.8 21.5 32 21.5z"/><circle cx="44.8" cy="19.2" r="2.9"/></g></svg>