<!--Generator: Adobe Illustrator 16.0.3, SVG Export Plug-In . SVG Version: 6.00 Build 0)--><svg xmlns="http://www.w3.org/2000/svg" width="64" height="64"><g fill="none" stroke="#000" stroke-linecap="round" stroke-linejoin="round" stroke-miterlimit="10"><path d="M29.4 4.2h2.7c5 0 9 4.1 9 9v6c0 5-4 9-9 9h-2.7c-5 0-9-4-9-9v-6c0-4.9 4-9 9-9zM10.2 49c-1.3-4.3 1.8-9.1 3.3-11.4 3-4.6 7-6.8 9-7.8 2.7 2 5.4 4 8.2 6 2.8-2 5.7-4.1 8.5-6.1 1.8.7 6.9 2.9 10.2 8.4C50.6 40 53.6 45 52 49.5c-2.9 7.9-18.1 7.9-20.7 7.9-1.7-.1-18.5-.2-21.1-8.4z"/></g></svg>