<!--Generator: Adobe Illustrator 16.0.3, SVG Export Plug-In . SVG Version: 6.00 Build 0)--><svg xmlns="http://www.w3.org/2000/svg" width="64" height="64"><g fill="none" stroke="#000" stroke-linecap="round" stroke-linejoin="round" stroke-miterlimit="10"><path d="M7.8 32.1c0 9.6 5.6 17.9 13.7 21.8L9.9 22.2c-1.4 3-2.1 6.3-2.1 9.9h0zM48.4 30.8c0-3-1.1-5.1-2-6.7-1.2-2-2.4-3.7-2.4-5.7 0-2.2 1.7-4.3 4.1-4.3h.3c-4.3-4-10.1-6.4-16.4-6.4-8.5 0-15.9 4.3-20.3 10.9 1.5 0 3.6.1 8-.3 1.3-.1 1.5 1.8.2 2 0 0-1.3.2-2.8.2L26 47l5.3-16-3.8-10.3c-1.3-.1-2.5-.2-2.5-.2-1.3-.1-1.2-2.1.2-2 5 .4 7.6.4 12.8 0 1.3-.1 1.5 1.8.2 2 0 0-1.3.2-2.8.2l8.8 26.1c3.4-11.6 4.2-13.5 4.2-16h0z"/><path d="M33.8 36.2l-6 19.2c5 1.2 7.3 1.1 12.2-.4-.1-.1-.1-.2-.2-.3l-6-18.5h0zM53.3 20.4c.1.8.2 1.6.2 2.5 0 4.3-.4 4.5-9.3 30.1 7.2-4.2 12.1-12 12.1-21-.1-4.2-1.1-8.1-3-11.6h0z"/></g></svg>