<!--Generator: Adobe Illustrator 16.0.3, SVG Export Plug-In . SVG Version: 6.00 Build 0)--><svg xmlns="http://www.w3.org/2000/svg" width="64" height="64"><g><g fill="none" stroke="#000" stroke-linejoin="round" stroke-miterlimit="10"><path d="M15.8 21.8c2.8-.6 6-1.5 9.4-2.9 5-2 9.1-4.5 12.1-6.6 1.6-.8 3.4.5 3.4 2.4v24.8c0 1.9-1.8 3.1-3.4 2.4-4-2.3-8.2-4.5-12.4-6.8-2.3-1.3-4.3-1.8-6.6-3"/><path d="M18.4 32c.1.5 0 .3.2 1l3.2 15.7c.3 1.4-.7 2.9-2.1 3.2l-.3.1c-1.4.3-2.9-.7-3.2-2.1l-3.4-16.7c0-.2 0-.2-.1-.4l1.4-.1c2.7-.3 2.9-.3 4.3-.7"/><path d="M12.6 32.7l-5.5-.2c-2 0-3.6-1.6-3.6-3.5v-4.1c0-1.9 1.6-3.5 2.7-3.5h6.9c1.4 0 2.4.2 3.1.8l2.1 10"/><path stroke-linecap="round" d="M47.7 30.3c1.9-2.5 1.7-4.7-.4-7.7M50.6 34.7c4.9-5.2 4.9-10.2 1-17.5M54.9 39.7c7.1-7.6 7.2-14.9 1.5-25.5"/></g></g></svg>