<!--Generator: Adobe Illustrator 16.0.3, SVG Export Plug-In . SVG Version: 6.00 Build 0)--><svg xmlns="http://www.w3.org/2000/svg" width="64" height="64"><g fill="none" stroke="#000" stroke-linecap="round" stroke-linejoin="round" stroke-miterlimit="10"><path d="M36.28 34.12l-6.448 2.16-2.095-6.26 6.448-2.158z" stroke-width="1.00004"/><path d="M36.28 34.12l-6.448 2.16-2.095-6.26 6.448-2.158z" stroke-width="1.00004"/><path d="M54.2 25.3C49.2 8.7 42 4.8 25.3 9.8 8.7 14.8 4.8 22 9.8 38.7c5 16.6 12.2 20.5 28.8 15.5 16.7-5 20.6-12.2 15.6-28.9zm-8.4 10.8l-3.1 1 1.1 3.2c.4 1.3-.3 2.7-1.6 3.2-.3.1-.6.2-.9.1-1 0-2-.7-2.3-1.7l-1.1-3.3-6.5 2.2 1.1 3.3c.4 1.3-.3 2.7-1.6 3.2-.3.1-.6.2-.9.1-1 0-2-.7-2.3-1.7l-1.1-3.3-3.1 1c-.3.1-.6.2-.9.1-1 0-2-.7-2.3-1.7-.4-1.3.3-2.7 1.6-3.2l3.1-1-2-6.1-3.1 1c-.3.1-.6.2-.9.1-1 0-2-.7-2.3-1.7-.4-1.3.3-2.7 1.6-3.2l3.1-1-1.1-3.3c-.4-1.3.3-2.7 1.6-3.2 1.3-.4 2.7.3 3.2 1.6l1.1 3.2 6.5-2.2-1.1-3.2c-.4-1.3.3-2.7 1.6-3.2 1.3-.4 2.7.3 3.2 1.6l1.1 3.3 3.1-1c1.3-.4 2.7.3 3.2 1.6.4 1.3-.3 2.7-1.6 3.2l-3.1 1 2.1 6.2 3.1-1c1.3-.4 2.7.3 3.2 1.6.3 1.4-.4 2.8-1.7 3.2z"/></g></svg>