<!--Generator: Adobe Illustrator 16.0.3, SVG Export Plug-In . SVG Version: 6.00 Build 0)--><svg xmlns="http://www.w3.org/2000/svg" width="64" height="64"><path fill="none" stroke="#000" stroke-linejoin="round" stroke-miterlimit="10" d="M12.1 41.5c.3 1.6 1.9 7.8 6.9 11.3 3.9 2.7 8 2.7 11.5 2.7 3.2 0 7.2 0 11-2.4 6.6-4.2 7.8-13.3 7.9-14.7M30.8 55.5v-7.1"/><path fill="none" stroke="#000" stroke-linejoin="round" stroke-miterlimit="10" d="M30.9 41.9c.1-.2.3-.7.9-1 .2-.1.7-.4 1.5-.4.9.1 1.4.6 1.6.7.8.8.7 2 .7 2.2 0 .3-.2 1-1.9 2.8-1.4 1.5-2.8 2.2-2.8 2.2s-1.4-.9-2.9-2.3c-1.2-1.2-1.7-1.9-1.8-2.7-.1-1.1.6-2.7 2-2.9.9-.1 2 .4 2.7 1.4z"/><path fill="none" stroke="#000" stroke-linejoin="round" stroke-miterlimit="10" d="M20.7 10.6c.5 2.9-1.2 12.6-2.2 16.4-1.1 4.2-5 15.7-8.4 15.4C7 42.1 3.5 32.2 6.4 24c3.1-8.8 13.4-13.1 14.9-13.6l.2-.1c1.6-.7 1.9-.8 3-1 3.4-.8 5.3-.8 6.1-.9H32c3.6.1 6.5.4 10.7 1.9 3.1 1.1 9.2 3.3 12.7 8.6 6 9 2.2 23.2-1.5 23.8-3.3.5-7.6-10-9.1-14.8-2.1-6.6-2.3-13.7-2.1-17.6"/><circle cx="26.1" cy="29.3" r="2.6"/><circle cx="37.5" cy="29.3" r="2.6"/></svg>