<!--Generator: Adobe Illustrator 16.0.3, SVG Export Plug-In . SVG Version: 6.00 Build 0)--><svg xmlns="http://www.w3.org/2000/svg" width="64" height="64"><path fill-rule="evenodd" clip-rule="evenodd" d="M29.1 7.1C17 8.4 7.4 18.4 6.4 30.5 5.4 42.7 13 53.4 23.9 57c1.3.2 1.8-.6 1.8-1.2v-4.4C18.5 53 16.9 48 16.9 48c-1.2-3-2.9-3.8-2.9-3.8-2.3-1.6.2-1.6.2-1.6 2.6.2 3.9 2.6 3.9 2.6 2.3 3.9 6 2.8 7.5 2.1.2-1.7.9-2.8 1.6-3.4-5.7-.6-11.7-2.9-11.7-12.7 0-2.8 1-5.1 2.6-6.9-.3-.6-1.1-3.3.3-6.8 0 0 2.2-.7 7.1 2.6 2-.6 4.2-.9 6.4-.9s4.4.3 6.4.9c4.9-3.3 7.1-2.6 7.1-2.6 1.4 3.5.5 6.1.3 6.8 1.6 1.8 2.6 4.1 2.6 6.9 0 9.9-6 12-11.7 12.7.9.8 1.7 2.4 1.7 4.8v7c0 .7.5 1.5 1.8 1.2 10.2-3.4 17.6-13 17.6-24.4 0-15-13.1-27.1-28.6-25.4z"/></svg>