<!--Generator: Adobe Illustrator 16.0.3, SVG Export Plug-In . SVG Version: 6.00 Build 0)--><svg xmlns="http://www.w3.org/2000/svg" width="64" height="64"><g><g fill="none" stroke="#000" stroke-linecap="round" stroke-linejoin="round" stroke-miterlimit="10"><path d="M16.9 30.4V4.9h26.7l11.5 11.6v42.6H16.9v-8"/><path d="M55.1 17.7H42.4V4.9M8.9 30.4h36.6v20.7H8.9z"/></g><path fill="none" stroke="#000" stroke-linecap="round" stroke-linejoin="round" stroke-miterlimit="10" d="M16.1 41.6c1.8.8 4 .2 4.8-1.1.5-.8.6-1.8.3-2.7-.6-1.5-2.9-2.4-5.1-1.8v10M23.9 46l-.1-10.1 6.6 10-.1-10M39.6 36.5c-2.7-1.2-5.7.2-6.6 2.8-.9 2.7 1 5.4 3.3 6.2 1.6.5 3-.1 3.5-.3V41M38.2 40.9h1.6"/></g></svg>