<!--Generator: Adobe Illustrator 16.0.3, SVG Export Plug-In . SVG Version: 6.00 Build 0)--><svg xmlns="http://www.w3.org/2000/svg" width="64" height="64"><g fill="none" stroke="#000" stroke-linecap="round" stroke-linejoin="round" stroke-miterlimit="10"><path d="M41.3 56.8H54c1.5 0 2.7-1.2 2.7-2.7v0V10c0-1.5-1.2-2.7-2.7-2.7H10c-1.5 0-2.7 1.2-2.7 2.7v44c0 1.5 1.2 2.7 2.7 2.7H41.3z"/><ellipse cx="18.8" cy="31" rx="4.6" ry="4.6"/><path d="M18.8 36.5c-3.1 0-5.4 2.6-5.4 5.2v1.8h0c0 .3.2.5.5.5H23.7c.3 0 .5-.2.5-.5h0v-1.8c0-2.6-2.3-5.2-5.4-5.2z"/><ellipse cx="30.8" cy="29.5" rx="5.1" ry="5.1"/><path d="M31.2 35.7c-3.1 0-5.4 2.9-5.4 5.8v2h0c0 .3.2.5.5.5H36.2c.3 0 .5-.2.5-.5h0v-2c0-2.9-2.3-5.8-5.5-5.8z"/><g><ellipse cx="44" cy="27.9" rx="5.7" ry="5.7"/><path d="M44.4 34.8c-3.6 0-6.2 3.2-6.2 6.5v2.2h0c0 .3.3.6.6.6H50.1c.3 0 .6-.3.6-.6h0v-2.2c0-3.3-2.7-6.5-6.3-6.5z"/></g></g></svg>