<!--Generator: Adobe Illustrator 16.0.3, SVG Export Plug-In . SVG Version: 6.00 Build 0)--><svg xmlns="http://www.w3.org/2000/svg" width="64" height="64"><g><path fill="none" stroke="#000" stroke-linecap="round" stroke-linejoin="round" stroke-miterlimit="10" d="M49.9 52.3C35.7 60 20 57.8 12.7 48.8 6.7 41.5 8 32 8.4 29.5c1.7-9.8 9.5-21 22-22.3 9.6-1 21 3.6 24.4 12.8 2.1 5.5 1.4 13-3 17.5-.6.6-4.7 4.9-9.1 3.6-3.7-1.1-5.1-5.4-5.2-5.9-.9-3.1-.1-6.1.5-8.1 1-3.5 2.2-4.3 1.6-5.3-1-1.9-6.1-2.1-9.8 0-3.1 1.8-4.3 4.7-5 6.1-1.8 4.2-2.3 10.7.7 12.7.9.6 1.9.6 2.4.6 3.3.1 7.2-3.8 9.1-8.2"/></g></svg>