<!--Generator: Adobe Illustrator 16.0.3, SVG Export Plug-In . SVG Version: 6.00 Build 0)--><svg xmlns="http://www.w3.org/2000/svg" width="64" height="64"><g><g fill="none" stroke="#000" stroke-linecap="round" stroke-linejoin="round" stroke-miterlimit="10"><path d="M31.5 47.9H50c.2 0 .4-.2.4-.4V44c0-.1 0-.2-.1-.3-.6-.6-3.5-3.1-4.2-4.2-2.5-4 2.5-23.2-9.1-25.2-.2 0-.3-.2-.3-.4-1.4-6.3-3.2-5.6-5.1-5.6-1.9.1-3.8-.6-5.1 5.6 0 .2-.1.4-.3.4-11.6 2-6.6 21.2-9.1 25.2-.7 1.1-3.6 3.7-4.2 4.2-.1.1-.1.2-.1.3v3.5c0 .2.2.4.4.4h18.3zM24.5 48.5s.3 7.2 6.3 7.2 6-7.2 6-7.2M14.9 17.7l-7-5M12.3 27l-9.1-1.4M12.6 35.7L4 38M14.9 17.7l-7-5M12.3 27l-9.1-1.4M12.6 35.7L4 38M49.1 18l7-5.1M51.7 27.3l9.1-1.5M51.4 35.9l8.6 2.4"/></g></g></svg>