<!--Generator: Adobe Illustrator 16.0.3, SVG Export Plug-In . SVG Version: 6.00 Build 0)--><svg xmlns="http://www.w3.org/2000/svg" width="64" height="64"><g fill="none" stroke="#000" stroke-linecap="round" stroke-linejoin="round" stroke-miterlimit="10"><path d="M10.6 21.5c.3-.7.7-1.4 1.1-2.1 4-6.2 9.5-10 16.8-11.2 7.5-1.2 14.1.7 19.9 5.5.2.2.2.3 0 .5l-6.6 6.6c-.2.2-.3.2-.6 0-2.3-1.8-4.8-2.8-7.7-3-6.6-.4-12.4 3.4-14.6 9.6 0 .1-.1.2-.1.3-.8-.6-1.6-1.3-2.5-1.9-1.9-1.4-3.8-2.9-5.7-4.3zM48.5 50.1c-1.3 1.3-2.7 2.3-4.3 3.1-3.3 1.8-6.8 2.8-10.5 3h-2.2c-5.4-.3-10.3-2.1-14.5-5.5-2.7-2.2-5.1-4.8-6.6-7.9-.2-.3-.1-.1-.1-.1M18.6 36.3c.5 1.4 1.3 2.7 2.2 3.8 2.7 3.6 6.3 5.7 10.8 6 3 .2 5.9-.3 8.6-1.8l.6-.3"/><path d="M48.5 50.1c-1.1-.8-2.2-1.7-3.3-2.5L41 44.3c-.1-.1-.2-.1-.2-.2.6-.5 1.3-.9 1.8-1.5 1.5-1.5 2.5-3.3 3-5.4.1-.3 0-.4-.3-.4H33c-.4 0-.4-.1-.4-.4v-8.7c0-.3.1-.4.4-.4h22.1c.3 0 .4.1.4.4.5 2.1.6 4.2.4 6.4-.2 2.1-.5 4.2-1.2 6.2-1.2 3.7-3.1 6.9-5.9 9.6-.1 0-.2.1-.3.2zM18.8 36.9c-2.7 2.1-5.5 4.2-8.2 6.3-.6-1.2-1.1-2.4-1.4-3.7-.9-2.8-1.2-5.6-1-8.5.2-3.3 1-6.4 2.4-9.4 0-.1.1-.1.1-.2 1.9 1.5 3.8 2.9 5.7 4.4.8.6 1.6 1.3 2.5 1.9-.2.9-.5 1.8-.6 2.8-.3 2.1-.1 4.1.5 6.1v.3z"/></g></svg>