<!--Generator: Adobe Illustrator 16.0.3, SVG Export Plug-In . SVG Version: 6.00 Build 0)--><svg xmlns="http://www.w3.org/2000/svg" width="64" height="64"><g><g fill="none" stroke="#000" stroke-linecap="round" stroke-linejoin="round" stroke-miterlimit="10"><path d="M12.7 27.7h28.8c1.5 0 2.7 1.2 2.7 2.7V53c0 1.1-.6 2-1.6 2.4-15-.1-15 0-30.8 0-1.1-.4-1.8-1.6-1.8-2.7V30.4c0-1.4 1.2-2.7 2.7-2.7zM44.2 49.7c6.9-.2 10.9-8.4 9.6-14.5-.6-2.7-3.1-3.6-5.5-2.7-1.5.5-2.5 1.1-4 2.6M17.8 24s1.9-1.6 0-4.5.4-5.2.4-5.2M34.7 24s1.9-1.6 0-4.5.4-5.2.4-5.2M26.2 24.1s3-2.6 0-7.2.7-8.3.7-8.3"/></g></g></svg>