<!--Generator: Adobe Illustrator 16.0.3, SVG Export Plug-In . SVG Version: 6.00 Build 0)--><svg xmlns="http://www.w3.org/2000/svg" width="64" height="64"><g><g fill="none" stroke="#000" stroke-linecap="round" stroke-linejoin="round" stroke-miterlimit="10"><path d="M36 26c-.8-.5-2.8-1.8-5.4-1.5-.9.1-2.3.3-3.3 1.4-1.1 1.3-1.4 3.4-.2 4.8.9 1 2.2 1.2 3.4 1.5.5.1.9.3 1.4.4 2.4.6 2.9.7 3.5 1.2.8.6 1.4 1.3 1.5 2.3.1.9-.1 1.8-.7 2.5-1.4 1.9-4 2-6.1 1.6-1.3-.2-2.6-.8-3.7-1.5-.3-.2-.5-.4-.7-.6M32 21.8v20.4"/><path d="M4.7 19h54.6v26H4.7zM47.5 19.4s3.1 4.9 11.9 6.4M15.3 19.3s-1.8 5.4-10.6 6.9M15.7 44.5s-2.3-5.7-11-7.2M46.8 44.2s3.7-6 12.5-7.4"/></g></g></svg>