<!--Generator: Adobe Illustrator 16.0.3, SVG Export Plug-In . SVG Version: 6.00 Build 0)--><svg xmlns="http://www.w3.org/2000/svg" width="64" height="64"><g><g fill="none" stroke="#000" stroke-linecap="round" stroke-linejoin="round" stroke-miterlimit="10"><path d="M26.1 45V28.5s10.1-1.6 9.2 4.9c-.9 6.5-8.6 4.3-8.6 4.3M44.6 34c-2.3-.9-5.3-.7-6.6 1.6-.3.5-.4 1-.2 1.5s.6.8 1.1 1.1c1.4.9 2.9 1.5 4.3 2.2 1.1.5 2 1.5 1.6 2.8-.2.6-.7 1.2-1.2 1.5-.8.5-1.7.6-2.6.7-1.1 0-2.3-.2-3.4-.4"/><path d="M17.5 11.8h34.2v44.5H17.5z"/><path d="M17.4 56.3l-5.1-6.6v-42h31.1M12.3 8l4.9 3.7"/></g></g></svg>