<!--Generator: Adobe Illustrator 16.0.3, SVG Export Plug-In . SVG Version: 6.00 Build 0)--><svg xmlns="http://www.w3.org/2000/svg" width="64" height="64"><g><g fill="none" stroke="#000" stroke-linecap="round" stroke-linejoin="round" stroke-miterlimit="10"><path d="M47.1 39.1l3.2 3.9M10.1 21.1c4.2-3.1 12.4-7.2 21.7-7.2 9 0 17.8 4 22.1 7.2M50.6 34.2c-.1.2-.3.4-.5.7-2.1 2.9-8 9.4-18.6 9.5-11 .1-16.9-7.1-18.7-9.9-.1-.1-.2-.3-.3-.4M16.2 38.7l-3.5 4.2M23.5 43.1l-2.4 5.8M32.3 44.8v5.3M39.4 43.1l2.4 5.8"/></g></g></svg>