<!--Generator: Adobe Illustrator 16.0.3, SVG Export Plug-In . SVG Version: 6.00 Build 0)--><svg xmlns="http://www.w3.org/2000/svg" width="64" height="64"><g><g fill="none" stroke="#000" stroke-linecap="round" stroke-linejoin="round" stroke-miterlimit="10"><path d="M18.9 8.7l8 8.6 5-8.4 4.5 8.4 7.8-8.4c.2 3 .2 6.1.1 9.1-.1 2.1-.1 4.5-1.2 6.4-1.8 3.2-3.8 5.9-7.4 6.7-3.6.9-8.2.5-11.1-1.7-1.5-1.1-3.4-2.9-4.4-4.7-1-1.8-1.1-4.1-1.2-6.1-.1-2-.1-4-.1-6-.1-1.3-.1-2.6 0-3.9z"/><path d="M31.9 31.5v23.8s5.3-10.6 13.5-13.4c.4-.1 1.7-.3 2.3-.2.3.1.5.4.4.7-.8 2.5-4.7 12.8-16.2 12.8S16.8 44.7 16 41.7c-.1-.4.2-.8.7-.8.6.1 1.5.3 2.5.7 7.7 3.4 12.7 13.6 12.7 13.6"/></g></g></svg>