<!--Generator: Adobe Illustrator 16.0.3, SVG Export Plug-In . SVG Version: 6.00 Build 0)--><svg xmlns="http://www.w3.org/2000/svg" width="64" height="64"><path fill="none" stroke="#000" stroke-linecap="round" stroke-linejoin="round" stroke-miterlimit="10" d="M41.3 56.8H54c1.5 0 2.7-1.2 2.7-2.7v0V10c0-1.5-1.2-2.7-2.7-2.7H10c-1.5 0-2.7 1.2-2.7 2.7v44c0 1.5 1.2 2.7 2.7 2.7H41.3z"/><path d="M25.4 21.9c3.8 0 6.5 1.2 6.5 5 0 1.9-.8 3.3-2.8 4.2 2.5.7 3.7 2.6 3.7 5.1 0 4-3.3 5.9-7.1 5.9h-9.8V21.9h9.5zm-.5 8.2c1.6 0 2.7-.7 2.7-2.4 0-1.8-1.3-2.3-3.1-2.3h-4.2v4.7h4.6zm.2 8.6c1.9 0 3.3-.7 3.3-2.7s-1.2-2.9-3.2-2.9h-4.8v5.6h4.7zm16 .4c1.7 0 2.9-1 3.2-1.9h3.5c-1 3.1-3.1 4.9-6.9 4.9-4.8 0-7.5-3.3-7.5-7.7 0-10.3 15.4-10.7 14.6 1H37.5c.1 2.4 1.1 3.7 3.6 3.7zm-.3-9.4c-1.8 0-3.2 1.1-3.3 3.1H44c-.4-2.4-1.5-3.1-3.2-3.1zm-4-6.8H45v2.3h-8.2v-2.3z"/></svg>