<!--Generator: Adobe Illustrator 16.0.3, SVG Export Plug-In . SVG Version: 6.00 Build 0)--><svg xmlns="http://www.w3.org/2000/svg" width="64" height="64"><g><g fill="none" stroke="#000" stroke-linecap="round" stroke-linejoin="round" stroke-miterlimit="10"><path d="M36.7 36.4l4.9 1.3c.1 0 .1.1 0 .1L38.4 40h-.1l-1.7-3.4c-.1-.1 0-.2.1-.2zM27.2 33.6l-4.8-1.5c-.1 0-.1-.1 0-.1l3.3-2h.1l1.5 3.5c.1 0 0 .1-.1.1z"/><path d="M53.5 47.8h-42s-7.9-.8-7.7-10c.2-9.2 9.7-9.2 9.7-9.2s1.3-9.8 9.9-11.9C32 14.6 37.3 22 37.3 22s5.6-2.7 11.2.5 5 9.7 5 9.7 6.4.4 6.7 8.3c.2 7.7-6.7 7.3-6.7 7.3z"/><path d="M31.8 42.6c-4.1 0-7.4-3.3-7.4-7.4 0-.7.1-1.5.3-2.1M29.6 28.1c.7-.2 1.5-.3 2.2-.3 4.1 0 7.4 3.3 7.4 7.4 0 .6-.1 1.1-.2 1.7"/></g></g></svg>