<!--Generator: Adobe Illustrator 16.0.3, SVG Export Plug-In . SVG Version: 6.00 Build 0)--><svg xmlns="http://www.w3.org/2000/svg" width="64" height="64"><g><g stroke="#000" stroke-linecap="round" stroke-linejoin="round" stroke-miterlimit="10"><path fill="none" d="M30.2 5.5H33c5 0 9 4.1 9 9v6c0 5-4 9-9 9h-2.7c-5 0-9-4-9-9v-6c-.1-5 4-9 8.9-9zM11.1 50.2c-1.3-4.3 1.8-9.1 3.3-11.4 3-4.6 7-6.8 9-7.8 2.7 2 5.4 4 8.2 6 2.8-2 5.7-4.1 8.5-6.1 1.8.7 6.9 2.9 10.2 8.4 1.2 1.9 4.2 6.9 2.6 11.4-2.9 7.9-18.1 7.9-20.7 7.9-1.7-.1-18.6-.2-21.1-8.4z"/><path fill="none" d="M27 49.6c.5 0 1.3-.2 2.1-.7.4-.2.6-.4.8-.7.3-.5.3-1.1-.1-2.5-.4-1.6-.7-2.4-1-2.9-.2-.3-.7-.9-3.1-2-2.4-1.1-3.5-1.7-4.3-1.5-1.1.3-1.6 1.5-2.8 3.8-.7 1.5-1.1 2.3-1.1 3.4 0 .6.3 1.4.8 3 .4 1.3.7 1.9 1.3 2.2.3.1.5.1.7.1 1.1 0 1.9-.7 2.2-1"/><circle cx="23" cy="51.5" r=".8"/><circle cx="27.6" cy="50" r=".8"/><circle cx="43.4" cy="44.7" r="2.3"/><path d="M21 39.3l-1.3-5.7M44.3 33.6l-.9 10.1"/></g></g></svg>