<!--Generator: Adobe Illustrator 16.0.3, SVG Export Plug-In . SVG Version: 6.00 Build 0)--><svg xmlns="http://www.w3.org/2000/svg" width="64" height="64"><g><g fill="none" stroke="#000" stroke-linecap="round" stroke-linejoin="round" stroke-miterlimit="10"><path d="M36.8 24.7c.6-.5 2-1.4 4.1-1.7 2.7-.3 4.8.8 5.4 1.2M12.4 25.6c.6-.5 2-1.4 4.1-1.7 2.7-.3 4.8.8 5.4 1.2M23.8 20.7c.6-.5 2-1.4 4.1-1.7 2.7-.3 4.8.8 5.4 1.2M21.9 53.1C-1.7 32.2 2.6 28.8 2.6 28.8h58.8s4.3 3.4-19.3 24.4H21.9z"/><path d="M4 28.8c-.1-1-.3-3.7 1.4-5.3.5-.4.9-.7 1.7-1.1 3.1-1.5 4-.8 5.4-1.8 2.1-1.5 1-3.7 3.5-5.6 1.2-.9 2.6-1.1 3-1.2 2.8-.4 3.5 1.3 5.5.9 2.5-.4 2.6-3.1 5.5-3.8.3-.1 2.1-.5 3.9.4 3 1.4 2.2 4.5 4.6 5.7 2.8 1.3 5.6-2.2 8.1-.5 1.5 1 1.3 2.6 3.2 3.5 1.5.7 2.5.1 3.8.3 1.7.2 3.9 1.8 6 7.9"/></g></g></svg>