<!--Generator: Adobe Illustrator 16.0.3, SVG Export Plug-In . SVG Version: 6.00 Build 0)--><svg xmlns="http://www.w3.org/2000/svg" width="64" height="64"><g><g stroke="#000" stroke-linejoin="round" stroke-miterlimit="10"><circle fill="none" stroke-linecap="round" cx="13.8" cy="44" r="5.5"/><circle stroke-linecap="round" cx="34.5" cy="9.5" r="1.5"/><circle stroke-linecap="round" cx="43.9" cy="9.5" r="1.5"/><path fill="none" d="M16.5 39.5c.2-.4 1.6-3.7 3.9-3.9 1.5-.1 2.6.7 2.9 1 4.6 3.4.2 13 4.8 17.3.1.1 2.9 2.6 5.8 1.9 1.5-.4 2.5-1.4 2.9-1.9 1.4-1.7 1.8-3.7 1.9-10.6v-7.7"/><path fill="none" stroke-linecap="round" d="M32.9 8.7c-4.1-.8-6.2.5-6.7 1-4.1 3-3.2 9.4-1.4 13.5.7 1.7 1.8 3.2 3 4.6 1.9 2.2 4.1 4 6.4 5.8.7.6 1.4 1.1 2.2 1.6 2.4 1.3 4.6.2 6.7-1.1 1.3-.9 2.3-1.5 3.9-2.8 2.4-2.1 3.8-3.3 5.3-5.3 1.2-1.6 3.3-4.7 3.4-8.9.1-1.9.1-4.9-2-6.7-2-1.7-5.2-1.9-8.2-.6"/></g></g></svg>