<!--Generator: Adobe Illustrator 16.0.3, SVG Export Plug-In . SVG Version: 6.00 Build 0)--><svg xmlns="http://www.w3.org/2000/svg" width="64" height="64"><g><g fill="none" stroke="#000" stroke-linecap="round" stroke-linejoin="round" stroke-miterlimit="10"><path d="M37.1 47.6c-4.9 4-8 5.5-8 5.5S21.3 48.4 13 40.5C6.4 34 3.7 30.2 3.4 26 3 20 6.6 11.2 14.3 9.9c5.2-.9 11.2 2.2 15 7.8.5-1 1.7-3.6 4.7-5.6.9-.6 4-2.4 8.2-2.1 4.7.3 7.6 3.1 8.7 3.9 6.4 5 1.6 14.4 1.5 15.5"/><path d="M45.9 33.8c.3-.6 1-2.1 2.7-3.2.5-.3 2.3-1.4 4.7-1.2 2.7.2 4.5 1.7 5 2.3 2.6 2.6 2.3 6.2 2.2 6.9-.1 1-.5 3-5.9 8.7-4.4 4.7-8.9 7-8.9 7s-4.5-2.7-9.3-7.3c-3.9-3.7-5.4-6-5.6-8.4-.2-3.5 1.8-8.5 6.3-9.3 3.2-.5 6.6 1.4 8.8 4.5z"/></g></g></svg>