<!--Generator: Adobe Illustrator 16.0.3, SVG Export Plug-In . SVG Version: 6.00 Build 0)--><svg xmlns="http://www.w3.org/2000/svg" width="64" height="64"><path fill="none" stroke="#000" stroke-linejoin="round" stroke-miterlimit="10" d="M41.7 26.3c-2.8.2-4.9-2.3-5.6-3.2-1.4-1.7-1.8-3.5-2.6-6.9-.3-1.6-1.7-7.9-.4-8.4.5-.2 1.1.3 2 1.1.3.2.6.5 1 .9.8.9.6 1.4 1 1.8.7.6 1.8-.3 3.9-.5 2.2-.1 2.5.8 3.6.3 1.3-.6 1-2 2.9-3.4.6-.5 1-.7 1.3-.6 1.5.5.3 7.6.2 8.6-.6 3.2-.9 5.1-2.4 7.1-.9 1-2.5 3-4.9 3.2z"/><path fill="none" stroke="#000" stroke-linecap="round" stroke-linejoin="round" stroke-miterlimit="10" d="M37.4 17.4c-1.1-.4-2.6-.9-4.3-1.2-1.7-.3-3.3-.4-4.5-.3M37.2 19.1c-1.3-.2-2.7-.3-4.4-.4-1.5 0-2.9.1-4.1.2M29.3 22.3c.8-.4 1.8-.7 2.9-1 2.1-.5 3.9-.6 5.3-.5M36.3 23.7c-.6 1.6-1.7 3.9-3.9 5.9-2.6 2.4-4.5 2.2-7.8 4.7-.9.7-3.3 2.7-5.1 5.9-.8 1.4-4 7.1-2.1 11.2 3.3 7.3 20.6 5.9 21.8 2.2.5-1.4-1.6-2.3-2.1-6.4-.2-1.5-.1-2.9-1-4.6-.1-.3-.7-1.3-1.6-1.9-3-2.3-7.9-.1-8.1 0M46.1 24.2c-.1 1.6-.4 4.1-1.1 6.9-.7 3-1 3.3-1.7 5.9-1.3 5.1-2.4 9.6-.2 12.1 1.5 1.7 3.9 1.5 4.1 2.8.1 1.1-1.3 2.2-2.4 2.7-2.6 1.1-5.3-.8-5.5-1"/><path fill="none" stroke="#000" stroke-linecap="round" stroke-linejoin="round" stroke-miterlimit="10" d="M16 47c-.8-1.3-1.8-3.4-1.4-5.8.8-4.9 6.6-5.4 8.9-11.3 1.2-3.2 1.2-7.5-1-9.7-1.4-1.4-4-2.3-5-1.4-.5.5-.4 1.3-.4 1.5.2 1.8 2.7 2.1 3.5 3.7.9 1.7-.4 4-1.3 5.8-2.7 4.9-6.4 5.4-8 10.1-.1.3-.4 1.2-.5 2.3-.2 1.6-.5 4.6 1.4 6.9 1.8 2.1 4.4 2.3 5.2 2.3"/><path d="M41 20.5c-.8 0-1.6-1.9-1.1-2.4.2-.2.5-.2 1.3-.3.6 0 .8-.1 1 0 .5.5-.3 2.7-1.2 2.7z"/><path fill="none" stroke="#000" stroke-linecap="round" stroke-linejoin="round" stroke-miterlimit="10" d="M38.8 22.2c.4.2 1.2.5 2.2.4 1.1-.1 1.9-.5 2.3-.7M41 20.3c0 .5.1 1.6.1 2.1M44.5 17.1c1.1-.4 2.6-.9 4.3-1.2 1.7-.3 3.3-.4 4.5-.3M44.7 18.9c1.3-.2 2.7-.3 4.4-.4 1.5 0 2.9.1 4.1.2M52.6 22c-.8-.4-1.8-.7-2.9-1-2.1-.5-3.9-.6-5.3-.5"/></svg>