<!--Generator: Adobe Illustrator 16.0.3, SVG Export Plug-In . SVG Version: 6.00 Build 0)--><svg xmlns="http://www.w3.org/2000/svg" width="64" height="64"><g fill="none" stroke="#000" stroke-linecap="round" stroke-linejoin="round" stroke-miterlimit="10"><path d="M1.6 41.8c0 2.5 3.9 3.1 4.4 0V34c-.5-2.6-4.5-2.6-4.4 0v7.8h0zM8.2 45.1c.2 2.1 4.1 2.2 4.4 0V27c-.3-2.6-4.3-2.6-4.4 0v18.1zM14.7 46c.4 2.1 4.4 2.1 4.4 0V29.4c-.1-2.7-4-2.6-4.4 0V46h0zM21.4 46c.7 2.1 4.6 2.1 4.4 0V17.9c.2-2.7-3.8-2.6-4.4 0V46h0zM29.5 47.4V18.2c0-.9.3-1.5.8-1.7 9.3-2.2 18.6 4.3 19.5 14.1 9.1-3.9 16.9 7.8 9.9 14.8-1.8 1.8-3.9 2.7-6.4 2.7H30c-.4-.1-.5-.5-.5-.7h0z"/></g></svg>