<!--Generator: Adobe Illustrator 16.0.3, SVG Export Plug-In . SVG Version: 6.00 Build 0)--><svg xmlns="http://www.w3.org/2000/svg" width="64" height="64"><g><g fill="none" stroke="#000" stroke-linecap="round" stroke-linejoin="round" stroke-miterlimit="10"><path d="M32.1 10.9c.1-.3.6-1.2 1.5-1.8.3-.2 1.3-.8 2.7-.7 1.5.1 2.5 1 2.8 1.3 1.5 1.5 1.3 3.5 1.2 3.9-.1.5-.3 1.7-3.3 4.9-2.5 2.7-5 4-5 4s-2.6-1.5-5.2-4.1c-2.2-2.1-3.1-3.4-3.2-4.8-.1-2 1-4.8 3.6-5.3 1.7-.3 3.6.8 4.9 2.6zM9.8 31.5h44.4v24.2H9.8zM7.8 31.5v-8.1h48.4v8.1h-2zM32 23.4v32.3"/></g></g></svg>