<!--Generator: Adobe Illustrator 16.0.3, SVG Export Plug-In . SVG Version: 6.00 Build 0)--><svg xmlns="http://www.w3.org/2000/svg" width="64" height="64"><g><g fill="none" stroke="#000" stroke-linecap="round" stroke-linejoin="round" stroke-miterlimit="10"><path d="M22.3 24.4h33.9c.8 0 1.5.7 1.5 1.5v28.2c0 .8-.7 1.5-1.5 1.5H22.3c-.8 0-1.5-.7-1.5-1.5V25.8c.1-.8.7-1.4 1.5-1.4zM31.8 24.4c0-6.2-.7-15.9-12.8-15.9-13.2 0-12.7 9.6-12.7 15.9h4.3c0-4.2-.3-11.5 8-11.5 8.8 0 8.7 7.4 8.7 11.5"/><path d="M37.8 42.5s-.6 7.7 1.6 7.7 2.2-8 2.2-8 9.4-9.1-1-10.3c-.5-.1-1-.1-1.5 0-9.2 1.3-1.3 10.6-1.3 10.6z"/></g></g></svg>