<!--Generator: Adobe Illustrator 16.0.3, SVG Export Plug-In . SVG Version: 6.00 Build 0)--><svg xmlns="http://www.w3.org/2000/svg" width="64" height="64"><g><g fill="none" stroke="#000" stroke-linecap="round" stroke-linejoin="round" stroke-miterlimit="10"><path d="M7.3 7.9h49.5v46.2H7.3z"/><path d="M7.7 22.3c1.9-1.4 5.2-3.4 9.5-3.9 8.6-1.2 13.3 4.3 23.3 5.6 3.6.5 9.1.6 16.1-1.7M7.9 37.7c1.9-1.4 4.7-3 9-3.6 8.6-1.2 13.3 4.3 23.3 5.6 3.6.5 9.1.6 16.1-1.7"/><path d="M21.5 54.1c-1.4-1.9-2.6-6.1-2.2-10.4.7-8.2 4.4-10 5.8-20 .5-3.6 1-8.8-1.3-15.8M39.2 54.1c-1.4-1.9-2.4-2.8-3-7.1-1.2-8.6 4.3-13.3 5.6-23.3.5-3.6.8-8.8-1.5-15.8"/></g></g></svg>