<!--Generator: Adobe Illustrator 16.0.3, SVG Export Plug-In . SVG Version: 6.00 Build 0)--><svg xmlns="http://www.w3.org/2000/svg" width="64" height="64"><g fill="none" stroke="#000" stroke-linecap="round" stroke-linejoin="round" stroke-miterlimit="10"><path d="M41.4 56.8H54c1.5 0 2.7-1.2 2.7-2.7v0V10c0-1.5-1.2-2.7-2.7-2.7H10c-1.5 0-2.7 1.2-2.7 2.7v44c0 1.5 1.2 2.7 2.7 2.7h31.4z"/><path d="M26.2 45.6c12.6 0 19.5-10.3 19.5-19.2v-.9c1.3-1 2.5-2.1 3.4-3.5-1.2.5-2.6.9-3.9 1.1 1.4-.8 2.5-2.2 3-3.7-1.3.8-2.8 1.3-4.4 1.6-1.3-1.3-3-2.1-5-2.1-3.8 0-6.9 3-6.9 6.8 0 .5.1 1 .2 1.5-5.7-.3-10.8-3-14.1-7.1-.6 1-.9 2.2-.9 3.4 0 2.3 1.2 4.4 3.1 5.6-1.1 0-2.2-.3-3.1-.8v.1c0 3.3 2.4 6 5.5 6.6-.6.2-1.2.2-1.8.2-.4 0-.9 0-1.3-.1.9 2.7 3.4 4.6 6.4 4.7-2.3 1.8-5.3 2.9-8.5 2.9-.6 0-1.1 0-1.6-.1 3 1.9 6.6 3 10.4 3"/></g></svg>