<!--Generator: Adobe Illustrator 16.0.3, SVG Export Plug-In . SVG Version: 6.00 Build 0)--><svg xmlns="http://www.w3.org/2000/svg" width="64" height="64"><path fill="none" stroke="#000" stroke-linecap="round" stroke-linejoin="round" stroke-miterlimit="10" d="M29.2 54c-3 0-5.1-4.3-6.4-7.8l-4.2-15.9c-1.8-6.7-3.7-9.7-6.3-9.7-.5 0-1.1.2-3.8 2l-.9-1.3c2.3-2.1 4.5-4.2 6.7-6.2 4.1-3.7 6.1-4.4 6.9-4.5h.6c1.1 0 4.3 0 5.4 7.5 1 6.8 1.7 10.8 2.1 12.5 1.4 6.5 2.9 9.3 5.1 9.3 1.7 0 3.5-1.8 6-6 2.3-3.8 3.5-6.6 3.7-8.7.2-2-.2-3.6-1.1-4.7-.8-.9-2.1-1.4-3.7-1.4-.6 0-1.2.1-1.8.2C40 13 44 10 49.6 10h.5c2 .1 3.4.6 4.4 1.7 1.4 1.5 2 4.1 1.9 7.7-.2 5-3.7 12-10.3 20.9C39.3 49.4 33.6 54 29.2 54z"/></svg>