<!--Generator: Adobe Illustrator 16.0.3, SVG Export Plug-In . SVG Version: 6.00 Build 0)--><svg xmlns="http://www.w3.org/2000/svg" width="64" height="64"><g fill="none" stroke="#000" stroke-linecap="round" stroke-linejoin="round" stroke-miterlimit="10"><path d="M41.3 56.8H54c1.5 0 2.7-1.2 2.7-2.7v0V10c0-1.5-1.2-2.7-2.7-2.7H10c-1.5 0-2.7 1.2-2.7 2.7v44c0 1.5 1.2 2.7 2.7 2.7H41.3z"/><path d="M39.8 41.7l1.5 4.6c-.6.9-3.2 1.9-5.6 1.9-7.1.1-9.8-5-9.8-8.7V28.8h-3.2v-4c4.9-1.8 6.1-6.2 6.4-8.7 0-.2.2-.2.2-.2H34V24h6.5v4.9H34V39c0 1.4.5 3.3 3.1 3.2.9 0 2.1-.2 2.7-.5"/></g></svg>