<!--Generator: Adobe Illustrator 16.0.3, SVG Export Plug-In . SVG Version: 6.00 Build 0)--><svg xmlns="http://www.w3.org/2000/svg" width="64" height="64"><g><g fill="none" stroke="#000" stroke-linecap="round" stroke-linejoin="round" stroke-miterlimit="10"><ellipse transform="matrix(1 -.00777 .00777 1 -.26 .21)" cx="26.9" cy="33.6" rx="23.5" ry="22.7"/><path d="M43.6 33.4c.1 8.8-7.3 16-16.5 16-9.2.1-16.7-7-16.8-15.8s7.3-16 16.5-16 16.7 7 16.8 15.8z"/><path d="M35.2 33.5c0 4.6-3.7 8.4-8.3 8.4-4.6 0-8.4-3.7-8.4-8.3 0-4.6 3.7-8.4 8.3-8.4 4.6 0 8.4 3.7 8.4 8.3zM26.9 33.6l22-15.6M54.1 13.2l.9-5.5-4.4 3.9-2 6.6 7.6-1 4.4-3.8z"/></g></g></svg>