<!--Generator: Adobe Illustrator 16.0.3, SVG Export Plug-In . SVG Version: 6.00 Build 0)--><svg xmlns="http://www.w3.org/2000/svg" width="64" height="64"><path clip-rule="evenodd" fill="none" stroke="#000" stroke-linecap="round" stroke-linejoin="round" stroke-miterlimit="10" d="M25.7 55.4V50c-8.8 1.9-10.6-4.2-10.6-4.2-1.4-3.6-3.5-4.6-3.5-4.6-2.9-2 .2-1.9.2-1.9 3.2.2 4.8 3.2 4.8 3.2 2.8 4.8 7.4 3.4 9.2 2.6.3-2 1.1-3.4 2-4.2-7-.8-14.3-3.5-14.3-15.6 0-3.4 1.2-6.3 3.2-8.5-.3-.8-1.4-4 .3-8.3 0 0 2.6-.8 8.7 3.2 2.5-.7 5.2-1 7.9-1.1 2.7 0 5.4.4 7.9 1.1 6-4.1 8.7-3.2 8.7-3.2 1.7 4.3.6 7.5.3 8.3 2 2.2 3.2 5 3.2 8.5 0 12.1-7.4 14.8-14.4 15.5 1.1 1 2.1 2.9 2.1 5.8v8.6"/></svg>