<!--Generator: Adobe Illustrator 16.0.3, SVG Export Plug-In . SVG Version: 6.00 Build 0)--><svg xmlns="http://www.w3.org/2000/svg" width="64" height="64"><g><g fill="none" stroke="#000" stroke-linecap="round" stroke-linejoin="round" stroke-miterlimit="10"><path d="M15.2 51.4c.6-.3 1.3-.9 2.1-1.7.6-.6 2.2-2.4 3-5.7 1.3-5-1-6.6-.9-15.1 0-1.2.2-4.6.8-7.7.6-3.1 1.4-4.7 2.4-6.3 1.8-2.9 7.1-5.1 11.3-5.3 3.2-.2 6.2 1.9 6.2 1.9l-.1-.1s4.2 3.5 4.6 8.6c.1 1.6 2.6 2.3 3 3.5.2.6-1.2.9-1.1 1.4.1.4.1.6.2 1s.2.5.3.9c.1.3 0 .3.1.6 0 .4-.4.7-.5 1.2-.1.6.4.8.4 1.5 0 .6-.6 1.1-.8 1.2-.7.5-1.5.5-2.2.4-.9-.1-1-.2-2.4-.5-1.1-.2-1.7-.3-2.1-.2-1.2.4-1.6 1.8-1.7 2.1-.6 1.8.2 3.6 1.5 6.4 1.3 2.8 1.8 2.7 1.8 4 .1 1.3-.5 1.7-.8 4.9-.1 1.1-.1 1.7.1 2.3.4 1.2 1.4 1.9 2 2.2"/><path d="M39.1 10.9c.3.4.7 1.2.9 2.3.1 1.3-.3 2.2-.5 2.8-.6 1.3-1.3 2-1.7 2.4-2.9 3.2-1.5 9.9-1 12.1.3 1.3.4 2.5.6 3.2M11.1 5.6H5.6v5.5M5.6 52.9v5.5h5.5M58.4 11.1V5.6h-5.5M52.9 58.4h5.5v-5.5"/><path d="M11.1 5.6H5.6v5.5M5.6 52.9v5.5h5.5M58.4 11.1V5.6h-5.5M52.9 58.4h5.5v-5.5"/><path d="M11.1 5.6H5.6v5.5M5.6 52.9v5.5h5.5M58.4 11.1V5.6h-5.5M52.9 58.4h5.5v-5.5"/></g></g></svg>