<!--Generator: Adobe Illustrator 16.0.3, SVG Export Plug-In . SVG Version: 6.00 Build 0)--><svg xmlns="http://www.w3.org/2000/svg" width="64" height="64"><g><path fill="none" stroke="#000" stroke-linecap="round" stroke-linejoin="round" stroke-miterlimit="10" d="M55 47.8H9c-1.7 0-3.1-1.4-3.1-3.1v-32C5.9 11 7.3 9.6 9 9.6h46c1.7 0 3.1 1.4 3.1 3.1v32c0 1.7-1.4 3.1-3.1 3.1z"/><path d="M26.8 28.1l1.4 7.2c.1.3.5.5.7.2l5.5-5.5c.2-.2.1-.6-.2-.7l-6.9-1.7c-.3 0-.5.2-.5.5z"/><path d="M36.148 38.034l-4.879-4.88 1.06-1.06 4.88 4.88z"/><path fill="none" stroke="#000" stroke-linecap="round" stroke-linejoin="round" stroke-miterlimit="10" d="M2.1 47.8h59.8s-.6 6.3-9.4 6.5c-4.5.1-10.8 0-20.4 0-9.9 0-13.5.1-18.8.1-10.9 0-11.2-6.6-11.2-6.6"/></g></svg>