<!--Generator: Adobe Illustrator 16.0.3, SVG Export Plug-In . SVG Version: 6.00 Build 0)--><svg xmlns="http://www.w3.org/2000/svg" width="64" height="64"><g><g fill="none" stroke="#000" stroke-linejoin="round" stroke-miterlimit="10"><path stroke-linecap="round" d="M56.6 51H7.4c-1.7 0-3-1.4-3-3V16.1c0-1.7 1.4-3 3-3h49.3c1.7 0 3 1.4 3 3V48c0 1.6-1.4 3-3.1 3z"/><path d="M4.3 22.5h55.4v4.8H4.3"/><path stroke-linecap="round" d="M20.3 43.1h-6.6c-.8 0-1.4-.7-1.4-1.4V35c0-.8.7-1.4 1.4-1.4h6.6c.8 0 1.4.7 1.4 1.4v6.6c0 .8-.6 1.5-1.4 1.5z"/></g></g></svg>