<!--Generator: Adobe Illustrator 16.0.3, SVG Export Plug-In . SVG Version: 6.00 Build 0)--><svg xmlns="http://www.w3.org/2000/svg" width="64" height="64"><g><g fill="none" stroke="#000" stroke-linecap="round" stroke-linejoin="round" stroke-miterlimit="10"><path d="M11.9 28.3c.1-.1.2-.5.6-.8.1-.1.5-.3 1.1-.3.6 0 1.1.4 1.2.5.6.6.5 1.5.5 1.6 0 .2-.1.7-1.4 2.1-1.1 1.1-2.1 1.7-2.1 1.7s-1.1-.6-2.2-1.7c-.9-.9-1.3-1.4-1.3-2-.1-.8.4-2 1.5-2.2.8-.1 1.6.4 2.1 1.1zM31.9 28.8c.1-.1.2-.5.6-.8.1-.1.5-.3 1.1-.3.6 0 1.1.4 1.2.5.6.6.5 1.5.5 1.6 0 .2-.1.7-1.4 2.1-1.1 1.1-2.1 1.7-2.1 1.7s-1.1-.6-2.2-1.7c-.9-.9-1.3-1.4-1.3-2-.1-.8.4-2 1.5-2.2.8-.1 1.6.3 2.1 1.1zM50.9 28.3c.1-.1.2-.5.7-.8.1-.1.5-.3 1.1-.3.6 0 1.1.4 1.2.5.6.6.5 1.5.5 1.6 0 .2-.1.7-1.4 2.1-1.1 1.1-2.1 1.7-2.1 1.7s-1.1-.6-2.2-1.7c-.9-.9-1.3-1.4-1.3-2-.1-.8.4-2 1.5-2.2.7-.1 1.5.4 2 1.1zM51.4 43.6c.1-.1.2-.5.6-.8.1-.1.5-.3 1.1-.3.6 0 1.1.4 1.2.5.6.6.5 1.5.5 1.6 0 .2-.1.7-1.4 2.1-1.1 1.1-2.1 1.7-2.1 1.7s-1.1-.6-2.2-1.7c-.9-.9-1.3-1.4-1.3-2-.1-.8.4-2 1.5-2.2.7 0 1.6.4 2.1 1.1zM31.9 43.9c.1-.1.2-.5.6-.8.1-.1.5-.3 1.1-.3.6 0 1.1.4 1.2.5.6.6.5 1.5.5 1.6 0 .2-.1.7-1.4 2.1-1.1 1.1-2.1 1.7-2.1 1.7s-1.1-.6-2.2-1.7c-.9-.9-1.3-1.4-1.3-2-.1-.8.4-2 1.5-2.2.8-.1 1.6.3 2.1 1.1zM11.6 43.9c.1-.1.2-.5.7-.8.1-.1.5-.3 1.1-.3.6 0 1.1.4 1.2.5.6.6.5 1.5.5 1.6 0 .2-.1.7-1.4 2.1-1.1 1.1-2.1 1.7-2.1 1.7s-1.1-.6-2.2-1.7c-1-.8-1.4-1.4-1.4-2-.1-.8.4-2 1.5-2.2.7-.1 1.5.3 2.1 1.1z"/><path d="M4.2 13.1h55.6c1.4 0 2.4 1.3 2.4 2.9v38c0 1.6-1.1 2.9-2.4 2.9H4.2c-1.4 0-2.4-1.3-2.4-2.9V16c0-1.6 1-2.9 2.4-2.9zM1.8 20.7h60.5M19.9 7v9.1M42.6 7v9.1M58.2 38.8H6.3M21.4 26.7v22.7M42.6 26.7v22.7"/></g></g></svg>