<!--Generator: Adobe Illustrator 16.0.3, SVG Export Plug-In . SVG Version: 6.00 Build 0)--><svg xmlns="http://www.w3.org/2000/svg" width="64" height="64"><g fill="none" stroke="#000" stroke-linecap="round" stroke-linejoin="round" stroke-miterlimit="10"><path d="M39.8 55.5h12c1.4 0 2.6-1.2 2.6-2.6v0-41.8c0-1.4-1.2-2.6-2.6-2.6H10c-1.4 0-2.6 1.2-2.6 2.6v41.8c0 1.4 1.2 2.6 2.6 2.6h24.6"/><path d="M33.3 55.5V38.8h-6.2v-7.7h6.2v-5.4c0-6.3 3.9-9.7 9.6-9.7 2.7 0 5.1.2 5.8.3v7.2h-4c-3.1 0-3.7 1.5-3.7 3.6v4.1h7.8l-1 7.7H41v16.7h-7.7z"/></g></svg>