<!--Generator: Adobe Illustrator 16.0.3, SVG Export Plug-In . SVG Version: 6.00 Build 0)--><svg xmlns="http://www.w3.org/2000/svg" width="64" height="64"><path fill="none" stroke="#000" stroke-linecap="round" stroke-linejoin="round" stroke-miterlimit="10" d="M53.5 24c-1.8 0-3.1 1.5-3 3.3V41c0 1.8 1.2 3.3 3 3.3s2.9-1.5 2.9-3.3V27.3c0-1.8-1.1-3.3-2.9-3.3M10.7 25c-1.8 0-3.1 1.5-3 3.3V42c0 1.8 1.2 3.3 3 3.3s2.9-1.5 2.9-3.3V28.3c0-1.8-1.1-3.3-2.9-3.3M46.9 22.3H17.3c0-5.1 3-9.5 7.5-11.8l-2.3-4.2c-.1-.2-.5-1.2.2-1.6.9-.5 1.4.4 1.6.8l2.3 4.3c1.9-.9 3.2-1 5.5-1s3.8.2 5.8 1.1l2.8-4.4c.1-.2.9-1.3 1.7-.8 1 .6.4 1.4.2 1.6l-3 4.6c4.5 2.2 7.3 6.3 7.3 11.4z"/><path d="M25.4 17.7c-.7 0-1.2-.6-1.2-1.2 0-.7.6-1.2 1.2-1.2.7 0 1.2.6 1.2 1.2s-.6 1.2-1.2 1.2zM38.8 17.6c-.7 0-1.2-.6-1.2-1.2 0-.7.6-1.2 1.2-1.2.7 0 1.2.6 1.2 1.2.1.7-.5 1.2-1.2 1.2z"/><path fill="none" stroke="#000" stroke-linecap="round" stroke-linejoin="round" stroke-miterlimit="10" d="M17.8 25.5v20.9c0 1.9 1.5 3.4 3.4 3.4h2.3v7.1c0 1 .7 1.9 1.6 2.3.8.4 1.9.3 2.7 0 .4-.1.8-.4 1.1-.8.3-.4.4-1 .4-1.5V50v-.4H35v7.1c.1 1.5 1.2 2.6 2.7 2.5 1.8 0 2.9-.8 3-3.2v-6.5H43c1.4 0 2.6-.9 3.1-2.1v-.1c.1-.2.1-.3.2-.5 0-.2 0-.3.1-.5V25.2l-28.6.3"/></svg>