<!--Generator: Adobe Illustrator 16.0.3, SVG Export Plug-In . SVG Version: 6.00 Build 0)--><svg xmlns="http://www.w3.org/2000/svg" width="64" height="64"><g><circle fill="none" stroke="#000" stroke-linecap="round" stroke-linejoin="round" stroke-miterlimit="10" cx="32" cy="32" r="8.7"/><path fill="none" stroke="#000" stroke-linecap="round" stroke-linejoin="round" stroke-miterlimit="10" d="M24.3 15c-2.7.6-7.4-3.2-9.4-1.3-.6.6-1.2 1.3-1.8 2-1.6 2 2.3 6 1.5 9 0 .2-.1.7-.1.7-1.4 2.4-6.8 3.1-6.9 6 0 .9.1 1.8.2 2.7.3 2.3 4.9 2.2 6.8 4.2.3.3.5 1.2.5 1.2l.2 1.1c.6 2.7-3.3 6.4-1.4 8.5.6.7 1.3 1.2 2 1.8 2 1.6 6.1-2.3 9-1.4.2 0 .7.1.7.1 2.3 1.5 3.1 6.9 5.9 6.9.9 0 1.8-.1 2.7-.2 2.5-.3 2.2-5.7 4.9-7.2l.7-.2c2.7-.7 7 3 9 1 .6-.6 1.2-1.3 1.7-2 1.6-2-2.6-5.6-1.7-8.5l.5-1c1.6-2.3 6.7-2 6.9-4.9.1-.9 0-1.8-.1-2.7-.2-2.5-5.8-2.9-7.3-5.6-.1-.2-.4-.6-.4-.6-.6-2.7 2.9-6.9 1-9-.6-.7-1.3-1.2-2-1.8-2-1.6-5.7 2.4-8.6 1.3l-.6-.4c-2.3-1.5-2.6-7.1-5.5-7.2-.9 0-1.8.1-2.7.1-2.5.3-2.3 5.7-5 7.1l-.7.3z"/></g></svg>