<!--Generator: Adobe Illustrator 16.0.3, SVG Export Plug-In . SVG Version: 6.00 Build 0)--><svg xmlns="http://www.w3.org/2000/svg" width="64" height="64"><g><path fill="none" stroke="#000" stroke-linecap="round" stroke-linejoin="round" stroke-miterlimit="10" d="M3.4 49.8v.3"/><g fill="none" stroke="#000" stroke-linecap="round" stroke-linejoin="round" stroke-miterlimit="10"><ellipse cx="50.2" cy="27.6" rx="6" ry="6.7"/><path d="M8 26.9c0-3.7 2.7-6.7 6-6.7s6 3 6 6.7-2.7 6.7-6 6.7-6-3-6-6.7M20.3 36.3c-.7-1.1-2.1-3-2.9-3.8M3.4 50.1c0 1.1 7.1 1.9 13 1.7M10.4 33.2s-7.1 5.9-7 16.6M47.3 51.1c5.6.3 12.5-.1 13.1-1.6 1.1-2.5-1.7-12.5-6.1-16.7M46.6 32.9s-2 2.2-3.6 4.5"/></g><g fill="none" stroke="#000" stroke-linecap="round" stroke-linejoin="round" stroke-miterlimit="10"><path d="M31.6 10.9h0c4.5 0 8.2 3.7 8.2 8.2v2.6c0 4.5-3.7 8.2-8.2 8.2h0c-4.5 0-8.2-3.7-8.2-8.2v-2.6c.1-4.5 3.7-8.2 8.2-8.2z"/><path d="M37.1 27.9c1.3 1.4 4.1 6.7 5.9 9.6 2.7 4.4 6.1 9.8 4.3 13.6-2.1 4.4-9.9 4.5-15.6 4.6-6.1.1-12.5.1-15-3.9-2.6-4.5 1.1-11.2 2.4-13.7 1.8-3.3 5.4-8.9 6.9-10.3"/></g></g></svg>