<!--Generator: Adobe Illustrator 16.0.3, SVG Export Plug-In . SVG Version: 6.00 Build 0)--><svg xmlns="http://www.w3.org/2000/svg" width="64" height="64"><path fill="none" stroke="#000" stroke-linecap="round" stroke-linejoin="round" stroke-miterlimit="10" d="M7.6 31.3c0-20.1 25.2-32.8 41.2-17.2 8.6 8.4 10.1 22.2 3 32.2C43 58.5 31.6 56.7 20.7 56.7V33.6s2.3-9.8 8.7-12c5.6-1.7 12.1 1.4 14.1 7.3 2.1 6.3-.9 10.5-4.4 13.1-3.5 2.6-12.5.1-12.5.1v7.5c8 3.7 20.6-.8 24.6-11 2.7-7.1.8-15.4-4.8-20.6-6.9-5.5-14.3-6.8-22.4-3-5.6 2.8-9.5 8.5-10.4 14.7v27H7.7l-.1-25.4z"/></svg>