<!--Generator: Adobe Illustrator 16.0.3, SVG Export Plug-In . SVG Version: 6.00 Build 0)--><svg xmlns="http://www.w3.org/2000/svg" width="64" height="64"><g><g fill="none" stroke="#000" stroke-linejoin="round" stroke-miterlimit="10"><path stroke-linecap="round" d="M40.5 31.6c0-.1 0-.1 0 0v-5"/><path d="M40.5 26.6v-3.1c0-.2.3-.4.5-.2l3.5 3.6c.1.1.2.1.4 0l7.4-5.2c.1-.1.2-.2.1-.4-.9-1.5-6.6-10.1-14.9-12.9-.1 0-.2 0-.3.1-5.7 7.8-12.9 7.9-18.7 0-.1-.1-.2-.1-.3-.1-7.6 2.9-13.9 11.3-15 12.9-.1.1-.1.3.1.4l7.7 5c.1.1.3.1.4-.1l2.8-3.3c.2-.2.5-.1.5.2v25.2c0 .2.1.3.3.3h20.6"/><g stroke-linecap="round"><path d="M36.3 34.8l-1.2 20.5c0 .2.1.3.3.3h25.3c.2 0 .3-.1.3-.3l-1.3-20.4M59.6 34.8H37l-.3-.3 1.7-2.2c.1-.1.1-.1.2-.1h19.2c.1 0 .2 0 .2.1l1.6 2.5"/></g><circle stroke-linecap="round" cx="44.4" cy="38.7" r="1.3"/><circle stroke-linecap="round" cx="52.2" cy="38.7" r="1.3"/><path stroke-linecap="round" d="M44.2 40.5c-.3 8.5 8.5 8.5 8 0"/></g></g></svg>