<!--Generator: Adobe Illustrator 16.0.3, SVG Export Plug-In . SVG Version: 6.00 Build 0)--><svg xmlns="http://www.w3.org/2000/svg" width="64" height="64"><g><g fill="none" stroke="#000" stroke-linejoin="round" stroke-miterlimit="10"><circle stroke-linecap="round" cx="49.4" cy="27.1" r="6"/><path stroke-linecap="round" d="M58.5 24.2l-1.2 2.7c-.1.2-.1.5 0 .7l1.2 2.8c.2.5 0 1-.5 1.2l-2.8 1c-.2.1-.4.3-.5.5l-1.1 2.8c-.2.5-.7.7-1.2.5l-2.7-1.2c-.2-.1-.5-.1-.7 0l-2.8 1.2c-.5.2-1 0-1.2-.5l-1-2.8c-.1-.2-.3-.4-.5-.5l-2.8-1.1c-.5-.2-.7-.7-.5-1.2l1.2-2.7c.1-.2.1-.5 0-.7L40.1 24c-.2-.5 0-1 .5-1.2l2.8-1c.2-.1.4-.3.5-.5l1.1-2.8c.2-.5.7-.7 1.2-.5l2.7 1.2c.2.1.5.1.7 0l2.8-1.2c.5-.2 1 0 1.2.5l1 2.8c.1.2.3.4.5.5l2.8 1.1c.6.2.8.8.6 1.3z"/><path d="M43.9 33.3l-3 6.4 4.4.6 2.7-4.8M54.6 33.2l3 6.5-4.3.6-2.6-4.7M49.9 19.1v-4.3c-.1-4.2-2.1-4.5-5.5-4.4h1.7-34.5"/><path stroke-linecap="round" d="M14.6 50.4v-2.5-12.3-12.2-7.8-.7-1.6c0-1.6-1.3-3-3-3H8.4c-1.6 0-3 1.3-3 3v2.3h9.1"/><path d="M49.8 35.3v18.3l-39.5.1"/><path stroke-linecap="round" d="M14.5 49.2v1.6c0 1.6-1.3 3-3 3H8.4c-1.6 0-3-1.3-3-3v-2.3c2.8 0 6.3 0 9.1-.1v.8zM19.3 22h14.3M19.3 30h14.3M19.3 38h14.3"/></g></g></svg>