<!--Generator: Adobe Illustrator 16.0.3, SVG Export Plug-In . SVG Version: 6.00 Build 0)--><svg xmlns="http://www.w3.org/2000/svg" width="64" height="64"><path fill="none" stroke="#000" stroke-linecap="square" stroke-linejoin="round" stroke-miterlimit="10" d="M39.8 56.7c-3.3-1.1-3.2-1-6.2-.9-12 .6-21.2-7.1-24.2-17.4-1.2-4.6.2-8.7-1.2-13.2C3.8 13.4 16.4 3 26.6 8.1c.9.5 1.5.6 5 .6 3.2 0 4.4.1 6 .6 7.1 1.8 12.9 6.4 15.9 12.9 1.9 4 2.6 8 2.1 12.7-.2 2.5-.2 2.7.3 4.2 3.5 10.4-6.1 20.4-16.2 17.7l.1-.1h0zM36.7 48c9.7-2.1 11-11.1 7.2-15.3-1.8-2-4.5-3.2-11-4.7-2.9-.7-8.5-2-6.4-5.1.7-1.1 2.4-1.8 4.6-1.9 7.8-.5 6.2 8.1 11.5 5.5 2.5-1.2 2.3-5.3-.5-7.7-5.8-4.8-22.8-4.8-22.8 6 0 10.4 14.8 8.1 18.5 12.3 2 2.4-.1 6.4-6.3 6.1-7-.5-5.2-7.2-9.5-7.2-3.3 0-4.4 2.7-2.7 6.2 2.9 6.1 11.2 7.2 17.5 5.9l-.1-.1h0z"/></svg>