<!--Generator: Adobe Illustrator 16.0.3, SVG Export Plug-In . SVG Version: 6.00 Build 0)--><svg xmlns="http://www.w3.org/2000/svg" width="64" height="64"><path fill="none" stroke="#000" stroke-linecap="round" stroke-linejoin="round" stroke-miterlimit="10" d="M32 8.6c-6.3 0-7.1 0-9.6.1s-4.2.5-5.7 1.1c-1.5.6-2.8 1.4-4.1 2.7-1.3 1.3-2.1 2.6-2.7 4.1-.6 1.5-1 3.2-1.1 5.7-.1 2.5-.1 3.3-.1 9.6s0 7.1.1 9.6.5 4.2 1.1 5.7c.6 1.5 1.4 2.8 2.7 4.1 1.3 1.3 2.6 2.1 4.1 2.7 1.5.6 3.2 1 5.7 1.1 2.5.1 3.3.1 9.6.1s7.1 0 9.6-.1 4.2-.5 5.7-1.1c1.5-.6 2.8-1.4 4.1-2.7 1.3-1.3 2.1-2.6 2.7-4.1.6-1.5 1-3.2 1.1-5.7.1-2.5.1-3.3.1-9.6s0-7.1-.1-9.6-.5-4.2-1.1-5.7c-.6-1.5-1.4-2.8-2.7-4.1-1.3-1.3-2.6-2.1-4.1-2.7-1.5-.6-3.2-1-5.7-1.1-2.5 0-3.3-.1-9.6-.1h0z"/><circle fill="none" stroke="#000" stroke-linecap="round" stroke-linejoin="round" stroke-miterlimit="10" cx="23.1" cy="32" r="6.7"/><circle fill="none" stroke="#000" stroke-linecap="round" stroke-linejoin="round" stroke-miterlimit="10" cx="40.9" cy="32" r="6.7"/></svg>