<!--Generator: Adobe Illustrator 16.0.3, SVG Export Plug-In . SVG Version: 6.00 Build 0)--><svg xmlns="http://www.w3.org/2000/svg" width="64" height="64"><g><g fill="none" stroke="#000" stroke-linecap="round" stroke-linejoin="round" stroke-miterlimit="10"><path d="M39.7 51.4c-2.5 1.7-7.7 4.8-7.7 4.8s-8.7-5.2-17.9-14C6.7 34.9 3.7 30.6 3.4 25.9 2.9 19.3 6.9 9.5 15.6 8c5.8-1 12.4 2.5 16.7 8.6.5-1.2 1.9-4 5.3-6.2 1-.7 4.4-2.7 9.1-2.4 5.3.3 8.6 3.4 9.7 4.4 5.1 5.1 4.4 12.1 4.2 13.3-.2 1.9-1 5.9-11.3 16.8-.3.3-2.4 3-5.9 2.9-2.5 0-4.2-1.4-4.7-1.8-4.1-4.1-8.3-8.2-12.4-12.3"/><path d="M33.6 37.5c1.2-1.5 2.3-4 1.9-6.6-.1-.4-.2-1.2-.7-2.3-.8-1.6-2.1-3-7.3-5.6-3.9-2-5.3-2.2-9.9-4.5-1.1-.6-2-1.1-2.6-1.4 0 .6.1 1.5.1 2.7.2 3.4.4 6 .5 6.6.2 2 1.2 11 7.1 13.5 3.4 1.4 8.3.7 10.9-2.4z"/></g></g></svg>