<!--Generator: Adobe Illustrator 16.0.3, SVG Export Plug-In . SVG Version: 6.00 Build 0)--><svg xmlns="http://www.w3.org/2000/svg" width="64" height="64"><g fill="none" stroke="#000" stroke-linecap="round" stroke-linejoin="round" stroke-miterlimit="10"><path d="M21.2 15.4c1.6 0 3 .1 4.3.4 1.3.3 2.4.7 3.3 1.3.9.6 1.6 1.4 2.1 2.5.5 1 .7 2.3.7 3.8 0 1.6-.4 3-1.1 4.1-.8 1.1-1.9 2-3.3 2.7 2 .6 3.5 1.6 4.5 3 1 1.5 1.5 3.2 1.5 5.2 0 1.7-.3 3.1-.9 4.3-.6 1.2-1.5 2.2-2.6 3-1.1.8-2.3 1.3-3.7 1.7-1.4.4-2.8.5-4.3.5H5.9V15.4h15.3zm-.1 14.2c1.2 0 2.1-.4 2.9-.9.8-.6 1.2-1.4 1.2-2.7 0-.7-.1-1.3-.4-1.7-.3-.5-.6-.8-1-1.1-.4-.3-.9-.4-1.5-.5-.5-.1-1.1-.1-1.7-.1h-6.2v7.1h6.7zm.5 12.7c.7 0 1.3-.1 1.9-.2.6-.1 1.1-.3 1.6-.7.5-.3.8-.7 1.1-1.2.3-.5.4-1.2.4-2 0-1.6-.4-2.7-1.3-3.4-.9-.7-2.1-1-3.5-1h-7.4v8.5h7.2zM43.9 42.3l.4.4c.7.6 1.5.9 2.4 1 1.1.1 2.3 0 3.3-.5.5-.2 1-.6 1.4-.9l.6-.6c.1-.2.3-.6.6-.6.5-.1 1 0 1.4 0h3.6c-.9 2.8-2.2 4.7-4.1 5.9-1.8 1.2-4 1.8-6.6 1.8-1.8 0-3.4-.3-4.9-.9-1.5-.6-2.7-1.4-3.7-2.5s-1.8-2.3-2.3-3.8a15.098 15.098 0 0 1 0-9.7c.6-1.5 1.4-2.8 2.4-3.8 1-1.1 2.3-1.9 3.7-2.6 1.4-.6 3-.9 4.8-.9 1.9 0 3.6.4 5.1 1.1 1.4.7 2.6 1.8 3.6 3 .9 1.3 1.6 2.7 2 4.3.4 1.6.6 3.3.4 5.1H42.5c0 1.5.4 3.1 1.4 4.2zm5.8-11.5c-.6-.7-1.7-1.1-3-1.1-.8 0-1.5.1-2.1.4-.5.3-1 .6-1.3 1.1-.3.4-.6.9-.7 1.3-.1.5-.2.9-.2 1.3H51c-.2-1.3-.6-2.3-1.3-3zM39.9 17.4h14.2v4.3H39.9z"/></g></svg>