<!--Generator: Adobe Illustrator 16.0.3, SVG Export Plug-In . SVG Version: 6.00 Build 0)--><svg xmlns="http://www.w3.org/2000/svg" width="64" height="64"><g><g fill="none" stroke="#000" stroke-linecap="round" stroke-linejoin="round" stroke-miterlimit="10"><path d="M31.7 30.7c.2-.5.9-1.8 2.4-2.8.5-.3 2-1.2 4.1-1.1 2.4.1 3.9 1.5 4.3 2 2.3 2.3 2 5.4 1.9 6-.1.8-.4 2.6-5.1 7.6-3.9 4.1-7.7 6.1-7.7 6.1s-3.9-2.3-8-6.3c-3.3-3.2-4.7-5.2-4.8-7.3-.2-3 1.6-7.4 5.5-8.1 2.6-.5 5.5 1.1 7.4 3.9z"/><path d="M7.1 18.3H57c.2 0 .4.2.4.4v35.6c0 .2-.2.4-.4.4H7.1c-.2 0-.4-.2-.4-.4V18.6c0-.2.2-.3.4-.3z"/><path d="M54 18.3v-4c0-.2-.2-.4-.4-.4H34.1c-.1 0-.2 0-.3-.1l-3.9-4.2c-.1-.1-.2-.1-.3-.1H10.4c-.2 0-.4.2-.4.4v8.4"/></g></g></svg>