<!--Generator: Adobe Illustrator 16.0.3, SVG Export Plug-In . SVG Version: 6.00 Build 0)--><svg xmlns="http://www.w3.org/2000/svg" width="64" height="64"><g fill="none" stroke="#000" stroke-linecap="round" stroke-linejoin="round" stroke-miterlimit="10"><path d="M50.3 9.2H13.7c-2.5 0-4.5 2-4.5 4.5v36.7c0 2.5 2 4.5 4.5 4.5h36.7c2.5 0 4.5-2 4.5-4.5V13.7c-.1-2.5-2.1-4.5-4.6-4.5z"/><path d="M27.9 48.3h-10c-1.2 0-2.2-1-2.2-2.2V17.9c0-1.2 1-2.2 2.2-2.2h10c1.2 0 2.2 1 2.2 2.2v28.3c-.1 1.1-1 2.1-2.2 2.1zM46.1 36.6h-10c-1.2 0-2.2-1-2.2-2.2V17.9c0-1.2 1-2.2 2.2-2.2h10c1.2 0 2.2 1 2.2 2.2v16.6c0 1.1-1 2.1-2.2 2.1z"/></g></svg>