<!--Generator: Adobe Illustrator 16.0.3, SVG Export Plug-In . SVG Version: 6.00 Build 0)--><svg xmlns="http://www.w3.org/2000/svg" width="64" height="64"><g clip-rule="evenodd" fill="none"><path d="M29.1 7.4C17.2 8.7 7.6 18.5 6.7 30.5c-1 12.2 6.6 22.7 17.3 26.3 1.3.2 1.7-.6 1.7-1.2v-4.3c-7.1 1.5-8.6-3.4-8.6-3.4-1.2-2.9-2.8-3.7-2.8-3.7-2.3-1.6.2-1.5.2-1.5 2.6.2 3.9 2.6 3.9 2.6 2.3 3.9 6 2.8 7.4 2.1.2-1.6.9-2.8 1.6-3.4-5.6-.6-11.6-2.8-11.6-12.6 0-2.8 1-5 2.6-6.8-.3-.6-1.1-3.2.2-6.7 0 0 2.1-.7 7 2.6 2-.6 4.2-.8 6.4-.9 2.2 0 4.3.3 6.4.9 4.9-3.3 7-2.6 7-2.6 1.4 3.5.5 6.1.3 6.7 1.6 1.8 2.6 4 2.6 6.8 0 9.8-5.9 11.9-11.6 12.6.9.8 1.7 2.3 1.7 4.7v7c0 .7.5 1.5 1.7 1.2C50.2 53.5 57.5 44 57.5 32.8c-.1-15.2-13-27.1-28.4-25.4z"/><path d="M29.1 7.4C17.2 8.7 7.6 18.5 6.7 30.5c-1 12.2 6.6 22.7 17.3 26.3 1.3.2 1.7-.6 1.7-1.2v-4.3c-7.1 1.5-8.6-3.4-8.6-3.4-1.2-2.9-2.8-3.7-2.8-3.7-2.3-1.6.2-1.5.2-1.5 2.6.2 3.9 2.6 3.9 2.6 2.3 3.9 6 2.8 7.4 2.1.2-1.6.9-2.8 1.6-3.4-5.6-.6-11.6-2.8-11.6-12.6 0-2.8 1-5 2.6-6.8-.3-.6-1.1-3.2.2-6.7 0 0 2.1-.7 7 2.6 2-.6 4.2-.8 6.4-.9 2.2 0 4.3.3 6.4.9 4.9-3.3 7-2.6 7-2.6 1.4 3.5.5 6.1.3 6.7 1.6 1.8 2.6 4 2.6 6.8 0 9.8-5.9 11.9-11.6 12.6.9.8 1.7 2.3 1.7 4.7v7c0 .7.5 1.5 1.7 1.2C50.2 53.5 57.5 44 57.5 32.8c-.1-15.2-13-27.1-28.4-25.4z"/><path stroke="#000" stroke-linecap="round" stroke-linejoin="round" stroke-miterlimit="10" d="M29.1 7.4C17.2 8.7 7.6 18.5 6.7 30.5c-1 12.2 6.6 22.7 17.3 26.3 1.3.2 1.7-.6 1.7-1.2v-4.3c-7.1 1.5-8.6-3.4-8.6-3.4-1.2-2.9-2.8-3.7-2.8-3.7-2.3-1.6.2-1.5.2-1.5 2.6.2 3.9 2.6 3.9 2.6 2.3 3.9 6 2.8 7.4 2.1.2-1.6.9-2.8 1.6-3.4-5.6-.6-11.6-2.8-11.6-12.6 0-2.8 1-5 2.6-6.8-.3-.6-1.1-3.2.2-6.7 0 0 2.1-.7 7 2.6 2-.6 4.2-.8 6.4-.9 2.2 0 4.3.3 6.4.9 4.9-3.3 7-2.6 7-2.6 1.4 3.5.5 6.1.3 6.7 1.6 1.8 2.6 4 2.6 6.8 0 9.8-5.9 11.9-11.6 12.6.9.8 1.7 2.3 1.7 4.7v7c0 .7.5 1.5 1.7 1.2C50.2 53.5 57.5 44 57.5 32.8c-.1-15.2-13-27.1-28.4-25.4z"/></g></svg>