<!--Generator: Adobe Illustrator 16.0.3, SVG Export Plug-In . SVG Version: 6.00 Build 0)--><svg xmlns="http://www.w3.org/2000/svg" width="64" height="64"><g fill="none" stroke="#000" stroke-linecap="round" stroke-linejoin="round" stroke-miterlimit="10"><path d="M41.3 56.8H54c1.5 0 2.7-1.2 2.7-2.7v0V10c0-1.5-1.2-2.7-2.7-2.7H10c-1.5 0-2.7 1.2-2.7 2.7v44c0 1.5 1.2 2.7 2.7 2.7H41.3z"/><path d="M17.2 27.1h7v22.5h-7V27.1zM20.7 16c2.2 0 4 1.8 4 4s-1.8 4-4 4-4.1-1.8-4.1-4 1.9-4 4.1-4M28.6 27.1h6.7v3.1h.1c.9-1.8 3.2-3.6 6.6-3.6 7.1 0 8.4 4.7 8.4 10.7v12.3h-7V38.7c0-2.6 0-6-3.6-6s-4.2 2.8-4.2 5.8v11.1h-7V27.1z"/></g></svg>