<!--Generator: Adobe Illustrator 16.0.3, SVG Export Plug-In . SVG Version: 6.00 Build 0)--><svg xmlns="http://www.w3.org/2000/svg" width="64" height="64"><path fill="none" stroke="#000" stroke-linecap="round" stroke-linejoin="round" stroke-miterlimit="10" d="M7.3 43.5c7.4 4.3 14.9 6.5 23.6 6.5 5.8 0 11.4-1 17-3.1.9-.3 1.8-.9 2.3-.1.3.4.3 1-.1 1.3-5.5 4-13.1 6.1-19.7 6.1-9.4 0-17.7-3.5-24.1-9.2-.5-.5.4-1.9 1-1.5zM44.4 34.4c-1.6-2.2-1.7-2.4-1.7-4.8 0-10.1.5-14-2.6-17.2-2.9-2.6-6.6-2.6-9-2.6-5.1.3-9.6 2.6-10.6 8-.1.6.1.9.7 1.1l5.1.6c.5-.1.8-.5.9-1.1.5-2.3 2.7-3.6 3.9-3.6 3.8 0 4.3 2.9 4.3 6.6-3 .2-7.2.5-10.2 1.8-3.4 1.4-5.6 4.4-5.6 8.5 0 5.3 3.4 8.1 7.8 8.1 3.7 0 5.8-.8 8.6-3.8 1.4 1.7.8 1.6 3 3.5.5.2.9.2 1.3-.1.2-.2 1.5-1.3 4-3.5.4-.5.4-1 .1-1.5zM33.9 32c-1.3 2.4-4.3 3.4-5.9 1.4-.6-.7-.9-1.6-.9-2.8 0-2.5 1.5-4.2 4.1-4.9.9-.2 1.7-.4 4.1-.4.1 3.2-.7 5.5-1.4 6.7z"/><path d="M54 40.2c.3 0 .6 0 .8.1 1.5.1 2.5.4 2.8.8.7 1-.3 4.4-.8 5.5-.4 1-2.2 4.1-3.2 4.1-.3 0-.5-.2-.4-.6 2.8-6.5 2.4-7.7-.5-7.7-.7 0-1.7.1-2.7.2-.4.1-1.6.3-2.3.3-.4 0-.6-.1-.5-.3 0-.7 2.2-1.6 2.8-1.7.9-.4 2.8-.7 4-.7m0-1c-1.4 0-3.3.4-4.2.6 0 0-3.3.9-3.6 2.5-.1.3 0 .6.1.9.4.6 1.1.6 1.4.6.6 0 1.4-.1 2-.2.2 0 .4-.1.5-.1h.1c1-.1 1.8-.2 2.5-.2 1 0 1.3.2 1.3.3.2.4.1 1.7-1.7 6.1-.2.5-.2 1 .1 1.4.3.4.7.6 1.2.6 2 0 4.1-4.7 4.1-4.8 0 0 1.8-4.7.7-6.5 0 0 0-.1-.1-.1-.5-.6-1.5-1-3.4-1.1h-1z"/></svg>