<!--Generator: Adobe Illustrator 16.0.3, SVG Export Plug-In . SVG Version: 6.00 Build 0)--><svg xmlns="http://www.w3.org/2000/svg" width="64" height="64"><g fill="none" stroke="#000" stroke-linejoin="round" stroke-miterlimit="10"><path stroke-linecap="round" d="M53.3 20.3c-.2.7.2.9.9 1.2 4.3 1.9 5.4 7.4 2.2 10.9-.2.2-.5.4-.6.6 0 .2.2.5.4.8 3.4 6.6.2 14.6-6.8 16.9-1.3.4-2.5.6-3.8.6-.2 0-.3.1-.4.3-1.7 5.7-8.4 7.7-13 4-.2-.2-.3-.1-.5 0-1.1.9-2.4 1.5-3.8 1.8-5.4 1.3-10.9-1.6-12.8-6.8-.4-1-.6-2.1-.7-3.2 0-.2-.1-.3-.3-.4-3.2-.7-5.5-2.4-7.1-5.2C4.9 38 5.6 33.1 8.7 30l.1-.1c.2-.1.2-.3.1-.6-3.1-5.4-.2-12.3 5.9-13.7.7-.2 1.1-.5 1.4-1.1 2.2-4.5 5.8-7.2 10.7-8 3.3-.5 6.4.2 9.3 1.9.3.2.5.2.8.1 7.3-2.3 14.7 2.2 16.1 9.5.1.7.2 1.4.2 2.3z"/><path d="M44.9 45.2c.7 0 1.5 0 2.2-.4.7-.3 1-.8 1-1.5 0-.8-.3-1.3-1.1-1.6-.4-.2-.8-.2-1.3-.3-.6-.1-1.3-.2-1.9-.4-.8-.3-1.2-.8-1.2-1.7 0-.7.1-1.3.3-2 .5-1.9 1.3-3.6 2-5.4.9-1.9 1.8-3.9 2.4-5.9.3-.9.5-1.8.3-2.7-.3-1.8-1.3-3-3.1-3.3-.8-.2-1.6-.1-2.4-.1-.5 0-.9.2-1.3.4-.9.5-1.1.6-2-.3-.3-.3-.6-.5-.8-.7-.3-.2-.6-.4-1-.5-1.2-.2-2.2-.1-3.2.7-.5.4-1 1-1.6 1.3-.6.4-1.1.4-1.7.1-.9-.4-1.8-.8-2.6-1.2-.4-.2-.9-.3-1.3-.3-2.4.1-4.2 1.2-5.2 3.3l-.6 1.5c-1.7 4.6-3.1 9.2-4.5 13.9-.5 1.6-.1 3.2 1.2 4.4 1 .9 2.1 1.2 3.4 1.3 1.6 0 2.7-.8 3.4-2.3l.3-.6c1.4-3.4 2.7-6.8 4.1-10.2.4-1 .8-2.1 1.3-3.1.2-.6.9-1 1.6-.9.5.1 1 .5 1.1 1.2.1.4 0 .9-.1 1.3-.7 1.9-1.5 3.8-2.2 5.7-.4 1.1-.9 2.2-1.3 3.3-.4 1.1.1 2.1 1.1 2.5.6.2 1.2.2 1.8.1 1-.3 1.6-.9 2-1.8 1.3-2.5 2.6-5 3.8-7.6.8-1.5 1.5-3 2.3-4.5.2-.4.5-.8.9-1 .4-.3.8-.3 1.3-.1.4.2.4.6.4 1s-.2.8-.3 1.1c-1 2.2-2.1 4.4-3.1 6.6-.5 1.1-1.1 2.2-1.4 3.4-.8 2.8 1 5.8 3.8 6.7.7.4 1.9.6 3.2.6z"/></g></svg>