<!--Generator: Adobe Illustrator 16.0.3, SVG Export Plug-In . SVG Version: 6.00 Build 0)--><svg xmlns="http://www.w3.org/2000/svg" width="64" height="64"><g fill="none" stroke="#000" stroke-linejoin="round" stroke-miterlimit="10"><path stroke-linecap="round" d="M4 33.8c.7-2.9 9.5-2.6 26.2-2.6 19.9 0 28.9-.4 29.8 3 .2.7 0 1.2-.1 1.4-1.4 3.9-11.4 2.4-30 2.3-14.9-.1-24.4.9-25.8-3-.1-.2-.3-.6-.1-1.1z"/><path stroke-linecap="round" d="M7.6 31.8c.5-1.6 1.7-5.1 2.9-8 1.7-4.6 2.6-6.8 3.3-7.7 2.5-2.9 5.8-1.9 18.2-2.1 11.3-.2 14.9-1.1 18.5 1.8 1.6 1.3 2.5 2.9 3.9 5.2 2.6 4.5 3.7 8.6 4.2 11.4"/><path d="M6.8 37.1c.5 1.6 1.7 5.4 2.8 8.3 1.7 4.6 2.6 6.8 3.3 7.7 2.5 2.9 5.8 1.9 18.2 2.1 11.3.2 14.9 1.1 18.5-1.8 1.6-1.3 2.5-2.9 3.9-5.2 2.6-4.5 3.5-7.8 4-10.5"/><path stroke-linecap="round" d="M26.3 13.7c-.2-.8-.2-3.1.6-4.2.4-.5 1.1-1 5.6-1 5.3-.1 6 .5 6.3.9 1 1.1 1 3.4.8 4.3M17.5 27.3c.8-2.8 1.5-5.5 2.3-8.3M24.7 27.3l1-8.3M30.3 27.3l.5-8.3M35.7 27.3L36 19M41.8 27.3l-.9-8.3M48.3 27.2L46.2 19M16.6 42.2c.8 2.8 1.5 5.5 2.3 8.3M23.8 42.2l1 8.3M29.4 42.2l.5 8.3M34.8 42.2l.3 8.3M40.9 42.2l-.9 8.3M47.5 42.2l-2.2 8.3"/></g></svg>