<!--Generator: Adobe Illustrator 16.0.3, SVG Export Plug-In . SVG Version: 6.00 Build 0)--><svg xmlns="http://www.w3.org/2000/svg" width="64" height="64"><g><g fill="none" stroke="#000" stroke-linecap="round" stroke-linejoin="round" stroke-miterlimit="10"><path d="M16.9 30.4V4.9h26.7l11.5 11.6v42.6H16.9v-8"/><path d="M55.1 17.7H42.4V4.9M8.9 30.4h36.6v20.7H8.9z"/><path d="M24.4 41.5c1.8.8 4 .2 4.8-1.1.5-.8.6-1.8.3-2.7-.7-1.7-2.8-2.4-5.1-1.8v10M38.9 36.4c-2.7-1.2-5.8.4-6.6 3.3-.7 2.8 1 5.4 3.3 6.2 1.6.5 3-.1 3.5-.3v-4.2M37.5 41.2h1.6M20.1 35.9l-.1 7.2c0 .3-.1.6-.2.9-.3.8-1.3 2-4 1.9"/></g></g></svg>