<!--Generator: Adobe Illustrator 16.0.3, SVG Export Plug-In . SVG Version: 6.00 Build 0)--><svg xmlns="http://www.w3.org/2000/svg" width="64" height="64"><g><g fill="none" stroke="#000" stroke-linecap="round" stroke-linejoin="round" stroke-miterlimit="10"><path d="M48.1 13.6c1.5 0 2.8 1.3 2.8 2.9v2.4c0 1.5-1.2 2.8-2.8 2.8H15.9c-1.5 0-2.8-1.2-2.8-2.8v-2.4c0-1.5 1.2-2.9 2.8-2.9h32.2z"/><path d="M27 13.4c.2.3.6.1 5.7.1 5.7 0 6.1.2 6.3-.1.7-1.4-2.3-5.8-6-5.8-3.8.1-6.8 4.4-6 5.8zM48 56.3H16.1l.2-34.7h31.6zM32.5 30.5v17.9M40.4 30.5v17.9M24.6 30.5v17.9"/></g></g></svg>