<!--Generator: Adobe Illustrator 16.0.3, SVG Export Plug-In . SVG Version: 6.00 Build 0)--><svg xmlns="http://www.w3.org/2000/svg" width="64" height="64"><g><path fill="none" stroke="#000" stroke-linecap="round" stroke-linejoin="round" stroke-miterlimit="10" d="M31.3 39.2v3.2c0 .5-.4 1-1 1h-3.9c-.7 0-1.3.5-1.5 1.1-.8 2.9-1.4 4.8-1.7 5.6 0 .2-.2.1-.3 0-.6-.8-2.9-3.4-5.1-5.9-.4-.5-1.2-.8-1.8-.8H2.7c-.5 0-1-.4-1-1V23.2c0-.5.4-1 1-1h20.2v16.9h8.4z"/><path fill="none" stroke="#000" stroke-linecap="round" stroke-linejoin="round" stroke-miterlimit="10" d="M22.8 22.9v-7.6c0-.9.7-1.6 1.6-1.6h36.3c.9 0 1.6.7 1.6 1.6v22.2c0 .9-.7 1.6-1.6 1.6H47.2c-.6 0-1.4.3-1.8.7-2.9 2.8-6.1 6.9-7 7.8-.1.1-.3.1-.3 0-.5-.9-1.3-3.6-2.5-7.3-.2-.6-.7-1.2-1.4-1.2H22.9V21.5M29.2 20.8H56M29.2 32.1H56M29.2 26.5H56"/></g></svg>