<!--Generator: Adobe Illustrator 16.0.3, SVG Export Plug-In . SVG Version: 6.00 Build 0)--><svg xmlns="http://www.w3.org/2000/svg" width="64" height="64"><g><g fill="none" stroke="#000" stroke-linecap="round" stroke-linejoin="round" stroke-miterlimit="10"><path d="M39.2 50.9c-4.5 3.5-7.8 5.3-7.8 5.3s-8.7-5.2-17.8-14C6.1 34.9 3.1 30.6 2.8 26 2.3 19.3 6.3 9.6 14.9 8.1c5.8-1 12.4 2.5 16.7 8.6.5-1.2 1.9-4 5.3-6.2 1-.7 4.4-2.7 9.1-2.4 5.3.3 8.6 3.3 9.6 4.4 5.1 5.1 4.4 12 4.2 13.3-.1.9-.3 2.3-1.7 4.8"/><path d="M18.4 37.2h9.8l1.5 2 3.4-6.6 2 4.6h2.6l3.7-16.8 3.7 29.8 3.4-13h12.7"/></g></g></svg>