<!--Generator: Adobe Illustrator 16.0.3, SVG Export Plug-In . SVG Version: 6.00 Build 0)--><svg xmlns="http://www.w3.org/2000/svg" width="64" height="64"><g><g fill="none" stroke="#000" stroke-linecap="round" stroke-linejoin="round" stroke-miterlimit="10"><circle cx="32" cy="32" r="25.1"/><path d="M52.5 31c-1.1-1.4-3.9-1.4-5-3.8-.1-.3-.6-1.4-1.4-2.8-.6-.9-.9-1.2-1.2-1.4-.5-.3-.9-.4-2.5-.6-2.1-.2-2-.1-2.5-.2-1.8-.5-2-1.9-3.3-2.4-1.7-.6-3.6.7-5.1 1.8-1 .7-5.7 4-5.6 8.8 0 .7.1 2.6 1.4 4 1.2 1.2 2.8 1.4 3.2 1.5.9.1 1 0 3.2 0 1.9 0 2.2.1 2.4.2 1.2.6 1.6 1.9 1.9 2.9.1.5.5 1.7.3 5.6-.1 2.2-.3 3.4.1 5.2.3 1.2.4 1.7.7 1.9C41.8 53 55.8 35.3 52.5 31zM8.4 24.4c8 .3 7.7 7.4 7.4 8.6-.1.4-.2.3-1.6 3.1-1 2-1.2 1.9-1.1 2.7.1 1.1 1.3 6.4-2 6.8"/></g></g></svg>