<!--Generator: Adobe Illustrator 16.0.3, SVG Export Plug-In . SVG Version: 6.00 Build 0)--><svg xmlns="http://www.w3.org/2000/svg" width="64" height="64"><g fill="none" stroke="#000" stroke-linecap="round" stroke-linejoin="round" stroke-miterlimit="10"><path d="M57.9 19c-.6-2.3-2.5-4.2-4.8-4.8-4.2-1.1-21.1-1.1-21.1-1.1s-16.9 0-21.1 1.1c-2.3.6-4.2 2.5-4.8 4.8C5 23.2 5 32 5 32s0 8.8 1.1 13c.6 2.3 2.5 4.2 4.8 4.8 4.2 1.1 21.1 1.1 21.1 1.1s16.9 0 21.1-1.1c2.3-.6 4.2-2.5 4.8-4.8C59 40.8 59 32 59 32s0-8.8-1.1-13z"/><path d="M27.4 39.8l12.9-7.4c.3-.1.3-.5 0-.7l-12.9-7.4c-.3-.1-.6 0-.6.3v14.9c0 .2.4.4.6.3z"/></g></svg>