<!--Generator: Adobe Illustrator 16.0.3, SVG Export Plug-In . SVG Version: 6.00 Build 0)--><svg xmlns="http://www.w3.org/2000/svg" width="64" height="64"><g><g fill="none" stroke="#000" stroke-linecap="round" stroke-linejoin="round" stroke-miterlimit="10"><path d="M23.9 47.6H11.8s-7.8-.8-7.6-9.9c.2-9.1 9.6-9.1 9.6-9.1s1.3-9.7 9.8-11.8c8.5-2.1 13.7 5.2 13.7 5.2s5.5-2.7 11.1.5c5.5 3.1 5 9.6 5 9.6s6.3.4 6.6 8.2-6.6 7.4-6.6 7.4h-12M32.1 41.4l-.2-13.7"/><path d="M26.9 41.4h10.3c.1 0 .2.2.1.3L32 47.6c-.1.1-.2.1-.2 0l-5.1-5.8c-.1-.2 0-.4.2-.4z"/></g></g></svg>