<!--Generator: Adobe Illustrator 16.0.3, SVG Export Plug-In . SVG Version: 6.00 Build 0)--><svg xmlns="http://www.w3.org/2000/svg" width="64" height="64"><g><g fill="none" stroke="#000" stroke-linecap="round" stroke-linejoin="round" stroke-miterlimit="10"><path d="M8.7 13.4L6.1 33.5c-.1.8.4 1.5 1.2 1.6L45.2 40c.8.1 1.5-.4 1.6-1.2l2.6-20.1c.1-.8-.4-1.5-1.2-1.6l-37.9-4.9c-.8-.1-1.5.4-1.6 1.2z"/><path d="M57.9 23.9l-1.6 12c-.1.7-.8 1-1.4.8l-6.8-2.8c-.4-.2-.7-.6-.6-1.1l1.1-8.2c.1-.4.4-.8.9-.9l7.3-1c.6-.1 1.2.5 1.1 1.2zM7.5 22.5l29.4 3.8 11.6-8.9M25.5 37.6L23 50.3c-.2.9-1 1.5-1.9 1.5H6.9"/><path d="M6.9 46.7h9.9c.9 0 1.8-.7 1.9-1.6l1.2-7.7"/></g></g></svg>