<!--Generator: Adobe Illustrator 16.0.3, SVG Export Plug-In . SVG Version: 6.00 Build 0)--><svg xmlns="http://www.w3.org/2000/svg" width="64" height="64"><path fill="none" stroke="#000" stroke-linecap="round" stroke-linejoin="round" stroke-miterlimit="10" d="M56.4 24.7C50.9 6.4 43 2.1 24.7 7.6 6.4 13.1 2.1 21 7.6 39.3 13.1 57.6 21 61.9 39.3 56.4 57.6 50.9 61.9 43 56.4 24.7z"/><path d="M30.1 47.5c-.9 0-1.7-.6-1.9-1.4l-1.3-3.9-3.9 1.2c-.2 0-.4.1-.5.1-1 0-1.7-.6-2-1.4-.2-.5-.1-1.1.1-1.5.2-.5.6-.8 1.2-1l3.8-1.3-2.6-7.5-3.8 1.3c-.2 0-.4.1-.5.1-1 0-1.7-.6-2-1.4-.2-.5-.1-1.1.1-1.5.2-.5.6-.8 1.2-1l3.8-1.3-1.3-3.9c-.2-.5-.1-1.1.1-1.5.2-.5.7-.8 1.2-1 .2-.1.4-.1.6-.1.9 0 1.7.6 1.9 1.4l1.3 3.9 7.8-2.6-1.4-4c-.3-1.1.2-2.2 1.3-2.5.2-.1.4-.1.6-.1.9 0 1.7.6 1.9 1.4l1.3 3.9 3.8-1.3c.2-.1.4-.1.6-.1.9 0 1.7.5 1.9 1.4.3 1.1-.2 2.2-1.3 2.6l-3.8 1.3 2.5 7.5 3.8-1.3c.2-.1.4-.1.6-.1.9 0 1.7.5 1.9 1.4.2.5.1 1.1-.1 1.6s-.6.8-1.2 1L42.3 37l1.3 3.9c.2.5.1 1.1-.1 1.5-.2.5-.6.8-1.2 1-.2.1-.4.1-.5.1-1 0-1.7-.6-2-1.4l-1.3-3.9-7.8 2.6 1.3 3.9c.3 1.1-.2 2.2-1.3 2.5-.2.2-.4.3-.6.3zM26.7 29l2.7 8.1 7.8-2.6-2.7-8.1-7.8 2.6z"/></svg>