<!--Generator: Adobe Illustrator 16.0.3, SVG Export Plug-In . SVG Version: 6.00 Build 0)--><svg xmlns="http://www.w3.org/2000/svg" width="64" height="64"><path fill="none" stroke="#000" stroke-linecap="round" stroke-linejoin="round" stroke-miterlimit="10" d="M39.8 43.8c-.6-3.7-1.8-6.8-3.3-9.4-.2 4.6-1.3 9.4-4.5 13.9-1.5 2.2-4.6 2.7-6.7 1.2-2.2-1.5-2.7-4.6-1.2-6.7 2.9-4.1 4.3-11.1 0-21.5-1.2-2.6-.1-5.4 2.2-6.5 1.6-.8 3.5-.5 4.8.2.4.2 5 2.8 9.6 8.2 1.3 4.7 1.9 12.3-.9 20.6zm10-32.8c-1.3-2.5-4.4-3.5-6.8-2.2-2.5 1.3-3.4 4.4-2.2 6.8.1.2 7.8 15.3-.3 32.9-1.2 2.5-.1 5.6 2.5 6.7 2.5 1.2 5.6.1 6.7-2.5 10.2-21.9.5-40.9.1-41.7zM22.9 24.4c-3.1-2.8-5.9-4.3-6.1-4.5-2.3-1.3-5.3-.4-6.6 1.9s-.4 5.2 1.9 6.5c.1.1 8.1 4.4 10.5 12.3 3.3-5.3 1.6-12.6.3-16.2z"/></svg>