<!--Generator: Adobe Illustrator 16.0.3, SVG Export Plug-In . SVG Version: 6.00 Build 0)--><svg xmlns="http://www.w3.org/2000/svg" width="64" height="64"><g><g fill="none" stroke="#000" stroke-linecap="round" stroke-linejoin="round" stroke-miterlimit="10"><path d="M45 20.7l10.5-6c.1-.1.3 0 .3.2l-2 9.1c0 .1-.1.2-.2.1L45 21.2c-.2 0-.3-.3 0-.5zM19.4 40.6L8.3 45.3c-.2.1-.3-.1-.3-.2l3-8.8c0-.1.1-.1.2-.1l8.2 3.9c.3.1.3.4 0 .5zM33.5 43.9c17.1-1 0-24.4 0-24.4s-17.1 24.4 0 24.4M37.5 34.6s.8 3.3-2.3 5.5"/><path d="M56 33.4C55.2 46.7 44.6 56.8 32.3 56c-8-.5-14.8-5.5-18.2-12.7M11.4 26.7C13.6 16 22.5 7.9 33.1 7.9c6.9 0 13.1 3.4 17.2 8.8"/></g></g></svg>