<!--Generator: Adobe Illustrator 16.0.3, SVG Export Plug-In . SVG Version: 6.00 Build 0)--><svg xmlns="http://www.w3.org/2000/svg" width="64" height="64"><path fill="none" stroke="#000" stroke-linecap="round" stroke-linejoin="round" stroke-miterlimit="10" d="M52.1 28.5c-1.1-.6-1.7-2.6-1.1-3.7l2.7-4.8c0-.1-.1-.1-.1-.2-1.6-1.8-3.3-3.6-4.9-5.4-.7-.7-1.2-1.9-2-2.1-.8-.2-1.8.5-2.7.9-.5.2-1 .3-1.4.6-1.3.8-2.6.6-3.8-.2-.3-.2-.6-.6-.7-1-.6-1.4-1.1-2.8-1.6-4.2-.2-.6-.5-.8-1.2-.8-1.7.1-3.5.1-5.2.2-.9 0-1.7.1-2.6.1-.3 0-1.9-.2-2 .3-.5 1.9-.9 3.9-1.7 5.7-.3.7-1.8 1.5-2.6 1.4-2-.3-3.8-1.1-5.7-1.7-.1 0-.1.1-.2.1-1.1 1.5-2.1 3.1-3.2 4.6-.8 1.1-1.5 2.2-2.4 3.3-.4.5-.4.9 0 1.4.9 1.2 1.7 2.4 2.6 3.6.7 1 .4 3-.6 3.8-1.3.9-2.5 1.9-3.8 2.7-.6.4-.6.7-.5 1.3.8 2.9 1.6 5.7 2.4 8.6 0 .2.1.3.1.5 0 .1 0 .1.1.2 1.8.1 3.6.3 5.4.4.9.1 1.6.6 2.1 1.3.6.9.5 2.1.4 3.2 0 .7-.1 1.3-.1 2 0 .3-.1.6-.1 1 0 .2-.2.7 0 .9.1.1.4.2.6.3.2.1.5.2.7.3 1.7.7 3.5 1.5 5.2 2.2.9.4 1.9.8 2.8 1.1.2.1.7-.1 1-.3 1.1-1.1 2.2-2.4 3.3-3.5.8-.9 2.8-1 3.7-.2 1.4 1.2 2.8 2.5 4.1 3.7 3.1-1.7 6.2-3.3 9.2-5-.3-1.8-.6-3.7-.8-5.5-.2-1.2 1-2.8 2.2-3 1.5-.3 3.1-.5 4.6-.7.6-.1.9-.3 1-.9.5-3.2 1.1-6.4 1.7-9.7-1.8-1.1-3.4-1.9-4.9-2.8zm-4.8-3.1c0 1.3-.2 3.4-1.1 5.8L42 43.4c-.2.7-.8 1.3-1.5 1.6-.5.3-1.1.3-1.7.1-.6-.2-1.1-.8-1.5-1.5L34 34.3l-3.1 9.3c-.5 1.4-1.8 2.3-3.1 2.3-.3 0-.5 0-.8-.1-1.1-.3-2-1.1-2.3-2.1l-6.8-18.6c-.9 0-1.6-.8-1.6-1.7 0-.9.7-1.7 1.7-1.7h.1c1.8.4 3.5.4 5.3 0h.1c.9 0 1.7.7 1.7 1.7 0 .9-.7 1.6-1.6 1.7h-.1l5 13.9 2.7-8.1-2.2-5.7c-.2 0-.4-.1-.6-.1-.9 0-1.6-.8-1.6-1.7 0-.9.7-1.7 1.7-1.7h.1c2.1.4 4.3.4 6.4 0h.1c.9 0 1.7.7 1.7 1.7 0 .9-.7 1.6-1.6 1.7-.1 0-.3 0-.4.1l4.8 13.4 1.8-5.5s0 0 0 0c.3-.9.4-1.6.4-2.2 0-1.5-.4-2.2-.8-3.2l-.2-.4-.6-1.2c-.6-1-1.1-1.9-1.1-2.9 0-1.9 1.4-3.3 3.3-3.3 3.1 0 3.9.6 4.6 2.4.3.7.4 1.4.4 2.2v.9z"/></svg>