<!--Generator: Adobe Illustrator 16.0.3, SVG Export Plug-In . SVG Version: 6.00 Build 0)--><svg xmlns="http://www.w3.org/2000/svg" width="64" height="64"><g><g fill="none" stroke="#000" stroke-linecap="round" stroke-linejoin="round" stroke-miterlimit="10"><path d="M33 23.6c-.1-.1.4-.8.4-.9.4-.7.9-1.4 1.4-2 1.8-1.8 4.5-2.4 6.7-1.1.5.3 1 .7 1.3 1.2 1.2 2.3-1.3 5.5-2.7 7.3-.6.8-7.1 8.2-7.2 8-2.6-2.6-5.3-5.1-7.9-7.8-1.4-1.5-3.5-3.5-3.5-5.7 0-.5.2-1 .4-1.4.4-.7 1-1.2 1.6-1.7 3.6-2.5 7.6 1.2 9.5 4.1z"/><path d="M38.8 41.2c-3.6 6.1-6.7 11.9-6.7 11.9s-3.5-5.5-7.1-11.9H6.7V10.9h50.6v30.4H38.8z"/></g></g></svg>