<!--Generator: Adobe Illustrator 16.0.3, SVG Export Plug-In . SVG Version: 6.00 Build 0)--><svg xmlns="http://www.w3.org/2000/svg" width="64" height="64"><g><g fill="none" stroke="#000" stroke-linecap="round" stroke-linejoin="round" stroke-miterlimit="10"><circle cx="32.2" cy="27.8" r="12.8"/><path d="M51.6 21.5L49 27.3c-.2.5-.2 1.1 0 1.6l2.5 5.9c.4 1-.1 2.2-1.1 2.5l-6 2.2c-.5.2-.9.6-1.1 1.1L41 46.5c-.4 1-1.6 1.5-2.6 1l-5.8-2.7c-.5-.2-1.1-.2-1.6 0l-5.9 2.5c-1 .4-2.2-.1-2.5-1.1l-2.2-6c-.2-.5-.6-.9-1.1-1.1l-5.9-2.3c-1-.4-1.5-1.6-1-2.6l2.7-5.8c.2-.5.2-1.1 0-1.6l-2.5-5.9c-.4-1 .1-2.2 1.1-2.5l6-2.2c.5-.2.9-.6 1.1-1.1L23 9.3c.4-1 1.6-1.5 2.6-1l5.8 2.7c.5.2 1.1.2 1.6 0l5.9-2.5c1-.4 2.2.1 2.5 1.1l2.2 6c.2.5.6.9 1.1 1.1l5.9 2.3c1 .3 1.5 1.5 1 2.5z"/><path d="M20.6 41l-6.4 13.5 9.2 1.3L29 46M43.3 40.9l6.5 13.7-9.2 1.3-5.7-9.9"/></g></g></svg>