<!--Generator: Adobe Illustrator 16.0.3, SVG Export Plug-In . SVG Version: 6.00 Build 0)--><svg xmlns="http://www.w3.org/2000/svg" width="64" height="64"><g><g fill="none" stroke="#000" stroke-linecap="round" stroke-linejoin="round" stroke-miterlimit="10"><circle cx="32.1" cy="15" r="2.8"/><path d="M24.3 22c.2-1.2.1-3.1.3-4.3.4-2.5.8-4.1 2-6.2.8-1.6 1.7-3.2 2.8-4.6.8-1.1 2.3-3.1 3.8-2.4.6.2 1 .7 1.4 1.2 1.9 2.2 3.5 4.9 4.5 7.6.9 2.3 1.3 4.9.9 7.3-.1.4-.1.8-.1 1.2.1.8.8 1 1.3 1.4.7.5 1.2 1 1.6 1.8.3.8.5 1.6.6 2.5.3 2 1.3 9-2.7 7.6-1.1-.4-2.1-.9-3-1.7-.3-.2-.6-.5-1-.7-.8-.4-1.4.1-2 .7-.7.6-1.6 1.2-2.5 1.3-.8.1-1.6-.2-2.2-.6-.6-.4-.9-1.5-1.6-1.7-.4-.1-.8.1-1.1.3-1.4.9-2.5 1.7-4.2 2-.5.1-1 .1-1.5-.1-1.2-.5-1.2-2-1.2-3.1 0-1 .1-2 .3-3 .3-1.6.8-3.2 1.9-4.4.5-.7 1.5-1.2 1.7-2.1z"/><path d="M27.1 32.7l-5.7 7.7 5.7-1.2-2.8 10.1 5.5-4.5L32 59.7l2.3-15.1 5.2 4.9-3.2-11 6.1 4.4-6.1-10.3"/></g></g></svg>