<!--Generator: Adobe Illustrator 16.0.3, SVG Export Plug-In . SVG Version: 6.00 Build 0)--><svg xmlns="http://www.w3.org/2000/svg" width="64" height="64"><path fill="none" stroke="#000" stroke-linecap="round" stroke-linejoin="round" stroke-miterlimit="10" d="M28.8 57.7c-1.5-.1-2.8-1-3.2-2.3l-2.2-6.5-6.3 2.1c-.3.1-.6.2-.9.2-1.6-.1-2.9-1-3.3-2.3-.3-.8-.2-1.8.2-2.6s1.1-1.4 1.9-1.7l6.3-2.1L17.1 30l-6.3 2.1c-.3.1-.6.2-.9.2-1.6-.1-2.9-1-3.3-2.3-.3-.8-.2-1.8.2-2.6s1.1-1.4 1.9-1.7l6.3-2.1-2.2-6.5c-.3-.8-.2-1.8.2-2.6s1.1-1.4 1.9-1.7c.3-.1.7-.2 1.1-.2 1.5 0 2.7.9 3.2 2.3l2.2 6.5 12.9-4.3-2.2-6.5c-.6-1.8.4-3.7 2.1-4.2.3-.1.7-.2 1.1-.2 1.5 0 2.7.9 3.2 2.3l2.2 6.5 6.3-2.1c.3-.1.7-.2 1.1-.2 1.5 0 2.7.9 3.2 2.3.6 1.8-.4 3.7-2.1 4.2l-6.3 2.1 4 12.7 6.3-2.1c.3-.1.7-.2 1.1-.2 1.5 0 2.7.9 3.2 2.3.3.9.2 1.8-.2 2.6s-1.1 1.4-1.9 1.7l-6.4 2 2.2 6.5c.3.8.2 1.8-.2 2.6s-1.1 1.4-1.9 1.7c-.3.1-.6.2-.9.2-1.6-.1-2.9-1-3.4-2.3l-2.2-6.5-12.9 4.3 2.2 6.5c.6 1.8-.4 3.7-2.1 4.2-.3.1-.6.2-.9.2h-.1zm-4.9-30.3l4 12.3 11.8-4-4.1-12.4-11.7 4.1z"/></svg>