<!--Generator: Adobe Illustrator 16.0.3, SVG Export Plug-In . SVG Version: 6.00 Build 0)--><svg xmlns="http://www.w3.org/2000/svg" width="64" height="64"><g><g fill="none" stroke="#000" stroke-linejoin="round" stroke-miterlimit="10"><path stroke-linecap="round" d="M26.7 32.3l-1.5 2.4 1.9 4.7"/><circle stroke-linecap="round" cx="23.7" cy="45.4" r="1.3"/><path d="M34 15.7l5.3-8.8 12.1 7.5-5.6 8.7"/><path stroke-linecap="round" d="M39.5 12.3l2.5 1.5M43.7 14.9l2.5 1.5M22.9 56.5l-8.5-5.2c-1.8-1.1-2.4-3.5-1.3-5.3l17.4-28.5c1.1-1.8 3.5-2.4 5.3-1.3l8.5 5.2c1.8 1.1 2.4 3.5 1.3 5.3L28.2 55.2c-1.1 1.8-3.5 2.4-5.3 1.3z"/><path stroke-linecap="round" d="M24.4 43.9l4-6.7 5-8.2M35 34.5L33.5 37l-5.2.5"/><circle stroke-linecap="round" cx="27.6" cy="31.2" r="1.3"/><path stroke-linecap="round" d="M36.01 34.746l-1.71-1.037 1.036-1.71 1.71 1.036z" stroke-width="1.00005"/><path stroke-linecap="round" d="M35.7 25.3l-4.1 2.3 3.8 2.3z"/></g></g></svg>