<!--Generator: Adobe Illustrator 16.0.3, SVG Export Plug-In . SVG Version: 6.00 Build 0)--><svg xmlns="http://www.w3.org/2000/svg" width="64" height="64"><g><g fill="none" stroke="#000" stroke-linecap="round" stroke-linejoin="round" stroke-miterlimit="10"><path d="M14.8 17.5c4.4-4.7 10.4-7 16.4-7l.1 24.2c6 .1 11.9.1 17.9.2h3.4c.9 0 1.1 0 1.1 1 0 1.1-.3 2.4-.6 3.4-2.8 10.5-13.5 17.5-24.2 16.3-4.9-.5-9.6-2.7-13.2-6.1-4.5-4.3-6.9-10-7-15.8-.3-5.8 1.8-11.7 6.1-16.2z"/><path d="M36.9 8.3l-.2 20.2h18.7c0-5.2-1.3-11.1-5.7-15-3.7-3.3-8.2-5.2-12.8-5.2"/></g></g></svg>