<!--Generator: Adobe Illustrator 16.0.3, SVG Export Plug-In . SVG Version: 6.00 Build 0)--><svg xmlns="http://www.w3.org/2000/svg" width="64" height="64"><path fill="none" stroke="#000" stroke-linecap="round" stroke-linejoin="round" stroke-miterlimit="10" d="M24.5 56c2.4.7 4.9 1.1 7.5 1.1 13.9 0 25.2-11.3 25.2-25.2S45.9 6.8 32 6.8C18.1 6.8 6.8 18.1 6.8 32c0 10.7 6.6 19.8 16 23.4l1.7.6z"/><path fill="none" stroke="#000" stroke-linecap="round" stroke-linejoin="round" stroke-miterlimit="10" d="M45.6 27.4c0 7.3-4.6 13.3-11.1 13.3-2.2 0-4.2-1.1-4.9-2.5 0 0-1.1 4.1-1.3 5.1-.5 1.8-1.8 4.2-2.7 5.6-.5-.2-1-.3-1.5-.5v0c-.2-1.7-.3-4.3.1-6.1l2.5-10.6s-.6-1.3-.6-3.2c0-3 1.7-5.2 3.9-5.2 1.8 0 2.7 1.4 2.7 3 0 1.8-1.2 4.6-1.8 7.1-.5 2.1 1.1 3.9 3.2 3.9 3.8 0 6.7-4 6.7-9.8 0-5.1-3.7-8.7-8.9-8.7-6.1 0-9.6 4.5-9.6 9.3 0 1.8.7 3.8 1.6 4.9.2.2.2.4.2.6-.2.7-.5 2.1-.6 2.4-.1.4-.3.5-.7.3-2.8-1.3-4.4-5.2-4.4-8.3 0-6.7 4.9-12.9 14.1-12.9 7.4 0 13.1 5.3 13.1 12.3z"/></svg>