<!--Generator: Adobe Illustrator 16.0.3, SVG Export Plug-In . SVG Version: 6.00 Build 0)--><svg xmlns="http://www.w3.org/2000/svg" width="64" height="64"><g><path fill="none" stroke="#000" stroke-linecap="round" stroke-linejoin="round" stroke-miterlimit="10" d="M29 39.9c.3-.8 0-1.8-.8-2.3-3-1.8-6.4-3.1-8.2-4-.9-.4-1.7-.9-2.5-1.6-1.6-1.2-1.8-3.5-.4-5 .7-.8 1.6-1.4 2.3-2.1 1.7-1.5 3.3-3.1 5-4.6 3.9-3.7 7.8-7.4 11.7-11 .6-.5 1.1-1.2 2-1.2 1.1-.2 2.2.4 2.8 1.4 1 2-.4 4.3-1.2 6.1-1 2.1-2.1 4.2-3.4 6.2-.9 1.4-1.9 3.3-.1 4.4 1.2.8 2.5 1.4 3.7 2.1 1.7 1 3.5 2 5.2 2.9 1.2.6 2.5 1.3 2.7 2.7.3 1.6-1 2.6-2.1 3.6l-3.3 3.3c-3.5 3.2-6.9 6.6-10.5 9.8-1.2 1.1-2.3 2.3-3.4 3.5-1.2 1.4-3.3 2.5-5 1.1-2.5-2.1.7-6.5 1.7-8.7 1-2.1 3-4.4 3.8-6.6z"/></g></svg>