<!--Generator: Adobe Illustrator 16.0.3, SVG Export Plug-In . SVG Version: 6.00 Build 0)--><svg xmlns="http://www.w3.org/2000/svg" width="64" height="64"><g><path fill="none" stroke="#000" stroke-linecap="round" stroke-linejoin="round" stroke-miterlimit="10" d="M37.4 39.7c1.8 1.6 3 4.3 3 7 0 5-3.8 9-8.5 9s-8.5-4-8.5-9c0-2.7.5-5.4 2.3-7V14.2c0-2.6 1.2-5.2 3.8-5.8 1.2-.3 3.6-.5 5.3.4 1.8 1 2.6 3 2.6 5 .1 10.1 0 25.9 0 25.9z"/><path fill="none" stroke="#000" stroke-linejoin="round" stroke-miterlimit="10" d="M34.1 40.9c.1-2.9 0-6.1 0-7.9 0-3.8-1-4.4-2.2-4.4-1.2 0-2.2.6-2.2 4.4 0 1.8-.1 5 .1 7.9-2 .9-3.4 2.9-3.4 5.3 0 3.2 2.5 6.2 5.7 6.2 2.9 0 5.8-2.7 5.8-6.2-.2-2.5-1.6-4.5-3.8-5.3z"/></g></svg>