<!--Generator: Adobe Illustrator 16.0.3, SVG Export Plug-In . SVG Version: 6.00 Build 0)--><svg xmlns="http://www.w3.org/2000/svg" width="64" height="64"><g><g fill="none" stroke="#000" stroke-linecap="round" stroke-linejoin="round" stroke-miterlimit="10"><path d="M11.9 24.5h40.2v31.8H11.9zM41.5 24.4c0-4.4 0-12.2-9.2-12.2-8.7 0-8.5 7.7-8.5 12.2"/><path d="M46.2 24.4c0-6.5-.7-16.8-13.5-16.8-13.9 0-13.3 9.9-13.3 16.5M30.2 43.5s-.7 8.1 1.7 8.1 2.3-8.4 2.3-8.4 9.9-9.6-1.1-10.8c-.5-.1-1-.1-1.5 0-9.7 1.2-1.4 11.1-1.4 11.1z"/></g></g></svg>