<!--Generator: Adobe Illustrator 16.0.3, SVG Export Plug-In . SVG Version: 6.00 Build 0)--><svg xmlns="http://www.w3.org/2000/svg" width="64" height="64"><g><path fill="none" stroke="#000" stroke-linecap="round" stroke-linejoin="round" stroke-miterlimit="10" d="M19.3 30.5v12.4c-.2 1.1-.8 1.6-1.8 1.6H14l-1 5.8h9.7v8.1h4.9v-8h3.9v8h4.9v-8.1c1.7-.1 3.3-.2 4.6-.5 1.3-.2 2.6-.6 3.8-1.1 1.2-.5 2.2-1.1 3.1-1.9.8-.7 1.5-1.7 2-2.8.5-1.1.9-2.5 1-4 .3-2.9-.2-5.2-1.4-6.8h0c-1.2-1.6-3.1-2.7-5.5-3.3 3.1-1.6 4.5-4.3 4.2-8.2-.1-1.4-.5-2.6-1.2-3.6-.6-1-1.5-1.8-2.6-2.5-1.1-.6-2.3-1.1-3.6-1.4-1.3-.3-2.8-.6-4.4-.7v-8h-4.9v7.8c-.8 0-2.1 0-3.9.1V5.6h-4.9v8h-9.8v5.2h3.5c1.6 0 2.5.7 2.8 2.2v9.5zm8.4-11.3h3c.5 0 1.1 0 1.8.1.8.1 1.4.1 2 .3.5.1 1.1.3 1.7.5.6.2 1.1.5 1.5.9.4.3.7.8 1 1.3.3.5.4 1.2.4 1.9 0 .6-.1 1.1-.3 1.6-.2.5-.5.9-.9 1.2l-1.2.9c-.4.2-.9.4-1.5.6-.6.1-1.2.3-1.6.3-.5.1-1 .1-1.7.2-.7 0-1.2.1-1.6.1h-2.6v-9.9h0zM41 40.7c-.2.5-.5.9-.8 1.3-.3.4-.7.7-1.3.9-.5.3-1 .5-1.5.7-.5.2-1.1.3-1.8.4-.7.1-1.3.2-1.8.3-.5.1-1.1.1-1.9.1h-4.4V33.8H31c.5 0 1.3 0 2.2.1.9.1 1.7.2 2.3.3s1.3.3 2.1.6 1.4.6 1.8 1c.5.4.9.9 1.2 1.5.3.6.5 1.3.5 2 .2.4.1 1-.1 1.4h0zm0 0"/></g></svg>