<!--Generator: Adobe Illustrator 16.0.3, SVG Export Plug-In . SVG Version: 6.00 Build 0)--><svg xmlns="http://www.w3.org/2000/svg" width="64" height="64"><path d="M44.9 14.4c0-2.5 2.1-4.5 4.5-4.5S54 12 54 14.4s-2 4.5-4.5 4.5-4.6-2-4.6-4.5z"/><path fill="none" stroke="#000" stroke-linecap="round" stroke-linejoin="round" stroke-miterlimit="10" d="M45.4 12.9c-1.8-.4-8.3-2-10.2-2.4l-4 12.1c-6.1.1-11.6 1.8-15.6 4.4-1.8-1.6-4.5-2-6.9-.8-1 .5-1.8 1.4-2.4 2.4-1.5 3-.4 6.3 2.2 7.9C6.9 46 18 54.1 31.9 54.1c13.9 0 24.9-8 23.4-17.4 2.2-1.2 3.4-3.7 2.9-6.3-.4-2.3-2.1-4.2-4.4-4.7-2-.5-4.1.1-5.5 1.4-3.9-2.6-11.3-4.2-17.1-4.5m14.2-9.7"/><path fill="none" stroke="#000" stroke-linecap="round" stroke-linejoin="round" stroke-miterlimit="10" d="M23.7 44.7s1.7 2.9 8.3 2.9c6.6 0 7.8-2.4 7.8-2.4"/><path d="M21.5 35.5c0-1.4 1.2-2.6 2.6-2.6 1.4 0 2.5 1.2 2.5 2.6S25.5 38 24.1 38s-2.6-1.1-2.6-2.5zM37.2 35.5c0-1.4 1.2-2.6 2.6-2.6 1.4 0 2.5 1.2 2.5 2.6S41.2 38 39.8 38s-2.6-1.1-2.6-2.5z"/></svg>