<!--Generator: Adobe Illustrator 16.0.3, SVG Export Plug-In . SVG Version: 6.00 Build 0)--><svg xmlns="http://www.w3.org/2000/svg" width="64" height="64"><path fill="none" stroke="#000" stroke-linecap="round" stroke-linejoin="round" stroke-miterlimit="10" d="M42.7 47.7s0 0 0 0c6-3.7 9.9-10.4 9.9-18.5 0-15.5-10.1-21-20.6-21-9.9 0-20.7 7.8-20.7 21.3 0 15.5 10 21.2 20.6 21.2 1.7 0 3.3-.2 4.8-.6 0 0 0 0 0 0 4.1 7.4 10.3 5.6 11.9 5 0 0-.2-1.3-.6-3.7-2.9 0-4.2-1.5-5.3-3.7zm-8-2.5c-.9.2-1.9.3-2.8.3-4.9 0-10.8-2.1-10.8-15.3 0-13.2 6.1-16.8 11-16.8s10.6 3.1 10.6 16.3c0 6-1.2 9.8-3 12.2 0 0 0 0 0 0-4.1-5.2-9.3-4-10.6-3.4 0 0 .2 1.2.5 3.4 2.8-.1 4.2 1.4 5.1 3.3 0 0 0 0 0 0z"/></svg>