<!--Generator: Adobe Illustrator 16.0.3, SVG Export Plug-In . SVG Version: 6.00 Build 0)--><svg xmlns="http://www.w3.org/2000/svg" width="64" height="64"><g fill="none" stroke="#000" stroke-linecap="round" stroke-linejoin="round" stroke-miterlimit="10"><path d="M34 38l-6.2-6.5c-.1-.1-.2-.1-.2 0l-11.2 6.2c-.2.1-.4-.1-.2-.3L28.9 24c.1-.1.2-.1.3 0l6.2 6.5c.1.1.2.1.2 0l11.2-6.2c.2-.1.4.1.2.3L34.3 38H34z"/><path d="M32 6.7C18.2 6.7 7 17.2 7 30.1c0 7.3 3.6 13.8 9.2 18.1l.1.1v8.5c0 .1.2.2.3.2l8.2-4.5h.1c2.3.6 4.6 1 7.1 1 13.8 0 25-10.5 25-23.4S45.8 6.7 32 6.7z"/></g></svg>