<!--Generator: Adobe Illustrator 16.0.3, SVG Export Plug-In . SVG Version: 6.00 Build 0)--><svg xmlns="http://www.w3.org/2000/svg" width="64" height="64"><g><g fill="none" stroke="#000" stroke-linecap="round" stroke-linejoin="round" stroke-miterlimit="10"><path d="M36.3 31.6c-.8-.5-2.8-1.8-5.3-1.5-.9.1-2.3.2-3.3 1.4-1.1 1.3-1.3 3.4-.2 4.7.8 1 2.2 1.1 3.4 1.5.4.1.9.2 1.3.4 2.4.6 2.9.7 3.5 1.2.8.6 1.4 1.3 1.5 2.3.1.9-.1 1.8-.7 2.5-1.4 1.9-4 2-6 1.6-1.3-.2-2.5-.7-3.6-1.5-.2-.2-.5-.4-.7-.5M31.5 28.2v20.4"/><path d="M24.3 8.7c.6-.6 2.7 1.9 4.8 1 .9-.4 1.6-1.3 2.6-1.3.9 0 1.6 1 2.5 1.3.8.3 1.7.1 2.4-.3s1.4-.9 2.2-1.2c.1 0 .2-.1.3-.1.9.1-.4 2.1-.5 2.3-.5 1.1-.7 2.3-.6 3.5.1 2.1.9 3.7 1.5 4.7 4.6 7.7 10.7 13.6 11.6 20.1.8 6-2.9 12.6-7.8 15.4-2.8 1.6-5.6 1.7-11.3 1.8-6.8.1-10.2.2-13.1-1.9-4.7-3.4-6.4-11.3-4.7-17.1 1.5-5.2 6.3-11.1 10.1-17.5.5-.8 1.3-2.2 1.3-4.1 0-.9-.2-1.7-.5-3-.6-2.5-1.1-3.3-.8-3.6z"/><path d="M24.9 18.4c1.1.8 2.3 1.9 5.5 2.1 5.1.4 7.7-2 8.6-2.7"/></g></g></svg>