<!--Generator: Adobe Illustrator 16.0.3, SVG Export Plug-In . SVG Version: 6.00 Build 0)--><svg xmlns="http://www.w3.org/2000/svg" width="64" height="64"><g><path fill="none" stroke="#000" stroke-linecap="round" stroke-linejoin="round" stroke-miterlimit="10" d="M32.2 17.3c.5-1.1 1.8-3.9 5-5.9 1-.6 4.2-2.6 8.7-2.3 5 .3 8.2 3.2 9.2 4.2 4.9 4.9 4.2 11.5 4.1 12.7-.2 1.8-.9 5.6-10.8 16.1-8.2 8.6-16.4 13-16.4 13s-8.3-5-17.1-13.4c-7.1-6.9-10-11-10.3-15.5C4.2 19.8 8 10.5 16.3 9.1c5.6-1 11.9 2.3 15.9 8.2z"/></g></svg>