<!--Generator: Adobe Illustrator 16.0.3, SVG Export Plug-In . SVG Version: 6.00 Build 0)--><svg xmlns="http://www.w3.org/2000/svg" width="64" height="64"><g fill="none" stroke="#000" stroke-linejoin="round" stroke-miterlimit="10"><path stroke-linecap="round" d="M2.2 41c2.8 7.2 27 3.6 31 3 6.5-1 28.2-4.2 28.8-11.2.5-6.6-17.9-16.2-33.8-13.8-1.5.2-7.3 1.2-13.4 5.2C9.1 27.9.3 36.1 2.2 41z"/><path stroke-linecap="round" d="M14.3 25.2c.2.7 1.2 1.5 2.8 2.9 4.3 3.7 4.7 4 5 3.8.9-.5.2-3.7-1.3-6.1-.5-.8-1.6-2.7-3-3M22.4 20.7c.2.7 2.4 2.8 4 4.1 4.3 3.7 4.7 4 5 3.8.9-.5.2-3.7-1.3-6.1-.5-.8-1.9-3-3.3-3.4"/><path d="M33.3 18.6c.2.7 2.8 3.9 4.4 5.2 4.3 3.7 4.7 4 5 3.8.9-.5.2-3.7-1.3-6.1-.5-.8-.9-1.8-1.9-2.5"/></g></svg>