<!--Generator: Adobe Illustrator 16.0.3, SVG Export Plug-In . SVG Version: 6.00 Build 0)--><svg xmlns="http://www.w3.org/2000/svg" width="64" height="64"><g><g fill="none" stroke="#000" stroke-linejoin="round" stroke-miterlimit="10"><path stroke-linecap="round" d="M45.8 40.6c.2-.5.8-1.6 2.1-2.5.4-.3 1.8-1.1 3.6-1 2.1.1 3.4 1.3 3.9 1.8 2 2 1.8 4.8 1.7 5.3-.1.8-.4 2.4-4.6 6.8-3.4 3.6-6.9 5.4-6.9 5.4s-3.5-2.1-7.2-5.6c-3-2.9-4.2-4.6-4.3-6.5-.2-2.7 1.4-6.6 4.9-7.2 2.4-.3 5.1 1.1 6.8 3.5z"/><path d="M41.5 53.4c-2.9 1.3-7.1 2.3-10.5 2.3C17.7 55.8 6.9 45 6.9 31.6c0-12.6 9.7-23 22.1-24 .7-.1 1.3-.1 2-.1 13.3 0 24.1 10.8 24.1 24.1 0 2.1-.3 4.2-.8 6.1"/><path d="M29 7.6c-1.9 2.3-8.7 11-8.7 24 0 13.1 6.8 21.8 8.7 24.1M35.1 47.4c-2 4.3-2.6 6.2-4.3 8.4M30.8 7.5c1.9 2.3 8.3 11.2 8.4 24.2 0 2.1.1 3.4 0 5.6"/><path d="M12 16.8c2.3 1.9 5.2 4.5 18.3 4.6 13.1 0 17.2-3 19.5-4.9M12.1 46.5c2.3-1.9 5.2-4.5 18.3-4.6 1.5 0 2.8 0 4.1.1M6.9 30.7c7.3.5 15 .9 23.3.9 8.9 0 17.2-.3 24.9-.9"/></g></g></svg>