<!--Generator: Adobe Illustrator 16.0.3, SVG Export Plug-In . SVG Version: 6.00 Build 0)--><svg xmlns="http://www.w3.org/2000/svg" width="64" height="64"><g><g fill="none" stroke="#000" stroke-linecap="round" stroke-linejoin="round" stroke-miterlimit="10"><path d="M46.8 30L32 21.4c-.4-.2-.8.1-.8.5V39c0 .4.5.7.8.5L46.8 31c.4-.3.4-.8 0-1z"/><path d="M18 41.2c0 .3-.3.5-.5.4-1-.3-2.1-.4-3.2-.4-5.2 0-9.5 3.3-9.5 7.4S9.1 56 14.3 56c5 0 9.1-3 9.5-6.8V14.9h30.5v25.9c0 .5-.5.9-1 .8-.9-.1-1.8-.1-2.8-.1-5.2 0-9.4 3.3-9.4 7.3s4.2 7.3 9.4 7.3c5 0 8.6-2.7 8.8-6.6v-7-14.3c0-6.2 0-12.3.1-18.5 0-.4 0-.7-.1-1-.4-.9-2.7-.6-3.5-.6C54 8 52.5 8 51 8c-3.1 0-6.1.1-9.2.1H29.5c-2 0-4.1 0-6.1-.1-1.4 0-4.1-.2-4.9.8-.4.4-.5 1-.5 1.6 0 .8.1 1.6.1 2.4V41.2z"/></g></g></svg>