<!--Generator: Adobe Illustrator 16.0.3, SVG Export Plug-In . SVG Version: 6.00 Build 0)--><svg xmlns="http://www.w3.org/2000/svg" width="64" height="64"><g><g fill="none" stroke="#000" stroke-linecap="round" stroke-linejoin="round" stroke-miterlimit="10"><path d="M41.1 47.2h11.6s6.6.4 6.4-7.2c-.2-7.6-6.4-8-6.4-8s.6-6.3-4.8-9.3c-5.4-3-10.8-.4-10.8-.4s-5-7.1-13.3-5c-8.3 2-9.5 11.4-9.5 11.4s-9.1 0-9.3 8.9c-.2 8.9 7.4 9.6 7.4 9.6h11.8M32 33.8v13.3"/><path d="M27 33.8h10c.1 0 .2-.1.1-.2L32 27.8c-.1-.1-.2-.1-.2 0l-5 5.6c-.1.2 0 .4.2.4z"/></g></g></svg>