<!--Generator: Adobe Illustrator 16.0.3, SVG Export Plug-In . SVG Version: 6.00 Build 0)--><svg xmlns="http://www.w3.org/2000/svg" width="64" height="64"><g fill="none" stroke="#000" stroke-linecap="round" stroke-linejoin="round" stroke-miterlimit="10"><ellipse cx="13.1" cy="29.1" rx="6.8" ry="6.8"/><path d="M12.6 36.8c-4.3 0-7.4 3.8-7.4 7.7v2.6h0c0 .4.3.7.7.7H19.3c.4 0 .7-.3.7-.7h0v-2.6c0-3.9-3.1-7.7-7.4-7.7z"/><ellipse cx="30.9" cy="26.9" rx="7.6" ry="7.6"/><path d="M31.1 35.6c-4.7 0-8.2 4.2-8.2 8.6v2.9h0c0 .4.3.8.7.8H38.6c.4 0 .7-.3.7-.8h0v-2.9c0-4.4-3.4-8.6-8.2-8.6z"/><g><ellipse cx="50.4" cy="24.5" rx="8.4" ry="8.4"/><path d="M49.7 34.2c-5.1 0-8.9 4.7-8.9 9.5V47h0c0 .5.4.8.8.8h16.2c.4 0 .8-.4.8-.8h0v-3.3c0-4.8-3.8-9.5-8.9-9.5z"/></g></g></svg>