<!--Generator: Adobe Illustrator 16.0.3, SVG Export Plug-In . SVG Version: 6.00 Build 0)--><svg xmlns="http://www.w3.org/2000/svg" width="64" height="64"><g><g fill="none" stroke="#000" stroke-linecap="round" stroke-linejoin="round" stroke-miterlimit="10"><path d="M32.3 16.1c.5-1.2 2-4.2 5.5-6.4 1.1-.7 4.6-2.8 9.4-2.5 5.5.3 8.9 3.5 10 4.6 5.3 5.3 4.5 12.5 4.4 13.8-.2 1.9-1 6.1-11.8 17.4C40.9 52.4 32 57.1 32 57.1s-9-5.4-18.5-14.6C5.8 35 2.7 30.5 2.3 25.7 1.8 18.8 6 8.7 14.9 7.1c6.1-1.1 13 2.6 17.4 9zM38.9 44.1c-4.5-6.6-9.6-10.6-12.9-12.8"/><path d="M33.6 37.7c1.3-1.6 2.4-4.1 2-6.9-.1-.4-.2-1.3-.7-2.3-.8-1.6-2.2-3.2-7.5-5.8-4.1-2-5.5-2.3-10.2-4.7-1.1-.6-2.1-1.1-2.7-1.4 0 .6.1 1.6.1 2.8.2 3.5.4 6.3.5 6.9.2 2.1 1.2 11.4 7.4 14 3.4 1.4 8.5.6 11.1-2.6z"/></g></g></svg>