<!--Generator: Adobe Illustrator 16.0.3, SVG Export Plug-In . SVG Version: 6.00 Build 0)--><svg xmlns="http://www.w3.org/2000/svg" width="64" height="64"><g><path fill="none" stroke="#000" stroke-linecap="round" stroke-linejoin="round" stroke-miterlimit="10" d="M46.6 54.9l.1-29c0-.2.3-.4.5-.2l4.2 4.2c.1.1.2.1.4 0l8.5-6c.1-.1.2-.2.1-.4-1-1.6-7.6-11.6-17.2-14.8-.1 0-.2 0-.3.1-6.6 8.9-14.9 9-21.4 0-.1-.1-.2-.1-.3-.1-9 3.4-16.3 13.3-17.4 14.9-.1.1-.1.3.1.4l8.9 5.8c.1.1.3.1.4 0l3.4-3.9c.2-.2.5-.1.5.2V55c0 .2.1.3.3.3h29.1c0-.1.1-.2.1-.4z"/></g></svg>