<!--Generator: Adobe Illustrator 16.0.3, SVG Export Plug-In . SVG Version: 6.00 Build 0)--><svg xmlns="http://www.w3.org/2000/svg" width="64" height="64"><g fill="none" stroke="#000" stroke-linecap="round" stroke-linejoin="round" stroke-miterlimit="10"><path d="M32.2 16.9c.5-1.1 1.9-4 5.2-6.1 1-.7 4.3-2.6 8.9-2.3 5.2.3 8.5 3.3 9.5 4.3 5 5 4.3 11.8 4.2 13.1-.2 1.8-.9 5.8-11.1 16.5-8.4 8.9-16.8 13.4-16.8 13.4S23.5 50.6 14.5 42C7.2 34.9 4.2 30.6 3.9 26c-.5-6.5 3.4-16.1 12-17.6 5.7-1 12.2 2.5 16.3 8.5z"/><path d="M26.2 42.1c-.7-1.2-.7-2.8-.3-4.1.7-1.8 1.9-1.6 3.4-3.7 1.6-2.4.9-3.9 2.5-4.9.9-.5 2.2-.8 3.2-.3 1.5.8.8 2.5 2.4 5 1.5 2.2 2.9 2.1 3.4 3.8.6 2.1-1.1 4.1-1.2 4.3-3.1 3.8-11.4 3.5-13.4-.1zM24.6 33.8c-1 0-1.9-1.9-2.1-3.4-.2-1.5.2-3.6 1.2-3.8.9-.2 2.2 1.2 2.6 2.5.7 2.1-.6 4.7-1.7 4.7zM39.8 32.2c-.8-.4-.7-2.5-.2-4 .5-1.4 1.9-3 2.9-2.7.9.3 1.3 2.1 1 3.4-.4 2.1-2.8 3.8-3.7 3.3zM29.7 27.4c-1.2 0-2.1-2-2.1-3.6 0-1.8 1.3-3.8 2.5-3.7 1.2.1 2.1 2.1 2 3.8-.1 1.7-1.2 3.6-2.4 3.5zM36.1 27.1c-1.2-.2-1.8-2.3-1.5-3.9.3-1.8 1.8-3.6 3-3.3 1.2.3 1.8 2.4 1.4 4.1-.3 1.6-1.7 3.3-2.9 3.1z"/></g></svg>