<!--Generator: Adobe Illustrator 16.0.3, SVG Export Plug-In . SVG Version: 6.00 Build 0)--><svg xmlns="http://www.w3.org/2000/svg" width="64" height="64"><g fill-rule="evenodd" clip-rule="evenodd"><path d="M60.9 32.4c0-4.1-2-7.3-5.8-7.3S49 28.3 49 32.4c0 4.8 2.7 7.3 6.6 7.3 1.9 0 3.4-.4 4.4-1v-3.2c-1.1.6-2.3.9-3.9.9s-2.9-.6-3.1-2.4h7.8c0-.4.1-1.2.1-1.6zm-8-1.5c0-1.8 1.1-2.6 2.1-2.6s2 .8 2 2.6h-4.1zM42.8 25.1c-1.6 0-2.6.7-3.1 1.3l-.2-1H36V44l4-.9v-4.5c.6.4 1.4 1 2.8 1 2.9 0 5.5-2.3 5.5-7.4-.1-4.6-2.7-7.1-5.5-7.1zm-1 11c-.9 0-1.5-.3-1.9-.8v-6c.4-.5 1-.8 1.9-.8 1.5 0 2.5 1.6 2.5 3.7 0 2.3-1 3.9-2.5 3.9zM30.4 24.1l4-.9V20l-4 .8zM30.4 25.3h4v14h-4zM26.1 26.5l-.3-1.2h-3.5v14h4v-9.5c.9-1.2 2.5-1 3.1-.8v-3.7c-.5-.2-2.4-.5-3.3 1.2zM18 21.8l-3.9.8v12.8c0 2.4 1.8 4.1 4.2 4.1 1.3 0 2.3-.2 2.8-.5v-3.3c-.5.2-3 .9-3-1.4v-5.7h3v-3.4h-3l-.1-3.4zM7.2 29.4c0-.6.5-.9 1.4-.9 1.2 0 2.8.4 4 1v-3.8c-1.3-.5-2.7-.7-4-.7-3.2 0-5.4 1.7-5.4 4.5 0 4.4 6.1 3.7 6.1 5.6 0 .7-.6 1-1.5 1-1.3 0-3-.5-4.4-1.3v3.8c1.5.6 3 .9 4.4.9 3.3 0 5.6-1.6 5.6-4.5-.1-4.7-6.2-3.8-6.2-5.6z"/></g></svg>