<!--Generator: Adobe Illustrator 16.0.3, SVG Export Plug-In . SVG Version: 6.00 Build 0)--><svg xmlns="http://www.w3.org/2000/svg" width="64" height="64"><g><g fill="none" stroke="#000" stroke-linecap="round" stroke-linejoin="round" stroke-miterlimit="10"><path d="M31 25.1c.2-.5.9-1.8 2.4-2.8.5-.3 2-1.2 4.1-1.1 2.4.1 3.9 1.5 4.3 2 2.3 2.3 2 5.4 1.9 6-.1.8-.4 2.6-5.1 7.5-3.8 4-7.7 6.1-7.7 6.1s-3.9-2.3-8-6.3c-3.3-3.2-4.7-5.2-4.8-7.2-.2-3 1.6-7.3 5.4-8 2.7-.5 5.6 1.1 7.5 3.8z"/><path d="M12.3 8.5h35.6v43.1H12.3zM12.3 51.7l3 3.8h36.4l-3.9-3.7M51.7 55.5V11.4l-3.8-2.9"/></g></g></svg>