<!--Generator: Adobe Illustrator 16.0.3, SVG Export Plug-In . SVG Version: 6.00 Build 0)--><svg xmlns="http://www.w3.org/2000/svg" width="64" height="64"><path fill="none" stroke="#000" stroke-linecap="round" stroke-linejoin="round" stroke-miterlimit="10" d="M13.3 39.3c-.2-1.4 2.7-1.6 6.3-5.7 4.4-5 3.4-8.3 7.2-10.7.2-.1 4.5-2.6 8.3-.6 3.3 1.7 4.4 5.7 4.3 8.5-.3 5.3-5.1 8.4-6.3 9.2-7.8 5.1-19.3 2.1-19.8-.7z"/><path fill="none" stroke="#000" stroke-linecap="round" stroke-linejoin="round" stroke-miterlimit="10" d="M28.5 22.2c-.4-4.7 1.8-10.8 5.7-13 4.1-2.3 9.5-1.8 12.5 1 3 2.9 2.6 7.2 2 13.5-.8 8.3-1.5 14.2-5.9 18.9-9.6 10-28.8 6.3-29.2 3.6-.1-.6 1.2-2.3 5.1-4"/><path fill="none" stroke="#000" stroke-linecap="round" stroke-linejoin="round" stroke-miterlimit="10" d="M14.8 47.5c-2.4 1.3-6.2 3.7-5.9 5.4.5 2.8 9.6 4.2 16.9 2.6 8.7-2 15.3-10.4 17.8-13.8M48.9 14.8l5.9 2.5c.4.2.4.7 0 1L49 21.2"/><circle cx="41.6" cy="14.8" r="1.7"/></svg>