<!--Generator: Adobe Illustrator 16.0.3, SVG Export Plug-In . SVG Version: 6.00 Build 0)--><svg xmlns="http://www.w3.org/2000/svg" width="64" height="64"><g><g fill="none" stroke="#000" stroke-linejoin="round" stroke-miterlimit="10"><path stroke-linecap="round" d="M19.6 51.8l1-8.1c0-.1.1-.2.3-.2 1.9.2 8.1 0 10-22.7.1-.7-.3-1.6-.7-2.1-2.7-2.8-7.1-3.8-11.3-2.7-1.6.4-2.8 1.9-2.8 3.5-.3 6.5-1.4 23.1 4.7 23.8"/><path d="M15.8 25s5.2 5.4 14.4 1.8"/><path stroke-linecap="round" d="M13.1 53.1c.2-1.2 3.1-1.9 6.3-1.2 3.3.6 5.8 2.1 5.5 3.2-.2 1.2-3.2 1.8-6.5 1.2-3.1-.6-5.5-2-5.3-3.2zM44.4 51.8l-1-8.1c0-.1-.1-.2-.3-.2-1.9.2-7.9 0-9.9-21.6-.1-1.4.6-3.3 1.6-4.1 3.2-2.5 7.7-2.9 11.4-1.2.9.4 1.6 1.6 1.7 2.6.3 6.1 1.6 23.5-4.7 24.3"/><path d="M48.2 25s-5.3 4.4-14.4 1.8"/><path stroke-linecap="round" d="M50.9 53.1c-.2-1.2-3.1-1.9-6.3-1.2-3.3.6-5.8 2.1-5.5 3.2.2 1.2 3.2 1.8 6.5 1.2 3.1-.6 5.5-2 5.3-3.2zM30.2 13l-3.6-5.6M34.2 13.2l3.6-5.5"/></g></g></svg>