<!--Generator: Adobe Illustrator 16.0.3, SVG Export Plug-In . SVG Version: 6.00 Build 0)--><svg xmlns="http://www.w3.org/2000/svg" width="64" height="64"><g><g fill="none" stroke="#000" stroke-linecap="round" stroke-linejoin="round" stroke-miterlimit="10"><path d="M16.9 13l7.9 14.2L35.4 7.7s-10.7-1-18.5 5.3zM40.8 9.6l-8.5 13.9 22.4.1c0-.1-4.6-10.3-13.9-14zM55.4 28.7H39.1l12.1 18.8s6.1-8.9 4.2-18.8zM46.9 50.9L39 36.7 28.4 56.3s10.7 1 18.5-5.4zM23.4 54.5l8-14.2-22.2 1.2s4.8 9.7 14.2 13zM8.5 36.6l16.3.2-11.8-19s-6.1 8.9-4.5 18.8z"/></g></g></svg>