<!--Generator: Adobe Illustrator 16.0.3, SVG Export Plug-In . SVG Version: 6.00 Build 0)--><svg xmlns="http://www.w3.org/2000/svg" width="64" height="64"><g><g fill="none" stroke="#000" stroke-linecap="round" stroke-linejoin="round" stroke-miterlimit="10"><path d="M28.8 19.4c.8-1.1 1.5-3 2.3-4.1 1.6-2.2 2.8-3.6 4.9-5.2 1.6-1.1 3.2-2.3 4.9-3.2 1.3-.7 3.7-1.9 4.9-.6.5.5.7 1.2.9 1.8.8 3.1 1.1 6.4.8 9.6-.3 2.7-1 5.4-2.6 7.6-.3.4-.5.7-.7 1.1-.3.8.3 1.4.6 2 .5.8.7 1.6.7 2.5 0 .9-.3 1.8-.6 2.7-.6 2.1-3 9.5-6.3 6.2-.9-.9-1.6-1.9-2.2-3.1-.2-.4-.4-.8-.7-1.1-.6-.8-1.4-.6-2.3-.4-1 .3-2.1.4-3.1 0-.8-.3-1.5-.9-1.8-1.7-.4-.7-.1-1.9-.8-2.4-.1-.1-.6-.1-1.1-.1-1.7.2-3.3.6-5.1.1-.5-.2-1-.4-1.4-.8-1-1.1-.3-2.6.3-3.7.5-1 1.1-1.9 1.7-2.8 1-1.4 2.3-2.8 4-3.4.9-.3 2.2-.3 2.7-1z"/><circle cx="39.7" cy="16.8" r="3"/><path d="M27.7 32.1l-9.1 3.7 5.7 2-7.9 7.3 7.2-.9-6 14.1 10.1-11.9 1.9 6.9 3-11.2 3 7.1.3-13.5"/></g></g></svg>