<!--Generator: Adobe Illustrator 16.0.3, SVG Export Plug-In . SVG Version: 6.00 Build 0)--><svg xmlns="http://www.w3.org/2000/svg" width="64" height="64"><g><g fill="none" stroke="#000" stroke-linecap="round" stroke-linejoin="round" stroke-miterlimit="10"><path d="M4.4 12.6h55.1c1.3 0 2.4 1.3 2.4 2.9v37.9c0 1.6-1.1 2.9-2.4 2.9H4.4C3.1 56.4 2 55 2 53.4V15.6c0-1.6 1.1-3 2.4-3zM2 20.1h60M19.5 7.6v8.8M42 7.6v8.8M58.2 38.9H5.8M20.8 26.4v22.5M42 26.4v22.5"/><path d="M9.5 28.9h5v5h-5zM29.5 28.9h5v5h-5zM49.5 28.9h5v5h-5zM49.5 43.9h5v5h-5zM29.5 43.9h5v5h-5zM9.5 43.9h5v5h-5z"/></g></g></svg>