<!--Generator: Adobe Illustrator 16.0.3, SVG Export Plug-In . SVG Version: 6.00 Build 0)--><svg xmlns="http://www.w3.org/2000/svg" width="64" height="64"><g><g fill="none" stroke="#000" stroke-linecap="round" stroke-linejoin="round" stroke-miterlimit="10"><path d="M41.4 22c-.9-.6-3.2-2-6.2-1.7-1 .1-2.6.3-3.8 1.6-1.3 1.5-1.6 3.9-.2 5.5 1 1.1 2.5 1.3 3.9 1.7.5.1 1 .3 1.6.4 2.8.7 3.3.9 4.1 1.4.9.6 1.6 1.5 1.7 2.6.1 1-.2 2.1-.8 2.9-1.6 2.2-4.6 2.3-7 1.8-1.5-.3-3-.9-4.2-1.7-.3-.2-.6-.4-.8-.6M35.9 17v24.7"/><path d="M9.8 24.3H5.4v11.6h5s3.7 7.9 12.3 11.4c.1 5.4 0 8.6 0 8.9H33v-7.3h4.4v7.3h10.2V48c0-.4 3.7-2.6 4.1-3 7.6-7 9.4-16.5 3.3-24.8-8-10.8-22.7-9.7-34.7-6.5-4.3-3.5-7.7-5.8-7.7-5.8l2.4 8.2c-.1-.1-5.2 4.7-5.2 8.2z"/></g></g></svg>