<!--Generator: Adobe Illustrator 16.0.3, SVG Export Plug-In . SVG Version: 6.00 Build 0)--><svg xmlns="http://www.w3.org/2000/svg" width="64" height="64"><g><g fill="none" stroke="#000" stroke-linecap="round" stroke-linejoin="round" stroke-miterlimit="10"><path d="M26.8 44c-1.5.1-2 .2-2.4-.2-1.3-.9-.3-3-1.1-6.6-.5-2-1.3-3.5-1.9-4.8-1.2-2.3-1.9-2.6-2.7-4.1-1.6-3-1.3-6.1-1.1-7.4.1-1.6.8-5.9 4.4-9.4 4.1-4 9.1-4.1 10.2-4 .8 0 6.5.2 10.7 4.9 1 1.1 3.5 4.2 3.7 8.6.2 4-1.5 7.4-2.4 9-.8 1.5-1.3 2.1-2.6 4.7-1.2 2.4-1.6 3.7-1.7 5.1-.1 2.1.6 3.4-.1 4.1-.5.5-1.3.3-2.4.2-4-.5-8.5-.2-10.6-.1zM38.8 47.6H25.2M38.8 50.1H25.2M25.2 53.4h13.6c.4 0 .6.4.3.6-.9 1-3.1 2.5-7.1 2.5-4-.1-6.1-1.5-7.1-2.4-.2-.2-.1-.7.3-.7z"/><path d="M30.8 30.8c.1-.3 0-.7-.3-.9-1.2-.7-2.5-1.2-3.2-1.6-.3-.2-.7-.4-1-.6-.6-.5-.7-1.4-.2-2 .3-.3.6-.6.9-.8.7-.6 1.3-1.2 1.9-1.8 1.5-1.5 3-2.9 4.6-4.4.2-.2.4-.5.8-.5.4-.1.9.2 1.1.6.4.8-.2 1.7-.5 2.4-.4.8-.8 1.7-1.3 2.4-.4.6-.8 1.3-.1 1.8.5.3 1 .6 1.4.8.7.4 1.3.8 2 1.1.5.2 1 .5 1.1 1.1.1.6-.4 1-.8 1.4l-1.3 1.3c-1.4 1.3-2.7 2.6-4.1 3.9-.5.4-.9.9-1.3 1.4-.5.5-1.3 1-1.9.4-1-.8.3-2.6.6-3.4.5-.8 1.3-1.7 1.6-2.6z"/></g></g></svg>