<!--Generator: Adobe Illustrator 16.0.3, SVG Export Plug-In . SVG Version: 6.00 Build 0)--><svg xmlns="http://www.w3.org/2000/svg" width="64" height="64"><g><g fill="none" stroke="#000" stroke-linecap="round" stroke-linejoin="round" stroke-miterlimit="10"><path d="M16.9 30.4V4.9h26.7l11.5 11.6v42.6H16.9v-8"/><path d="M55.1 17.7H42.4V4.9M8.9 30.4h36.6v20.7H8.9z"/></g><path fill="none" stroke="#000" stroke-linecap="round" stroke-linejoin="round" stroke-miterlimit="10" d="M15.3 41.5c1.8.8 4 .2 4.8-1.1.5-.8.6-1.8.3-2.7-.6-1.5-2.9-2.4-5.1-1.8v10M23.1 36v9.7s7.6 1.4 7.5-5.5c-.2-5.3-7.5-4.2-7.5-4.2zM38.2 36.2s-4.8.2-4.9.1v9.5M37.7 40.8h-4.3"/></g></svg>