<!--Generator: Adobe Illustrator 16.0.3, SVG Export Plug-In . SVG Version: 6.00 Build 0)--><svg xmlns="http://www.w3.org/2000/svg" width="64" height="64"><g><g fill="none" stroke="#000" stroke-linecap="round" stroke-linejoin="round" stroke-miterlimit="10"><path d="M36.5 37.1c.2-.4.6-1.2 1.6-1.9.3-.2 1.3-.8 2.8-.7 1.6.1 2.6 1 2.9 1.3 1.6 1.6 1.3 3.7 1.3 4.1-.1.6-.3 1.8-3.5 5.1-2.6 2.8-5.2 4.1-5.2 4.1s-2.7-1.6-5.4-4.3c-2.3-2.2-3.2-3.5-3.3-4.9-.1-2 1.1-5 3.7-5.5 1.8-.3 3.8.8 5.1 2.7z"/><path d="M23.8 38.5c1.6-.5 1-8.5.4-15.9-.5-6.9-1.3-12.6 1.1-13.8.2-.1.4-.2.7-.2 3.5.3 3.9 19.9 4.9 19.9.5 0 1-6.6 1.3-10.6.4-5.5.5-9.9 2.4-10.5.1 0 .3-.1.5-.1 1.5.3 1.4 4.9 1.9 11.4.3 4.2.9 9.3 1.3 9.3.8 0 .1-18.2 4.5-19.6.1 0 .3-.1.5 0 1.2.3 1.3 4 1.2 11-.1 6.9-.4 11-.1 11.1.3 0 1.4-4.9 2.1-8.1.6-3.2 1-5.8 2.5-6.1.4-.1.8.1.9.1 1.8.8 1.4 5.1 1.2 9.4-.5 10.8.7 10.1-.3 16.1-.9 5.5-1.4 8.2-3.8 10.8-3.7 3.9-9 4.1-10 4.2-4.9.2-8.3-2-9.4-2.7-3.2-2.1-2.9-3.5-8.5-11.8-4.3-6.4-7.2-9.5-6-11.6 0-.1.6-.9 1.6-1.1 3.7-1 7.2 9.3 9.1 8.8z"/></g></g></svg>