<!--Generator: Adobe Illustrator 16.0.3, SVG Export Plug-In . SVG Version: 6.00 Build 0)--><svg xmlns="http://www.w3.org/2000/svg" width="64" height="64"><path fill="none" stroke="#000" stroke-linecap="round" stroke-linejoin="round" stroke-miterlimit="10" d="M22.8 51.8c18.7 0 28.9-15.2 28.9-28.5V22c2-1.4 3.7-3.2 5.1-5.2-1.8.8-3.8 1.3-5.8 1.6 2.1-1.2 3.7-3.2 4.5-5.5-2 1.1-4.1 2-6.4 2.4-1.9-1.9-4.5-3.2-7.4-3.2-5.6 0-10.2 4.5-10.2 10 0 .8.1 1.5.3 2.3-8.4-.4-15.9-4.4-20.9-10.5-.9 1.5-1.4 3.2-1.4 5 0 3.5 1.8 6.5 4.5 8.3-1.7 0-3.2-.5-4.6-1.3v.1c0 4.8 3.5 8.9 8.1 9.8-.9.2-1.7.4-2.7.4-.7 0-1.3-.1-1.9-.2 1.3 4 5 6.9 9.5 6.9-3.5 2.7-7.9 4.3-12.6 4.3-.8 0-1.6 0-2.4-.1 4.3 3.1 9.7 4.7 15.4 4.7"/></svg>