<!--Generator: Adobe Illustrator 16.0.3, SVG Export Plug-In . SVG Version: 6.00 Build 0)--><svg xmlns="http://www.w3.org/2000/svg" width="64" height="64"><path d="M20.2 39.3s.3.7.4 1c.8 1.8 1.9 3.5 3.3 4.9 1.4 1.4 3 2.5 4.9 3.3 1.9.8 3.9 1.2 5.9 1.2 2.1 0 4.1-.4 5.9-1.2 1.8-.8 3.5-1.9 4.9-3.3 1.4-1.4 2.5-3 3.3-4.9.8-1.9 1.2-3.9 1.2-5.9s-.4-4.1-1.2-5.9c-.8-1.8-1.9-3.5-3.3-4.9s-3-2.5-4.9-3.3c-1.9-.8-3.9-1.2-5.9-1.2-2.1 0-4.2.4-6 1.2-1.5.6-4 2.2-5.5 3.8V11.5h21.1c.8 0 .8-1.1.8-1.4s0-1.4-.8-1.4H21.4c-.6 0-1 .5-1 1v17.7c0 .6.7 1 1.4 1.1 1.3.3 1.6-.1 1.9-.6v-.1c.5-.7 2-2.2 2-2.2 2.4-2.4 5.5-3.6 8.9-3.6 3.3 0 6.5 1.3 8.8 3.6 2.4 2.4 3.7 5.5 3.7 8.8 0 3.3-1.3 6.5-3.6 8.8-2.3 2.3-5.6 3.6-8.9 3.6-2.3 0-4.4-.6-6.3-1.7V34.3c0-1.4.6-3 1.7-4.2 1.2-1.3 2.8-2.1 4.6-2.1 1.7 0 3.4.7 4.6 1.9 1.2 1.2 1.9 2.8 1.9 4.5 0 3.6-2.8 6.4-6.4 6.4-.7 0-2-.3-2-.3-.7-.2-1 .8-1.1 1.1-.4 1.3.2 1.5.3 1.6 1.2.4 1.9.4 2.9.4 5.1 0 9.2-4.1 9.2-9.2s-4.1-9.2-9.2-9.2c-2.5 0-4.8 1-6.6 2.7-1.7 1.6-2.6 3.8-2.6 6v8.9c-1-1.1-1.9-2.7-2.5-4.3-.2-.6-.8-.5-1.6-.3-.5.1-1.5.4-1.3 1.1zM31 36.8c0 .3.3.6.5.7l.1.1c.3.3.6.4.8.4.2 0 .3-.1.4-.1l1.7-1.7 1.6 1.6c.1.2.3.3.5.3.3 0 .5-.2.8-.5.7-.7.3-1.1.2-1.3L36 34.7l1.7-1.7c.4-.4 0-.8-.3-1.2-.5-.5-.9-.6-1.2-.3l-1.7 1.7-1.7-1.7c-.1-.1-.2-.1-.3-.1-.2 0-.5.2-.8.5-.5.5-.6.9-.4 1.2l1.7 1.7-1.7 1.7c-.2 0-.3.1-.3.3zm3.8-23.1c-2.7 0-5.6.6-7.8 1.5-.2.1-.4.3-.4.5s0 .6.2 1c.1.3.5 1.2 1.2 1 2.2-.8 4.6-1.3 6.8-1.3 2.5 0 4.9.5 7.2 1.5 1.8.8 3.5 1.9 5.4 3.5.1.1.3.2.4.2.4 0 .7-.4 1-.7.5-.6.8-1 .3-1.5-1.8-1.7-3.7-2.9-6.1-4-2.6-1.2-5.4-1.7-8.2-1.7zm14.7 33.8c-.3-.3-.6-.5-.9-.6-.2-.1-.5 0-.6.2l-.2.2c-1.7 1.7-3.7 3-5.9 4-2.3 1-4.7 1.5-7.2 1.5s-4.9-.5-7.2-1.5c-2.2-.9-4.2-2.3-5.9-4-1.8-1.8-3.1-3.7-4-5.9-.8-2.1-1.1-3.6-1.2-4.1v-.1c-.1-.6-.7-.6-1.5-.5-.3.1-1.3.2-1.2.9.3 1.7.7 3.3 1.4 4.9 1.1 2.5 2.6 4.8 4.5 6.7 1.9 1.9 4.2 3.5 6.7 4.5 2.6 1.1 5.4 1.7 8.3 1.7s5.6-.6 8.3-1.7c2.5-1.1 4.8-2.6 6.7-4.5l.2-.2c.4-.3.6-.7-.3-1.5z"/></svg>