<!--Generator: Adobe Illustrator 16.0.3, SVG Export Plug-In . SVG Version: 6.00 Build 0)--><svg xmlns="http://www.w3.org/2000/svg" width="64" height="64"><path fill="none" stroke="#000" stroke-linecap="round" stroke-linejoin="round" stroke-miterlimit="10" d="M45.3 34.2c.1 7.1 6.5 9.5 6.5 9.5-.1.2-1 3.4-3.4 6.7-2 2.9-4.1 5.7-7.4 5.8-3.3.1-4.3-1.9-8-1.9s-4.9 1.8-8 1.9c-3.2.1-5.6-3.1-7.7-6-4.2-5.8-7.4-16.5-3.1-23.7 2.1-3.6 5.9-5.8 10.1-5.9 3.1-.1 6.1 2 8 2 1.9 0 5.5-2.5 9.3-2.2 1.6.1 6 .6 8.9 4.7-.2.3-5.3 3.2-5.2 9.1m-6.6-19c1.7-2 2.8-5.1 2.5-7.5-2.8.1-5 1.2-7.2 3.6-1.6 1.8-3 4.6-2.6 7.3 2.8.2 5.6-1.4 7.3-3.4z"/></svg>