<!--Generator: Adobe Illustrator 16.0.3, SVG Export Plug-In . SVG Version: 6.00 Build 0)--><svg xmlns="http://www.w3.org/2000/svg" width="64" height="64"><g><path fill="none" stroke="#000" stroke-linecap="round" stroke-linejoin="round" stroke-miterlimit="10" d="M55.1 52.5H8.9c-1.7 0-3.1-1.4-3.1-3.1V14.6c0-1.7 1.4-3.1 3.1-3.1h46.2c1.7 0 3.1 1.4 3.1 3.1v34.9c0 1.7-1.4 3-3.1 3zM5.8 21.4h52.4"/><circle cx="10.7" cy="16.4" r="1.4"/><circle cx="19.5" cy="16.4" r="1.4"/><circle cx="15.1" cy="16.4" r="1.4"/><path d="M34.2 30.4l1.4 7.2c.1.3.5.5.7.2l5.5-5.5c.2-.2.1-.6-.2-.7l-6.9-1.7c-.3 0-.6.2-.5.5z"/><path d="M43.532 40.295l-4.88-4.878 1.06-1.06 4.88 4.877z"/></g></svg>