<!--Generator: Adobe Illustrator 16.0.3, SVG Export Plug-In . SVG Version: 6.00 Build 0)--><svg xmlns="http://www.w3.org/2000/svg" width="64" height="64"><g><g fill="none" stroke="#000" stroke-linecap="round" stroke-linejoin="round" stroke-miterlimit="10"><path d="M8.4 11h47.2c1.2 0 2.3 1.2 2.3 2.6v36.8c0 1.4-1 2.6-2.3 2.6H8.4c-1.2 0-2.3-1.2-2.3-2.6V13.6c.1-1.4 1.1-2.6 2.3-2.6zM32 11v42M6.2 28.8h51.6"/><path d="M31 29.7s5.7-18.3 13.2-15c6.8 3.9-1.1 14.7-13.2 15z"/><path d="M31.1 29.4s-12.8.1-15.2 8c-.8 2.6.8 5.4 3.2 5.7 10.8 1.4 13.4-17.3 12-13.7zM19.7 17.9L42.6 41"/></g></g></svg>