<!--Generator: Adobe Illustrator 16.0.3, SVG Export Plug-In . SVG Version: 6.00 Build 0)--><svg xmlns="http://www.w3.org/2000/svg" width="64" height="64"><g><g fill="none" stroke="#000" stroke-linecap="round" stroke-linejoin="round" stroke-miterlimit="10"><path d="M41.6 51.2H8.7s-6.2-.6-6-7.9 7.6-7.2 7.6-7.2 1-7.7 7.8-9.3c6.8-1.6 10.9 4.1 10.9 4.1s4.4-2.1 8.8.4 3.9 7.6 3.9 7.6 5 .3 5.2 6.5c.1 6.2-5.3 5.8-5.3 5.8zM61.3 32.9l-2.3.2-2.2.2M40.6 17.3l-.2-2.3-.2-2.2M51.8 21.3l1.5-1.7 1.4-1.7M53.6 45.1l1.8 1.5 1.7 1.4M28.9 21.3l-1.8-1.5-1.7-1.4"/><path d="M30.5 29.9c1.6-3.7 5.1-6.3 9.4-6.7 6.3-.7 12.1 3.8 12.8 10.2.5 4.7-1.9 9.1-5.8 11.3"/></g></g></svg>