<!--Generator: Adobe Illustrator 16.0.3, SVG Export Plug-In . SVG Version: 6.00 Build 0)--><svg xmlns="http://www.w3.org/2000/svg" width="64" height="64"><path fill="none" stroke="#000" stroke-linecap="round" stroke-linejoin="round" stroke-miterlimit="10" d="M32 7.1h0C18.3 7.1 7.1 18.3 7.1 32S18.3 56.9 32 56.9 56.9 45.7 56.9 32 45.7 7.1 32 7.1zM43.4 43c-.4.7-1.4 1-2.1.5-5.8-3.6-13.2-4.4-21.9-2.4-.8.2-1.7-.3-1.9-1.2-.2-.8.3-1.7 1.2-1.9 9.5-2.2 17.6-1.2 24.2 2.8.7.5 1 1.5.5 2.2zm3.1-6.8c-.6.9-1.8 1.2-2.7.6-6.7-4-16.9-5.2-24.8-2.8-1 .3-2.1-.3-2.4-1.3-.3-1 .3-2.1 1.3-2.4 9-2.7 20.3-1.4 27.9 3.3.9.5 1.2 1.7.7 2.6zm.2-7h0c-8-4.8-21.2-5.2-28.9-2.9-1.2.4-2.5-.3-2.9-1.5-.4-1.2.3-2.5 1.6-2.9 8.8-2.7 23.4-2.2 32.6 3.3 1.1.7 1.5 2.1.8 3.2-.6 1.1-2.1 1.4-3.2.8z"/></svg>