<!--Generator: Adobe Illustrator 16.0.3, SVG Export Plug-In . SVG Version: 6.00 Build 0)--><svg xmlns="http://www.w3.org/2000/svg" width="64" height="64"><g><g fill="none" stroke="#000" stroke-linecap="round" stroke-linejoin="round" stroke-miterlimit="10"><path d="M53.5 14.5l-6.2-5.7c-.1-.1 0-.2.1-.2l6.4-.7c.1 0 .2 0 .2.1l-.1 6.3c0 .2-.2.3-.4.2zM8.3 45c-.8-.7-1.2-1.5-1.2-2.4 0-2.3 3.2-4.2 7.1-4.2 3.9 0 7.1 1.9 7.1 4.2 0 .9-.4 1.7-1.2 2.4M20 45c-1.3 1.1-3.4 1.8-5.9 1.8-2.4 0-4.6-.7-5.8-1.8"/><path d="M21.2 47.3c0 2.3-3.2 4.2-7.1 4.2-3.9 0-7.1-1.9-7.1-4.2 0-.9.5-1.7 1.2-2.3 1.3 1.1 3.4 1.8 5.8 1.8s4.6-.7 5.9-1.8c.9.6 1.3 1.4 1.3 2.3z"/><path d="M21.2 51.9c0 2.3-3.2 4.2-7.1 4.2-3.9 0-7.1-1.9-7.1-4.2 0-.9.5-1.7 1.2-2.3 1.3 1.1 3.4 1.8 5.8 1.8s4.6-.7 5.9-1.8c.9.6 1.3 1.4 1.3 2.3z"/><g><path d="M26.2 40c-.8-.7-1.2-1.5-1.2-2.4 0-2.3 3.2-4.2 7.1-4.2 3.9 0 7.1 1.9 7.1 4.2 0 .9-.4 1.7-1.2 2.4M37.9 40c-1.3 1.1-3.4 1.8-5.9 1.8-2.4 0-4.6-.7-5.8-1.8"/><path d="M39.1 42.4c0 2.3-3.2 4.2-7.1 4.2-3.9 0-7.1-1.9-7.1-4.2 0-.9.5-1.7 1.2-2.3 1.3 1.1 3.4 1.8 5.8 1.8s4.6-.7 5.9-1.8c.8.6 1.3 1.4 1.3 2.3z"/><path d="M39.1 46.9c0 2.3-3.2 4.2-7.1 4.2-3.9 0-7.1-1.9-7.1-4.2 0-.9.5-1.7 1.2-2.3 1.3 1.1 3.4 1.8 5.8 1.8s4.6-.7 5.9-1.8c.8.7 1.3 1.5 1.3 2.3z"/><path d="M39.1 51.9c0 2.3-3.2 4.2-7.1 4.2-3.9 0-7.1-1.9-7.1-4.2 0-.9.5-1.7 1.2-2.3 1.3 1.1 3.4 1.8 5.8 1.8s4.6-.7 5.9-1.8c.8.6 1.3 1.4 1.3 2.3z"/></g><g><path d="M56.8 42.4c0 2.3-3.2 4.2-7.1 4.2-3.9 0-7.1-1.9-7.1-4.2 0-.9.5-1.7 1.2-2.3 1.3 1.1 3.4 1.8 5.8 1.8s4.6-.7 5.9-1.8c.9.6 1.3 1.4 1.3 2.3z"/><path d="M56.8 46.9c0 2.3-3.2 4.2-7.1 4.2-3.9 0-7.1-1.9-7.1-4.2 0-.9.5-1.7 1.2-2.3 1.3 1.1 3.4 1.8 5.8 1.8s4.6-.7 5.9-1.8c.9.7 1.3 1.5 1.3 2.3z"/><path d="M56.8 51.9c0 2.3-3.2 4.2-7.1 4.2-3.9 0-7.1-1.9-7.1-4.2 0-.9.5-1.7 1.2-2.3 1.3 1.1 3.4 1.8 5.8 1.8s4.6-.7 5.9-1.8c.9.6 1.3 1.4 1.3 2.3zM44 30.8c-.8-.7-1.2-1.5-1.2-2.4 0-2.3 3.2-4.2 7.1-4.2 3.9 0 7.1 1.9 7.1 4.2 0 .9-.4 1.7-1.2 2.4M55.7 30.8c-1.3 1.1-3.4 1.8-5.9 1.8-2.4 0-4.6-.7-5.8-1.8"/><path d="M56.9 33.1c0 2.3-3.2 4.2-7.1 4.2-3.9 0-7.1-1.9-7.1-4.2 0-.9.5-1.7 1.2-2.3 1.3 1.1 3.4 1.8 5.8 1.8s4.6-.7 5.9-1.8c.8.6 1.3 1.4 1.3 2.3z"/><path d="M56.9 37.7c0 2.3-3.2 4.2-7.1 4.2-3.9 0-7.1-1.9-7.1-4.2 0-.9.5-1.7 1.2-2.3 1.3 1.1 3.4 1.8 5.8 1.8s4.6-.7 5.9-1.8c.8.6 1.3 1.4 1.3 2.3z"/></g><path d="M7.6 32.6l6.6-7.9 8.1 4 8.1-9.7 7.5 4.3 12.6-11.6"/></g></g></svg>