<!--Generator: Adobe Illustrator 16.0.3, SVG Export Plug-In . SVG Version: 6.00 Build 0)--><svg xmlns="http://www.w3.org/2000/svg" width="64" height="64"><g><path fill="none" stroke="#000" stroke-linecap="round" stroke-linejoin="round" stroke-miterlimit="10" d="M28 51.1l-1.7 5.8c-.1.3-.4.4-.6.3L18.2 55c-.3-.1-.4-.4-.3-.6l1.7-5.8 5.9-20.7 2-7-14.6-4.3c-.4-.1-.5-.7-.1-.9l9.6-5c.1-.1.2-.1.4 0l7.1 2 1.6-5.6c.1-.3.3-.4.6-.3l7.6 2c.3.1.4.4.4.6L38.4 15l7.5 2.1c.1 0 .2.1.3.3l5.2 9.6c.2.4-.2.8-.6.7L36 23.4l-2 6.9-6 20.8z"/></g></svg>