<!--Generator: Adobe Illustrator 16.0.3, SVG Export Plug-In . SVG Version: 6.00 Build 0)--><svg xmlns="http://www.w3.org/2000/svg" width="64" height="64"><g fill="none" stroke="#000" stroke-linecap="round" stroke-linejoin="round" stroke-miterlimit="10"><path d="M9.9 24.3H20v30.3H9.9V24.3zm5-14.9c3 0 5.5 2.5 5.5 5.5s-2.5 5.5-5.5 5.5-5.5-2.5-5.5-5.5 2.5-5.5 5.5-5.5M25.8 24.3h8.6v4.3h.1c1.2-2.4 4.3-4.9 8.8-4.9 9.5 0 11.2 6.2 11.2 14.3v16.5h-8.6V39.8c0-3.5-.1-8.1-4.7-8.1-4.7 0-5.4 3.8-5.4 7.8v15h-10V24.3z"/></g></svg>