<!--Generator: Adobe Illustrator 16.0.3, SVG Export Plug-In . SVG Version: 6.00 Build 0)--><svg xmlns="http://www.w3.org/2000/svg" width="64" height="64"><g><path fill="none" stroke="#000" stroke-linecap="round" stroke-linejoin="round" stroke-miterlimit="10" d="M55 47.5H9c-1.7 0-3.1-1.4-3.1-3.1V12.6C6 10.9 7.3 9.5 9 9.5h46c1.7 0 3.1 1.4 3.1 3.1v31.9c-.1 1.6-1.4 3-3.1 3zM14.4 54.5h35.2M32.7 47.5v7"/><path d="M32 25.6l1.4 7.1c.1.3.5.5.7.2l5.5-5.5c.2-.2.1-.6-.2-.7L32.5 25c-.3.1-.6.3-.5.6zM41.3 35.499l-4.879-4.88 1.06-1.06 4.88 4.88z"/></g></svg>