<!--Generator: Adobe Illustrator 16.0.3, SVG Export Plug-In . SVG Version: 6.00 Build 0)--><svg xmlns="http://www.w3.org/2000/svg" width="64" height="64"><path fill="none" stroke="#000" stroke-linecap="round" stroke-linejoin="round" stroke-miterlimit="10" d="M23.9 52.9c.1 0 .1 0 0 0l.1-22.3"/><path fill="none" stroke="#000" stroke-linecap="round" stroke-linejoin="round" stroke-miterlimit="10" d="M55.9 36.1c0-1.4-.6-2.6-1.5-3.6.7-.9 1.1-1.9 1.1-3 0-1.3-.5-2.5-1.5-3.5s-2.3-1.6-3.7-1.6h-11l.7-3.8c.1-.6.1-1.1.1-1.7 0-4.4-3-9.6-6.8-9.6-1.1 0-2.2.4-3.1 1.1l-.4.3.6 7.4c0 .3 0 .6-.1.9-.1.3-.2.6-.4.9L24 30.8l-.1.2c-.1-1-2-1.8-2-1.8H10.1c-1.1 0-2.1.9-2.1 2.1v21.4c0 1.1.9 2.1 2.1 2.1h11.8c1.1 0 2.1-.9 2.1-2.1v-1.4s0 0 0 0c2.1 1.8 4.9 1.8 5 1.8H46.4c1.9-.1 3.7-1.2 4.3-3 .4-1.1.5-2.2.2-3.2 1.8-.8 3-2.6 3-4.6 0-.7-.1-1.3-.4-1.9 1.5-.9 2.4-2.5 2.4-4.3z"/></svg>