<!--Generator: Adobe Illustrator 16.0.3, SVG Export Plug-In . SVG Version: 6.00 Build 0)--><svg xmlns="http://www.w3.org/2000/svg" width="64" height="64"><g><g fill="none" stroke="#000" stroke-linecap="round" stroke-linejoin="round" stroke-miterlimit="10"><path d="M26.9 43.9c-1.5.1-1.9.2-2.4-.2-1.3-.9-.3-3-1.1-6.6-.5-2-1.3-3.5-1.9-4.7-1.2-2.3-1.9-2.5-2.7-4.1-1.5-3-1.3-6-1.1-7.3.1-1.6.8-5.9 4.4-9.3 4.1-4 9.1-4 10.2-4 .8 0 6.4.2 10.6 4.8 1 1.1 3.4 4.2 3.7 8.6.2 4-1.5 7.3-2.3 9-.8 1.5-1.3 2.1-2.6 4.7-1.2 2.4-1.6 3.7-1.7 5-.1 2.1.6 3.4-.1 4.1-.5.5-1.3.3-2.4.2-4.1-.5-8.5-.3-10.6-.2zM38.7 47.5H25.3M38.7 50H25.3M25.3 53.3h13.5c.4 0 .5.4.3.6-.9.9-3 2.4-7.1 2.4-3.9-.1-6.1-1.5-7-2.3-.3-.3-.1-.7.3-.7z"/></g></g></svg>