<!--Generator: Adobe Illustrator 16.0.3, SVG Export Plug-In . SVG Version: 6.00 Build 0)--><svg xmlns="http://www.w3.org/2000/svg" width="64" height="64"><path fill="none" stroke="#000" stroke-linecap="round" stroke-linejoin="round" stroke-miterlimit="10" d="M55.9 24C52.7 13.6 42.8 6.8 32 6.8h0C18.1 6.8 6.8 18.1 6.8 32c0 5.5 1.8 10.6 4.8 14.8l-3.1 9.4 9.7-3.1c4 2.6 8.7 4.2 13.9 4.2 16.4-.1 29.2-16.1 23.8-33.3zm-9.2 17.9c-.6 1.7-3 3.1-4.9 3.6-1.3.3-3 .5-8.8-1.9-6.5-2.7-15.5-12.3-15.5-18.7 0-3.3 1.9-7 5.1-7 1.6 0 1.9 0 2.4 1.3.6 1.5 2.1 5.1 2.3 5.4.7 1.5-.7 2.4-1.8 3.7-.3.4-.7.8-.3 1.6.4.7 1.9 3.1 4.1 5.1 2.8 2.5 5.1 3.3 5.9 3.6.6.3 1.3.2 1.8-.3.6-.6 1.3-1.6 2-2.6.5-.7 1.1-.8 1.8-.5.5.2 6.2 2.8 6.4 3.2.1.3.1 1.8-.5 3.5z"/></svg>