<!--Generator: Adobe Illustrator 16.0.3, SVG Export Plug-In . SVG Version: 6.00 Build 0)--><svg xmlns="http://www.w3.org/2000/svg" width="64" height="64"><path fill="none" stroke="#000" stroke-linecap="round" stroke-linejoin="round" stroke-miterlimit="10" d="M24.4 17.4c-.1.1-.2.1-.3.1-3.9-.5-7.5.1-10.5 1.6C-3 27.4 2.7 51.7 20.2 52.8c1.4.1 18.8.1 20.2.1C53.5 51.5 60.3 42.2 60.3 31 58.1 10.6 36 5.5 24.4 17.4zm-2.9 31.5c-6.5 0-12-4.5-13.4-10.8-1.6-7 2.4-14 9.3-16.1 5.1-1.5 9.7-.5 13.6 3.2 2 1.9 3.9 3.9 5.8 5.8 1.8 1.8-1 4.3-2.7 2.6-6.1-6.1-7-7.6-10.9-8.3-4.6-.8-9.3 1.8-11 6.2-2.3 5.8 1.1 13.7 10.5 13.5.3 0 .5.1.8.3 1 1 3.2 3 3.8 3.6h-5.8zm30.9-6.1c-4 4.8-9.7 6.8-15.5 6-6.6-.9-8.1-3.6-17.4-12.7-1.8-1.8.8-4.7 2.8-2.6l7.8 7.8c4.8 4.9 13.4 5.5 18.9-.6 3.6-4 5-11.1.6-16.7-4.2-5.4-11.6-6.7-17.4-3-.1.1-.2.1-.3 0-1.1-.8-2.2-1.4-3.3-2l-.1-.1c6.4-5.3 16.7-5.7 23.6 2 5.3 5.9 5.7 15.3.3 21.9z"/></svg>