<!--Generator: Adobe Illustrator 16.0.3, SVG Export Plug-In . SVG Version: 6.00 Build 0)--><svg xmlns="http://www.w3.org/2000/svg" width="64" height="64"><path d="M56 34.9c-1.5 12.9-13.3 22.4-26.2 21.3-.6-.1-1.1-.1-1.7-.2-.4 0-.7-.1-1.1-.2-.3-.1-.6-.1-.8-.2-.2 0-.4-.1-.6-.1-.3-.1-.6-.2-.9-.2 1-1.6 2.5-4.2 3-6.3.3-1.1 1.5-5.8 1.5-5.8.8 1.5 3.1 2.8 5.5 2.8 7.3 0 12.6-6.7 12.6-15 0-8-6.5-14-14.9-14-10.4 0-16 7-16 14.6 0 3.6 1.9 8 4.9 9.4.5.2.7.1.8-.3.1-.3.5-2 .7-2.8.1-.2 0-.5-.2-.7-1-1.2-1.8-3.4-1.8-5.5C21 26.2 25 21 31.9 21c5.9 0 10.1 4.1 10.1 9.8 0 6.5-3.3 11.1-7.6 11.1-2.4 0-4.2-2-3.6-4.4.7-2.9 2-6 2-8 0-1.9-1-3.4-3.1-3.4-2.4 0-4.4 2.5-4.4 5.9 0 2.2.7 3.6.7 3.6s-2.4 10.1-2.8 12c-.5 2.1-.3 5-.1 6.9-.1-.1-.3-.1-.4-.2-.8-.3-1.6-.7-2.3-1.1-.3-.2-.6-.3-.9-.5-2.2-1.3-4.2-3-5.9-5-.2-.2-.3-.4-.5-.6-1.4-1.7-2.6-3.7-3.5-5.8-.1-.3-.3-.7-.4-1-.2-.7-.5-1.5-.7-2.3-.1-.4-.2-.7-.3-1.1 0-.5-.1-.9-.2-1.4 0-.3-.1-.7-.1-1 0-.3-.1-.7-.1-1.1v-.2V32C7.8 18.6 18.6 7.8 32 7.8c14.3 0 25.7 12.4 24 27.1z"/></svg>