<!--Generator: Adobe Illustrator 16.0.3, SVG Export Plug-In . SVG Version: 6.00 Build 0)--><svg xmlns="http://www.w3.org/2000/svg" width="64" height="64"><g><g fill="none" stroke="#000" stroke-linecap="round" stroke-linejoin="round" stroke-miterlimit="10"><path d="M4.7 14.6h54.5c.9 0 1.7.8 1.7 1.7v31.3c0 .9-.8 1.7-1.7 1.7H4.7c-.9 0-1.7-.8-1.7-1.7V16.3c0-.9.8-1.7 1.7-1.7zM26.5 14.6h10.6M11.7 24.8h18.9M11.7 32h18.9M11.7 39.2h18.9"/><path d="M45.4 19.6h1.2c2.3 0 4.3 1.9 4.3 4.3v2.7c0 2.3-1.9 4.3-4.3 4.3h-1.2c-2.3 0-4.3-1.9-4.3-4.3v-2.7c.1-2.4 2-4.3 4.3-4.3z"/><path d="M49.5 29.7c1.1.5 4 3.8 5.2 5.7.5.9 1.9 3.2 1.2 5.3-1.3 3.7-8.4 3.7-9.7 3.7-.8 0-8.6 0-9.8-3.9-.6-2 .8-4.2 1.5-5.3 1-1.6 2.2-2.6 3.1-3.4.4-.4 1.5-1.6 1.9-1.9"/></g></g></svg>