<!--Generator: Adobe Illustrator 16.0.3, SVG Export Plug-In . SVG Version: 6.00 Build 0)--><svg xmlns="http://www.w3.org/2000/svg" width="64" height="64"><path d="M49.2 23.5c-.2.5.1.8.8 1 3.7 1.6 4.6 6.4 1.9 9.4-.2.2-.5.3-.5.5s.2.4.3.7c2.9 5.7.2 12.6-5.9 14.5-1.1.3-2.2.5-3.3.5-.2 0-.3.1-.3.3-1.4 4.9-7.3 6.6-11.2 3.4-.2-.2-.3-.1-.4 0-1 .8-2.1 1.3-3.3 1.6-4.6 1.2-9.4-1.4-11-5.8-.3-.9-.5-1.8-.6-2.8 0-.2-.1-.3-.3-.3-2.7-.6-4.8-2-6.1-4.5-1.7-3.3-1.1-7.5 1.5-10.1l.1-.1c.2-.1.2-.3.1-.5-2.7-4.7-.1-10.6 5.1-11.8.6-.1.9-.4 1.2-1 1.9-3.9 4.9-6.2 9.2-6.9 2.8-.5 5.5.1 8 1.6.2.1.4.2.7.1 6.2-2 12.6 1.9 13.8 8.2.1.6.2 1.2.2 2zM41 44.3c.6 0 1.3 0 1.8-.3.6-.3.9-.7.9-1.3 0-.6-.3-1.1-.9-1.4-.4-.1-.7-.2-1.1-.3-.6-.1-1.1-.1-1.6-.3-.7-.3-1.1-.7-1.1-1.5 0-.6.1-1.2.2-1.7.4-1.6 1.1-3.1 1.8-4.6.7-1.7 1.5-3.3 2.1-5.1.2-.8.4-1.5.3-2.4-.3-1.6-1.2-2.5-2.6-2.8-.7-.1-1.4-.1-2.1-.1-.4 0-.8.1-1.1.4-.8.5-1 .5-1.7-.2-.2-.2-.5-.4-.7-.6-.2-.2-.5-.4-.9-.4-1-.2-1.9-.1-2.7.6-.4.4-.9.8-1.3 1.1-.5.3-1 .4-1.5.1-.7-.4-1.5-.7-2.3-1.1-.4-.2-.8-.3-1.2-.3-2.1.1-3.6 1-4.5 2.8-.2.4-.4.9-.5 1.3-1.5 3.9-2.6 7.9-3.8 11.9-.4 1.4-.1 2.7 1 3.8.8.8 1.8 1.1 2.9 1.1 1.4 0 2.3-.7 3-1.9.1-.2.2-.3.2-.5 1.2-2.9 2.3-5.8 3.5-8.8.4-.9.7-1.8 1.1-2.7.2-.5.8-.8 1.3-.8.5.1.8.5 1 1.1.1.4 0 .7-.1 1.1-.6 1.7-1.3 3.3-1.9 4.9-.4.9-.8 1.9-1.1 2.8-.3 1 .1 1.8.9 2.1.5.2 1 .2 1.6.1.8-.2 1.3-.8 1.7-1.5 1.1-2.2 2.2-4.3 3.3-6.5.7-1.3 1.3-2.6 2-3.9.2-.3.4-.7.7-.9.3-.2.7-.3 1.1-.1.3.2.4.5.4.8 0 .3-.1.7-.3 1-.8 1.9-1.8 3.8-2.7 5.7-.4 1-.9 1.9-1.2 2.9-.7 2.4.8 5 3.3 5.8.7.4 1.8.6 2.8.6zM45.8 51.8c1.4 0 2.5 1.1 2.5 2.5s-1.1 2.5-2.5 2.5-2.5-1.1-2.5-2.5 1.1-2.5 2.5-2.5zM8 30.9c0 1.3-1.1 2.4-2.4 2.4-1.3 0-2.4-1.1-2.4-2.4 0-1.3 1.1-2.4 2.4-2.4 1.3-.1 2.4 1 2.4 2.4zM35.4 10.8c-1.3 0-2.4-1-2.4-2.4C33 7.1 34.1 6 35.4 6c1.3 0 2.4 1.1 2.4 2.4 0 1.3-1 2.4-2.4 2.4zM53.2 19.1c1.2 0 2 1 2 2.1s-1 2-2.1 1.9c-1.2 0-2.1-1-2-2.1 0-1.1 1-2 2.1-1.9zM12.9 15.2c0-1 .8-1.8 1.8-1.8s1.8.8 1.8 1.8-.8 1.8-1.8 1.8-1.8-.8-1.8-1.8zM30.6 56.4c.9 0 1.5.7 1.5 1.5 0 .9-.7 1.6-1.6 1.6-.9 0-1.6-.7-1.6-1.6.1-.8.8-1.5 1.7-1.5zM55.2 35c0-.8.7-1.5 1.5-1.5s1.5.7 1.5 1.5-.7 1.5-1.5 1.5-1.5-.7-1.5-1.5zM20 7.1c-.7 0-1.3-.6-1.3-1.3 0-.7.6-1.3 1.3-1.3.7 0 1.3.6 1.3 1.3-.1.7-.6 1.3-1.3 1.3zM59.7 28.7c-.6 0-1.1-.5-1.1-1.1 0-.6.5-1.1 1.1-1.1.6 0 1.2.5 1.2 1.1-.1.6-.6 1.1-1.2 1.1zM12.9 50.3c-.6 0-1.1-.5-1.1-1.1 0-.6.5-1.1 1.2-1.1.6 0 1.1.5 1.1 1.1 0 .7-.5 1.1-1.2 1.1z"/></svg>