<!--Generator: Adobe Illustrator 16.0.3, SVG Export Plug-In . SVG Version: 6.00 Build 0)--><svg xmlns="http://www.w3.org/2000/svg" width="64" height="64"><g><g fill="none" stroke="#000" stroke-linecap="round" stroke-linejoin="round" stroke-miterlimit="10"><path d="M16.6 17.4c1.7-6.2 8.1-9.9 14.3-8.2 6.2 1.7 9.9 8.1 8.2 14.3-1.7 6.2-8.1 9.9-14.3 8.2-1.6-.4-3-1.1-4.2-2.1-3.5-2.7-5.3-7.5-4-12.2z"/><circle cx="28.5" cy="18" r="3"/><path d="M20.7 29.7L15 50.9l2.7 4.7 6.6-3.8-2-3.4 3-1.7-1.8-3.3 3.1-1.8 2.6-9.5M30.8 9.1c5.7-2.1 12.4.7 14.4 6.5 2.1 5.7-.9 12.1-6.6 14.1-1.1.4-2.5.8-4.2.5"/><path d="M34.3 30.3l7.1 19.5L46 52l3-6.5-3.3-1.6 1.4-3-3.2-1.5 1.4-3.1-3.1-8.6"/></g></g></svg>