<!--Generator: Adobe Illustrator 16.0.3, SVG Export Plug-In . SVG Version: 6.00 Build 0)--><svg xmlns="http://www.w3.org/2000/svg" width="64" height="64"><g fill="none" stroke="#000" stroke-linecap="round" stroke-linejoin="round" stroke-miterlimit="10"><path d="M48.4 19.5c0 .3-.1.6-.2.9-2.1 10.7-9.2 14.4-18.3 14.4H26c-1.1 0-2 .8-2.1 1.8l-2.2 14.1-.6 4c-.1.7.4 1.3 1.1 1.3H30c.9 0 1.7-.7 1.9-1.6l.1-.3 1.4-8.8.1-.4c.2-.9 1-1.6 1.9-1.6h.9c8 0 14.2-3.2 16-12.6.8-3.9.4-7.2-1.6-9.5-.7-.7-1.4-1.2-2.3-1.7z"/><path d="M48.3 20.1c.6-3.7-.5-6.2-2.5-8.5C43.6 9.1 39.6 8 34.5 8H19.7c-1 0-1.9.8-2.1 1.8l-6.2 39.1c-.1.8.5 1.5 1.3 1.5h9.1l2.3-14.6"/></g></svg>