<!--Generator: Adobe Illustrator 16.0.3, SVG Export Plug-In . SVG Version: 6.00 Build 0)--><svg xmlns="http://www.w3.org/2000/svg" width="64" height="64"><g><g fill="none" stroke="#000" stroke-linecap="round" stroke-linejoin="round" stroke-miterlimit="10"><path d="M18.6 43h-6.4s-7.7-.8-7.4-9.7c.2-8.9 9.4-8.9 9.4-8.9s1.2-9.5 9.6-11.5c8.3-2 13.4 5.1 13.4 5.1s5.4-2.6 10.8.5c5.4 3 4.8 9.3 4.8 9.3s6.2.4 6.4 8c.2 7.7-6.4 7.2-6.4 7.2h-7.4"/><path d="M23.5 36.9h18.2v14.6H23.5zM37.5 36.9c0-2.6-.3-6.6-5.3-6.6-5.5 0-5.2 3.9-5.2 6.5"/><path d="M31 46.1s-.3 3.7.8 3.7 1.1-3.8 1.1-3.8 4.5-4.4-.5-4.9h-.7c-4.5.5-.7 5-.7 5z"/></g></g></svg>