<!--Generator: Adobe Illustrator 16.0.3, SVG Export Plug-In . SVG Version: 6.00 Build 0)--><svg xmlns="http://www.w3.org/2000/svg" width="64" height="64"><g fill="none" stroke="#000" stroke-linejoin="round" stroke-miterlimit="10"><path stroke-linecap="round" d="M38.4 33c.2-.5.8-1.6 2.1-2.5.4-.3 1.8-1.1 3.7-1 2.1.1 3.5 1.4 3.9 1.8 2.1 2.1 1.8 4.9 1.7 5.4-.1.8-.4 2.4-4.6 6.8-3.5 3.6-6.9 5.5-6.9 5.5s-3.5-2.1-7.2-5.7c-3-2.9-4.2-4.7-4.3-6.5-.2-2.7 1.4-6.6 4.9-7.2 2.3-.5 4.9.9 6.7 3.4z"/><path stroke-linecap="round" d="M49.8 37.3c5.9-1.8 12.1-4.7 12.3-8 .5-6.6-17.9-16.2-33.9-13.8-1.5.2-7.3 1.2-13.4 5.2C9.1 24.4.2 32.7 2.1 37.6 4.2 43.2 20.2 42 28.8 41"/><path stroke-linecap="round" d="M14.2 21.7c.2.7 1.2 1.5 2.8 2.9 4.3 3.7 4.7 4 5 3.8.9-.5.2-3.8-1.3-6.1-.5-.8-1.6-2.7-3-3M22.4 17.1c.2.7 2.4 2.8 4 4.2 4.3 3.7 4.7 4 5 3.8.9-.5.2-3.8-1.3-6.1-.5-.8-1.7-2.7-2.8-3.5"/><path d="M33.3 15.1c.2.7 2.8 3.9 4.4 5.3 4.3 3.7 4.7 4 5 3.8.9-.5.2-3.8-1.3-6.1-.5-.8-.8-1.9-2-2.5"/></g></svg>