<!--Generator: Adobe Illustrator 16.0.3, SVG Export Plug-In . SVG Version: 6.00 Build 0)--><svg xmlns="http://www.w3.org/2000/svg" width="64" height="64"><g><path fill="none" stroke="#000" stroke-linecap="round" stroke-linejoin="round" stroke-miterlimit="10" d="M49.4 41c-3.1 1.4-7.2 2.5-10.9 2.5-2.1 0-3.6-.1-5.5-.6"/><path fill="none" stroke="#000" stroke-linecap="round" stroke-linejoin="round" stroke-miterlimit="10" d="M18.2 31.6c-.9-1.9-1.1-3.4-1.1-5.6 0-9.6 9.6-17.4 21.4-17.4S59.9 16.4 59.9 26c0 4.4-2 8.4-5.3 11.4h0l6.7 7.6-11.9-4"/><path fill="none" stroke="#000" stroke-linecap="round" stroke-linejoin="round" stroke-miterlimit="10" d="M17.9 31.6c-8.4 0-15.2 5.1-15.2 11.5 0 2.7 1.2 5.1 3.2 7.1l-1.2 5.1 5.3-2.4c2.3 1 4.9 1.6 7.8 1.6C26.2 54.5 33 49.4 33 43c0-6.2-6.8-11.4-15.1-11.4z"/><circle fill="none" stroke="#000" stroke-linecap="round" stroke-linejoin="round" stroke-miterlimit="10" cx="38.9" cy="26.6" r="3.7"/><path fill="none" stroke="#000" stroke-linecap="round" stroke-linejoin="round" stroke-miterlimit="10" d="M35.6 19.4c-1.1.3-3.1-1.4-4-.5-.3.3-.5.6-.8.9-.7.8 1 2.6.7 3.8 0 .1-.1.3-.1.3-.6 1-2.9 1.3-2.9 2.5 0 .4 0 .8.1 1.1.1 1 2.1.9 2.9 1.8.1.1.2.5.2.5l.1.5c.3 1.1-1.4 2.7-.6 3.6.3.3.6.5.8.8.8.7 2.6-1 3.9-.6.1 0 .3.1.3.1 1 .6 1.3 2.9 2.5 2.9.4 0 .8 0 1.1-.1 1.1-.1.9-2.4 2.1-3l.3-.1c1.1-.3 3 1.3 3.8.4.3-.3.5-.6.7-.9.7-.9-1.1-2.4-.7-3.6l.2-.4c.7-1 2.9-.9 2.9-2.1v-1.1c-.1-1.1-2.5-1.2-3.1-2.4 0-.1-.2-.2-.2-.2-.2-1.2 1.2-3 .4-3.9l-.8-.8c-.8-.7-2.4 1-3.6.6l-.3-.2c-1-.6-1.1-3-2.3-3.1-.4 0-.8 0-1.1.1-1.1.1-1 2.4-2.1 3l-.4.1z"/><circle cx="24" cy="42.8" r="1.5"/><circle cx="17.2" cy="42.8" r="1.5"/><circle cx="10.3" cy="42.8" r="1.5"/></g></svg>