<!--Generator: Adobe Illustrator 16.0.3, SVG Export Plug-In . SVG Version: 6.00 Build 0)--><svg xmlns="http://www.w3.org/2000/svg" width="64" height="64"><g><path fill="none" stroke="#000" stroke-linecap="round" stroke-linejoin="round" stroke-miterlimit="10" d="M41.5 42.5h10.3c.1 0 .2.2.1.3l-5.3 5.9c-.1.1-.2.1-.2 0l-5.1-5.8c-.2-.2 0-.4.2-.4zM46.3 33.6v8.9"/><circle fill="none" stroke="#000" stroke-linecap="round" stroke-linejoin="round" stroke-miterlimit="10" cx="46.3" cy="41.4" r="13.2"/><path fill="none" stroke="#000" stroke-linecap="round" stroke-linejoin="round" stroke-miterlimit="10" d="M36.4 50.1H4.8c-.2 0-.3-.1-.3-.3V17.5c0-.2.1-.3.3-.3h44.4c.2 0 .3.1.3.3v10.7M24.3 9.5H6.9c-.3.1-.2.1-.2.1v7.5M45.9 17.1v-4.3H28.7M24.3 9.5l4.5 3.3"/></g></svg>