<!--Generator: Adobe Illustrator 16.0.3, SVG Export Plug-In . SVG Version: 6.00 Build 0)--><svg xmlns="http://www.w3.org/2000/svg" width="64" height="64"><g><circle fill="none" stroke="#000" stroke-linecap="round" stroke-linejoin="round" stroke-miterlimit="10" cx="32" cy="32" r="24.7"/><path d="M33.5 44.2c0 .7-.5 1.2-1.2 1.2s-1.2-.5-1.2-1.2.6-1.2 1.2-1.2c.7 0 1.2.5 1.2 1.2z"/><path fill="none" stroke="#000" stroke-linecap="round" stroke-linejoin="round" stroke-miterlimit="10" d="M25.8 22.9c.3-.4 2.6-3.8 6.7-3.9h.4c.7 0 3.3.1 5.3 2.1.3.3 2.5 2.6 2 5.5-.3 2.3-2.2 4.5-4.2 5.2 0 0-2.1.7-3.2 1.6-.6.4-.7.9-.7 1V39"/></g></svg>