<!--Generator: Adobe Illustrator 16.0.3, SVG Export Plug-In . SVG Version: 6.00 Build 0)--><svg xmlns="http://www.w3.org/2000/svg" width="64" height="64"><g><circle fill="none" stroke="#000" stroke-linecap="round" stroke-linejoin="round" stroke-miterlimit="10" cx="32" cy="32" r="24.6"/><path fill="none" stroke="#000" stroke-linecap="round" stroke-linejoin="round" stroke-miterlimit="10" d="M24.2 30.8v7.8c-.1.7-.5 1-1.1 1H21l-.6 3.5h6V48h3v-4.9h2.4V48h3v-4.9c1.1-.1 2-.1 2.8-.3s1.6-.4 2.3-.7c.7-.3 1.4-.7 1.9-1.1.5-.5.9-1 1.2-1.7.3-.7.5-1.5.6-2.4.2-1.8-.1-3.2-.9-4.1h0c-.7-1-1.9-1.6-3.4-2 1.9-1 2.8-2.6 2.5-5-.1-.9-.3-1.6-.7-2.2-.4-.6-.9-1.1-1.6-1.5-.7-.4-1.4-.7-2.2-.9-.8-.2-1.7-.3-2.7-.4v-4.9h-3v4.7h-2.4v-4.8h-3v4.9h-6V24h2.1c1 0 1.6.4 1.7 1.3v5.5m5.4-6.6H32.3c.5 0 .9.1 1.2.2.3.1.7.2 1.1.3.4.1.7.3.9.5.2.2.4.5.6.8.2.3.2.7.2 1.1 0 .4-.1.7-.2 1-.1.3-.3.5-.5.7-.2.2-.5.4-.7.5-.2.1-.6.3-.9.4-.4.1-.7.2-1 .2-.3.1-.6.1-1.1.1H29.3l.1-5.8h0zm8.1 13.1c-.1.3-.3.6-.5.8-.2.2-.4.4-.8.6-.3.2-.6.3-.9.4-.3.1-.7.2-1.1.3-.4.1-.8.1-1.1.2-.3 0-.7.1-1.1.1H29.4v-6.5h2.1c.3 0 .8 0 1.3.1.6 0 1 .1 1.4.2.4.1.8.2 1.3.4s.8.4 1.1.6c.3.2.5.5.7.9.2.4.3.8.3 1.2.1.1 0 .4-.1.7h0zm0 0"/></g></svg>