<!--Generator: Adobe Illustrator 16.0.3, SVG Export Plug-In . SVG Version: 6.00 Build 0)--><svg xmlns="http://www.w3.org/2000/svg" width="64" height="64"><g><g fill="none" stroke="#000" stroke-linecap="round" stroke-linejoin="round" stroke-miterlimit="10"><path d="M43 39.6c0 4.7-2.9 8.6-7 10.3-1.2.5-2.6.8-4 .8-1.5 0-3-.3-4.3-.9-4-1.8-6.7-5.7-6.7-10.2 0-4.6 2.8-8.5 6.7-10.1 1.3-.6 2.8-.9 4.3-.9 1.4 0 2.8.3 4.1.8 4 1.5 6.9 5.5 6.9 10.2z"/><path d="M28.3 29.2v-7.3L13 21.8c-.4 0-.7-.5-.3-.8l7.9-6.6c.1 0 .2-.1.3-.1h7.4V8.5c0-.3.2-.5.5-.5l7.9-.1c.3 0 .5.2.5.5v6h6.7c.1.1.2.1.3.2l7.2 7.4c.3.3.1.8-.3 1.3h-14v6.4M36.4 49.9v5.7c0 .3-.2.5-.5.5l-7.8-.1c-.3 0-.5-.2-.5-.5v-5.7c1.4.6 2.9.9 4.6.9 1.5 0 2.9-.3 4.2-.8z"/></g><path d="M28.7 39v3.7c0 .3-.2.5-.5.5h-1l-.3 1.7h2.8v2.3h1.4v-2.3h1.1v2.3h1.4v-2.3c.5 0 .9-.1 1.3-.1.4-.1.8-.2 1.1-.3.4-.1.7-.3.9-.5.2-.2.4-.5.6-.8.2-.3.3-.7.3-1.1.1-.9-.1-1.5-.4-2-.4-.5-.9-.8-1.6-.9.9-.5 1.3-1.3 1.2-2.4 0-.4-.1-.8-.3-1.1-.2-.3-.4-.5-.8-.7-.3-.2-.7-.3-1-.4-.4-.1-.8-.2-1.3-.2v-2.3h-1.4v2.2h-1.1V32h-1.4v2.3h-2.8v1.5h1c.5 0 .7.2.8.6V39m2.5-3.1h1.4c.2 0 .4 0 .6.1.2 0 .3.1.5.2s.3.2.4.3c.1.1.2.2.3.4.1.2.1.3.1.5s0 .3-.1.5c-.1.1-.1.3-.2.4-.1.1-.2.2-.3.2-.1.1-.3.1-.4.2-.2 0-.3.1-.5.1-.1 0-.3 0-.5.1s-.4 0-.5 0h-.7l-.1-3zm3.8 6.2c-.1.1-.1.3-.2.4-.1.1-.2.2-.4.3-.2.1-.3.1-.4.2s-.3.1-.5.1-.4.1-.5.1h-1.7v-3.1h1.6c.3 0 .5 0 .7.1s.4.1.6.2c.2.1.4.2.5.3.1.1.2.3.3.4.1.2.1.4.1.6 0 .1 0 .3-.1.4zm0 0"/></g></svg>