<!--Generator: Adobe Illustrator 16.0.3, SVG Export Plug-In . SVG Version: 6.00 Build 0)--><svg xmlns="http://www.w3.org/2000/svg" width="64" height="64"><path d="M7.7 40.2l2.1 1.9-1.6 2.5 3 2.1-1.4.7 2.9 2.6-.6.7s5.8 7.4 17.6 5.5c0 0 5.3-6.3-16.1-19.2.2.1 7.4 3.3 17 10.7 0 0 3-11.3-11.8-21.5.2.1 8.2 3.9 11.9 9.4l.9-20.2.4-7.8-1 3.1-1-.8-.3 2-.9-.9-.6 2-1.8-.5-.3 2.2-1.8-.3-.1 1.8-2-.6L22 18l-1.5-.3-.5 1.5-1.8-.4.3 2-2-.5-.2 2.2h-1.2l.1 1.7-2.2-.1.3 1.8-2.1-.3.4 2.6-1.4-.1.4 2.3-1.2-.1.2 3H8.2L9.3 36l-1.6.6 1.4 2.9-1.4.7z"/><path fill="none" stroke="#000" stroke-linecap="round" stroke-linejoin="round" stroke-miterlimit="10" d="M56.3 40.2l-2.1 1.9 1.6 2.5-3 2.1 1.4.7-2.9 2.6.6.7s-5.8 7.4-17.6 5.5c0 0-5.3-6.3 16.1-19.2-.2.1-7.4 3.3-17 10.7 0 0-3-11.3 11.8-21.5-.2.1-8.2 3.9-11.9 9.4l-.9-20.2-.4-7.8 1 3.1 1-.8.3 2 .9-.9.6 1.9 1.8-.5.3 2.2 1.8-.3.1 1.8 2-.6.2 2.4 1.5-.3.3 1.6 1.8-.4-.3 2 2-.5.2 2.2h1.2l-.1 1.7 2.3-.1-.3 1.8 2.1-.3-.4 2.6 1.4-.1-.4 2.3 1.2-.1-.2 3h1.4l-1 2.7 1.6.6-1.4 2.9 1.4.7z"/></svg>